<?xml version="1.0" encoding="UTF-8" standalone="no"?>
<!-- Created with Inkscape (http://www.inkscape.org/) -->

<svg
   version="1.1"
   id="svg1"
   width="480"
   height="406"
   viewBox="0 0 480 406"
   sodipodi:docname="a-dam-canal-houses.svg"
   inkscape:version="1.3 (0e150ed6c4, 2023-07-21)"
   xmlns:inkscape="http://www.inkscape.org/namespaces/inkscape"
   xmlns:sodipodi="http://sodipodi.sourceforge.net/DTD/sodipodi-0.dtd"
   xmlns="http://www.w3.org/2000/svg"
   xmlns:svg="http://www.w3.org/2000/svg">
  <defs
     id="defs1" />
  <sodipodi:namedview
     id="namedview1"
     pagecolor="#505050"
     bordercolor="#ffffff"
     borderopacity="1"
     inkscape:showpageshadow="0"
     inkscape:pageopacity="0"
     inkscape:pagecheckerboard="1"
     inkscape:deskcolor="#505050"
     showgrid="false"
     inkscape:zoom="2.8891626"
     inkscape:cx="239.86189"
     inkscape:cy="203"
     inkscape:window-width="2560"
     inkscape:window-height="1369"
     inkscape:window-x="-8"
     inkscape:window-y="-8"
     inkscape:window-maximized="1"
     inkscape:current-layer="g1" />
  <g
     inkscape:groupmode="layer"
     inkscape:label="Image"
     id="g1">
    <path
       style="fill:#000000"
       d="M 17,387.5 V 383 h 5 5 V 244.5 106 h -4.150823 -4.150823 l 0.627265,-9.549226 c 0.706117,-10.749638 2.380665,-15.255342 6.594831,-17.744711 3.552431,-2.098473 10.901015,-2.219842 13.746151,-0.227031 1.858648,1.301848 2.702084,1.30368 7.040543,0.0153 6.21727,-1.84633 11.704036,-7.205479 13.781901,-13.461346 1.979172,-5.958729 3.831627,-21.903184 2.718811,-23.401349 -0.462309,-0.622398 -0.737896,-3.823769 -0.612416,-7.114157 l 0.228146,-5.982524 3.588207,0.309142 C 68.385307,29.014122 70,28.726362 70,28.204628 70,26.919292 80.130288,17.153191 84.014717,14.693745 c 3.841554,-2.4323 12.231287,-2.652132 16.522743,-0.432936 1.64485,0.850588 6.03294,4.514874 9.75131,8.142857 C 115.49728,27.485573 117.72049,29 119.97232,29 l 2.92288,0 -0.1976,14.75 c -0.21802,16.274478 1.10058,22.479831 6.01887,28.324886 4.70564,5.592336 13.93101,8.985861 17.54561,6.454099 4.88441,-3.421172 14.40257,-1.01194 17.1738,4.347021 1.39895,2.705274 3.65275,21.702024 2.68909,22.665694 -0.25207,0.25206 -1.94792,0.4583 -3.76856,0.4583 l -3.31026,0 -0.27308,17.75 c -0.15019,9.7625 -0.15699,72.0875 -0.0151,138.5 L 159.0159,383 h 5.00069 5.00068 L 168.75864,271.99995 168.5,160.99989 l 4.5,-0.01 4.5,-0.01 10.5,-13.69594 c 5.775,-7.53277 15.1125,-19.98915 20.75,-27.68084 L 219,105.61859 219,97.809296 V 90 h -3.5 c -4.59754,0 -4.68465,-2.581167 -0.25728,-7.623663 6.89381,-7.851618 19.30354,-10.570132 28.75728,-6.299661 5.78704,2.614136 12,8.633601 12,11.626272 C 256,89.661484 255.48421,90 252.5,90 H 249 l 0.003,7.75 0.003,7.75 7.24734,10.02208 c 3.98603,5.51214 11.54551,15.63714 16.79885,22.5 10.52995,13.75614 11.84512,15.65011 10.13231,14.59153 -0.68064,-0.42066 -1.37716,0.30848 -1.76292,1.84549 -0.35075,1.3975 -0.92644,2.51692 -1.27932,2.48761 -0.35287,-0.0293 -8.61895,-11.16681 -18.36906,-24.75 L 244.04507,107.5 244.02253,98.75 244,90 h -10 -10 l -0.001,8.75 -0.001,8.75 -12.65233,17.5 c -6.95878,9.625 -15.71721,21.75837 -19.46318,26.96305 -3.74596,5.20467 -6.46782,9.70467 -6.04857,10 0.41926,0.29532 0.82379,1.53033 0.89896,2.74446 0.12751,2.05961 -0.34468,2.2271 -7.04798,2.5 L 172.5,167.5 172.23866,207.75 171.97731,248 h 2.51135 C 176.4912,248 177,247.50062 177,245.53518 c 0,-2.28307 3.4611,-5.40741 4.66101,-4.20751 0.26934,0.26935 -0.4442,0.78613 -1.58565,1.14841 C 178.59641,242.94548 178,243.97754 178,246.06739 178,248.64641 177.64523,249 175.05767,249 l -2.94234,0 -0.0758,22.5 -0.0758,22.5 h 2.55992 2.55992 l -0.29181,-19.00111 c -0.1605,-10.45061 0.0457,-19.00061 0.45818,-19 0.4125,6.1e-4 0.75,8.55111 0.75,19.00111 0,16.22222 0.2193,19 1.5,19 1.28945,0 1.5,-3.19858 1.5,-22.78725 l 0,-22.78724 12.5,-0.10498 12.5,-0.10498 0,22.89223 C 206,290.78975 206.21035,294 207.5,294 c 1.2809,0 1.5,-2.78592 1.5,-19.07332 0,-17.6265 0.13275,-19.04782 1.75,-18.73708 1.58066,0.3037 1.77633,2.14937 2.02207,19.07332 0.16491,11.35741 0.65722,18.73708 1.25,18.73708 0.6089,0 0.97793,-8.6793 0.97793,-23 v -23 h 19 19 v 23 c 0,14.66667 0.36232,23 1,23 0.63063,0 1,-6.83333 1,-18.5 0,-10.175 0.3375,-18.50052 0.75,-18.50115 0.4125,-6.3e-4 0.61878,8.25536 0.4584,18.34664 l -0.29159,18.34778 3.04159,0.0865 3.0416,0.0865 V 270.93312 248 h 13.06609 l 13.06609,0 -0.20269,8.75 c -0.43185,18.64311 0.0919,37.25 1.04844,37.25 0.59197,0 1.09457,-7.40016 1.27345,-18.75 l 0.2955,-18.75 0.22656,18.75 L 291,294 h 2.5 2.5 v -20.8 c 0,-15.25509 0.33323,-21.15901 1.25,-22.1467 1,-1.07737 1,-1.20556 0,-0.64099 -0.6875,0.38815 -1.25,0.22917 -1.25,-0.35329 C 296,249.47656 294.65,249 293,249 c -2.65135,0 -3,-0.34082 -3,-2.93261 0,-2.08985 -0.59641,-3.12191 -2.07536,-3.59131 -1.14145,-0.36228 -1.85499,-0.87906 -1.58565,-1.14841 1.19991,-1.1999 4.66101,1.92444 4.66101,4.20751 0,1.96247 0.50952,2.46482 2.5,2.46482 h 2.5 v -40.5 c 0,-26.33333 0.34979,-40.5 1,-40.5 0.55,0 0.96447,-1.2375 0.92105,-2.75 l -0.0789,-2.75 -1.02333,2.80683 c -0.98291,2.69595 -1.25693,2.79524 -6.93738,2.51372 -4.18527,-0.20742 -5.77588,-0.65314 -5.4414,-1.5248 0.25996,-0.67743 0.0423,-1.49767 -0.48367,-1.82274 C 283.43035,163.14793 283,163.80852 283,164.94098 283,166.07344 282.57341,167 282.05202,167 c -0.57411,0 -0.53266,-1.19139 0.10511,-3.02089 0.80514,-2.30962 0.73403,-3.41434 -0.30202,-4.69196 -0.74531,-0.91909 -0.84061,-1.3628 -0.21178,-0.98602 0.69294,0.41519 1.38981,-0.29704 1.76905,-1.80804 0.34415,-1.3712 1.01901,-2.49309 1.49968,-2.49309 1.15574,0 2.24781,2.93231 1.52664,4.09919 -0.85761,1.38763 0.44301,4.64144 2.11116,5.28157 1.27882,0.49073 1.27223,0.17587 -0.0499,-2.38076 -1.35493,-2.62015 -1.35624,-2.88206 -0.0118,-2.36615 0.83148,0.31907 1.51179,0.98198 1.51179,1.47314 0,0.49115 2.025,0.89301 4.5,0.89301 4.23875,0 4.50088,0.15966 4.51518,2.75 0.008,1.5125 0.007,51.4625 -0.004,111 L 298.99188,383 H 302.49594 306 V 248.5 114 h 4.97461 4.9746 l 0.2754,15.62474 0.27539,15.62474 3.6653,-5.37474 c 2.01591,-2.95611 12.70341,-18.80677 23.75,-35.22371 L 364,74.802069 V 56.944844 L 364,39.087619 371.25,38.79381 378.5,38.5 378.7999,32.75 379.09981,27 H 383.5499 388 v 6 6 h 7.5 7.5 l 0.0246,18.25 0.0246,18.25 15.55034,23 c 8.55269,12.65 19.22914,28.45751 23.72544,35.1278 L 450.5,145.75559 450.77477,129.8778 451.04954,114 456.02477,114 461,114 V 248.5 383 h 3 c 2.88889,0 3,0.16667 3,4.5 V 392 H 242 17 Z M 75,382 c 0,-1.46667 0.666667,-2 2.5,-2 2.190476,0 2.5,-0.43333 2.5,-3.5 V 373 H 55.5 31 v 5.5 5.5 h 22 c 21.333333,0 22,-0.0606 22,-2 z m 80,-3.5 V 373 h -25 -25 v 3.5 c 0,3.06667 0.30952,3.5 2.5,3.5 1.83333,0 2.5,0.53333 2.5,2 0,1.94074 0.66667,2 22.5,2 H 155 Z m 65.36971,3.25 c 0.33164,-1.2375 0.60913,-12.50985 0.61664,-25.04966 0.0148,-24.69501 0.33749,-26.45011 5.62853,-30.61204 5.76575,-4.53534 15.28946,-2.04154 18.9051,4.95034 1.17841,2.27879 1.4828,7.50832 1.49367,25.6617 0.008,12.53981 0.285,23.81216 0.61664,25.04966 l 0.60297,2.25 H 272.11663 296 v -44 -44 h -62 -62 v 44 44 h 23.88337 23.88337 z m -37.56055,-27.47242 c 0.24324,-16.30592 0.6451,-21.43261 1.88484,-24.04516 4.53616,-9.55925 20.62168,-7.79164 23.15646,2.54463 0.50215,2.04762 0.98393,11.59795 1.07063,21.22295 0.0867,9.625 0.39525,18.2875 0.68566,19.25 0.48508,1.60767 -0.59575,1.75009 -13.28936,1.75112 L 182.5,375.00223 Z M 195,366 c 0,-3.14286 -0.43333,-5 -1.16667,-5 -0.64166,0 -0.84065,-0.32602 -0.44219,-0.72448 0.39847,-0.39846 3.62347,-0.59428 7.16667,-0.43516 L 207,360.12967 v -5.56483 c 0,-4.58899 -0.30688,-5.58518 -1.75,-5.68084 -1.66667,-0.11048 -1.66667,-0.13778 0,-0.57333 1.3955,-0.36468 1.75,-1.55662 1.75,-5.88399 V 337 h -5.53618 -5.53619 l 0.1773,7.02555 c 0.0975,3.86405 -0.1112,7.31405 -0.46381,7.66667 C 195.2885,352.04483 195,351.58333 195,350.66667 195,349.33333 194,349 190,349 h -5 v 5.5 c 0,4.52724 0.30952,5.52052 1.75,5.616 1.66667,0.11048 1.66667,0.13778 0,0.57333 -1.36798,0.35749 -1.75,1.53281 -1.75,5.38399 V 371 h 5 5 z m -5.1875,-5.68311 c 0.72187,-0.28887 1.58437,-0.25335 1.91667,0.0789 0.33229,0.33229 -0.25834,0.56864 -1.3125,0.52522 -1.16495,-0.048 -1.4019,-0.28494 -0.60417,-0.60416 z M 195.19495,355.5 c 0.0204,-1.65 0.2445,-2.20394 0.49804,-1.23097 0.25354,0.97297 0.23687,2.32297 -0.0371,3 -0.27393,0.67703 -0.48137,-0.11903 -0.46099,-1.76903 z M 207,366 v -5 h -5.5 -5.5 v 5 5 h 5.5 5.5 z M 195,342.5 V 337 h -5 -5 v 5.5 5.5 h 5 5 z m 0,-12 c 0,-3.025 -0.24735,-5.5 -0.54966,-5.5 -1.5779,0 -6.52842,3.27339 -7.88964,5.21679 C 183.56113,334.49929 184.45361,336 190,336 h 5 z m 12,4.90113 c 0,-0.32938 -0.70977,-2.09461 -1.57727,-3.92273 C 204.10963,328.71125 199.05475,325 196.59887,325 196.26949,325 196,327.475 196,330.5 v 5.5 h 5.5 c 3.025,0 5.5,-0.26949 5.5,-0.59887 z M 259.09657,355.75 c 0.0101,-11.30503 0.48302,-20.83508 1.14576,-23.09053 2.21252,-7.52973 11.33561,-10.99757 18.7904,-7.14254 5.30293,2.74225 5.82282,5.13276 6.15978,28.32333 L 285.5,375.00218 272.28965,375.00109 259.0793,375 Z M 272,366 v -5 h -5.5 -5.5 v 5 5 h 5.5 5.5 z m 11.67397,-3 c 0.0957,-4.125 -0.0372,-8.9625 -0.29531,-10.75 -0.45719,-3.16623 -0.597,-3.25 -5.42397,-3.25 H 273 v 5.5 5.5 l 3.75,0.1681 3.75,0.16811 -3.75,0.39226 -3.75,0.39226 v 4.99189 4.9919 l 5.25,-0.30226 L 283.5,370.5 Z M 272,354.5 V 349 h -5.5 -5.5 v 4.83333 c 0,2.65834 0.3,5.13334 0.66667,5.5 0.36666,0.36667 2.84166,0.66667 5.5,0.66667 H 272 Z m 0,-12 V 337 h -5.5 -5.5 v 5.5 5.5 h 5.5 5.5 z m 11,0 V 337 h -5 -5 v 5.5 5.5 h 5 5 z m -11,-12.06739 c 0,-5.31008 -0.10399,-5.5357 -2.25,-4.88172 -1.2375,0.37712 -3.08357,1.41888 -4.10238,2.31503 C 263.93998,329.36796 261,334.1657 261,335.45034 261,335.75265 263.475,336 266.5,336 h 5.5 z m 11,3.7899 c 0,-2.56502 -2.67357,-6.00235 -6.01104,-7.72822 C 275.39966,325.67243 273.85197,325 273.54966,325 273.24735,325 273,327.475 273,330.5 v 5.5 h 5 c 4.1247,0 5,-0.31117 5,-1.77749 z M 268.5,314.4577 c 0,-4.2564 0.15735,-4.5239 2.5,-4.25 3.32075,0.38826 4.1646,4.67499 1.07911,5.48186 C 270.9356,315.9886 270,316.85578 270,317.61663 270,318.37748 269.6625,319 269.25,319 c -0.4125,0 -0.75,-2.04403 -0.75,-4.5423 z M 272,313 c 0,-1.1 -0.45,-2 -1,-2 -0.55,0 -1,0.9 -1,2 0,1.1 0.45,2 1,2 0.55,0 1,-0.9 1,-2 z m -62.47226,2.67238 C 208.4499,312.06112 208.29216,310 209.09362,310 c 0.49851,0 0.90638,1.125 0.90638,2.5 0,1.375 0.45,2.5 1,2.5 0.55,0 1,-1.125 1,-2.5 0,-1.375 0.45,-2.5 1,-2.5 0.55,0 1,1.29752 1,2.88337 0,2.07089 -0.5808,3.03525 -2.06117,3.42238 -1.14235,0.29873 -2.21716,0.0164 -2.41109,-0.63337 z m -14.99232,-0.61507 c -0.84849,-1.37288 0.32167,-3.26367 1.54999,-2.50452 0.52097,0.32197 0.68832,1.00431 0.37188,1.51631 -0.31643,0.51199 0.35123,0.9309 1.48369,0.9309 2.51168,0 2.72177,-1.82651 0.30902,-2.68662 -2.92059,-1.04115 -4.15973,-2.38504 -3.58357,-3.88649 0.72479,-1.88877 4.96323,-1.83436 5.6952,0.0731 0.31658,0.825 0.13972,1.5 -0.39301,1.5 C 199.43588,310 199,309.55 199,309 c 0,-0.55 -0.675,-1 -1.5,-1 -2.46921,0 -1.69486,1.91299 1.05358,2.6028 3.56106,0.89377 3.03269,4.77149 -0.70914,5.20451 -1.46056,0.16902 -2.94962,-0.16848 -3.30902,-0.75 z m 7.95905,-0.0663 c -1.08051,-1.7483 0.56995,-5.12496 2.34097,-4.78937 1.74097,0.3299 3.0327,5.79832 1.36965,5.79832 -0.51026,0 -0.70146,-1.18373 -0.42489,-2.63051 0.37306,-1.95156 0.14369,-2.50384 -0.88867,-2.13977 -0.76534,0.26991 -1.28434,1.45364 -1.15332,2.63051 0.25619,2.30123 -0.241,2.75328 -1.24374,1.13082 z M 217.161,313.032 c -0.63926,-1.83377 -0.68233,-3.032 -0.10898,-3.032 0.52139,0 0.94798,0.9 0.94798,2 0,2.21329 1.547,2.70961 2.33772,0.75 0.31692,-0.78542 0.53373,-0.83093 0.58333,-0.12244 0.0434,0.62015 -0.54701,1.64705 -1.31207,2.28199 -1.11703,0.92705 -1.59921,0.55722 -2.44798,-1.87755 z m 5.47737,1.468 c -0.87293,-2.27482 0.34777,-4.5 2.46862,-4.5 1.04115,0 1.89301,0.43588 1.89301,0.96862 0,0.53273 -0.70876,0.69663 -1.57502,0.36422 -2.09065,-0.80226 -1.5389,2.88896 0.57502,3.84687 1.10822,0.50219 0.94028,0.69808 -0.64301,0.75 -1.17866,0.0387 -2.40203,-0.60471 -2.71862,-1.42971 z M 228.5,313.14507 c 0,-2.35963 0.43372,-2.86726 2.5,-2.92601 2.11326,-0.0601 2.5,0.38157 2.5,2.85493 0,1.60931 -0.3375,2.92601 -0.75,2.92601 -0.4125,0 -0.75,-1.15156 -0.75,-2.55902 0,-1.45136 -0.43284,-2.2915 -1,-1.94098 -0.55,0.33992 -1,1.49148 -1,2.55902 0,1.06754 -0.3375,1.94098 -0.75,1.94098 -0.4125,0 -0.75,-1.28472 -0.75,-2.85493 z M 236,313 c 0,-1.65 0.3375,-3 0.75,-3 0.4125,0 0.75,1.35 0.75,3 0,1.65 -0.3375,3 -0.75,3 -0.4125,0 -0.75,-1.35 -0.75,-3 z m 3.5,0 c 0,-2.56427 0.36311,-2.98315 2.5,-2.884 1.85873,0.0863 2.02574,0.2382 0.65108,0.59238 -1.33767,0.34464 -1.72165,1.14211 -1.38867,2.88399 C 241.52532,314.96768 241.24615,316 240.61133,316 240.0001,316 239.5,314.65 239.5,313 Z m 9.5,1 c 0,-1.1 0.49814,-2 1.10699,-2 0.60884,0 0.84797,0.675 0.53138,1.5 -0.39152,1.02029 0.054,1.5 1.39301,1.5 2.87449,0 2.40827,-2.67284 -0.59782,-3.42732 -3.5213,-0.88379 -2.89331,-4.02947 0.83736,-4.19449 2.53476,-0.11213 2.55397,-0.087 0.24145,0.31642 -3.4034,0.59366 -3.1613,1.88352 0.5996,3.19458 2.23953,0.7807 2.94041,1.53194 2.5,2.67961 C 255.27539,314.44593 255,315.35177 255,315.58179 255,315.8118 253.65,316 252,316 c -2.33333,0 -3,-0.44444 -3,-2 z m 7.5,-2.5 c 0,-2.475 0.3375,-4.5 0.75,-4.5 0.4125,0 0.75,0.675 0.75,1.5 0,0.825 0.7875,1.5 1.75,1.5 1.27778,0 1.75,0.80952 1.75,3 0,1.65 -0.45,2.8379 -1,2.63977 -0.55,-0.19813 -0.89281,-1.32313 -0.76179,-2.5 C 259.86923,311.9629 259.53173,311 258.98821,311 258.44469,311 258,312.125 258,313.5 c 0,1.375 -0.3375,2.5 -0.75,2.5 -0.4125,0 -0.75,-2.025 -0.75,-4.5 z m 6.5,1.5 c 0,-2.27682 0.45633,-3 1.89301,-3 2.12085,0 3.34155,2.22518 2.46862,4.5 -0.31659,0.825 -1.42746,1.5 -2.46862,1.5 C 263.45633,316 263,315.27682 263,313 Z m 3,0 c 0,-1.1 -0.45,-2 -1,-2 -0.55,0 -1,0.9 -1,2 0,1.1 0.45,2 1,2 0.55,0 1,-0.9 1,-2 z m 102,69.58333 c 0,-0.77916 0.5625,-1.60404 1.25,-1.83305 0.95498,-0.31812 1.29175,-7.07829 1.42687,-28.64276 0.12263,-19.56895 0.52972,-28.65152 1.32728,-29.61252 0.63272,-0.76239 3.55624,-1.92456 6.4967,-2.5826 4.65267,-1.04122 6.1022,-0.95098 11.17272,0.69557 L 395.5,322.5 396,351.41764 c 0.37837,21.8832 0.80407,29.01876 1.75,29.33333 0.6875,0.22863 1.25,1.0532 1.25,1.83236 0,1.18966 4.64706,1.41667 29,1.41667 h 29 V 349 314 H 383.5 310 v 35 35 h 29 c 24.35294,0 29,-0.22701 29,-1.41667 z m -54.60699,-5.16512 C 313.72686,376.54823 314,363.98313 314,349.49576 V 323.1551 l 3.25,-1.04863 c 1.7875,-0.57675 7.4125,-1.54489 12.5,-2.15141 9.52456,-1.13549 23.90642,-0.13739 31,2.15141 l 3.25,1.04863 v 26.34066 c 0,14.48737 0.27314,27.05247 0.60699,27.92245 C 365.15097,378.83581 362.49288,379 339,379 c -23.49288,0 -26.15097,-0.16419 -25.60699,-1.58179 z M 362,354.47832 V 334 h -22 c -12.1,0 -22.3375,-0.1125 -22.75,-0.25 -0.4125,-0.1375 -0.8716,9.07889 -1.02023,20.48087 l -0.27023,20.73087 23.02023,-0.003 L 362,374.95663 Z M 339.27236,369 c 0,-2.475 0.19502,-3.4875 0.43337,-2.25 0.23836,1.2375 0.23836,3.2625 0,4.5 -0.23835,1.2375 -0.43337,0.225 -0.43337,-2.25 z M 362,328.0709 v -3.9291 l -5.75,-1.29173 c -3.1625,-0.71045 -10.925,-1.29173 -17.25,-1.29173 -6.325,0 -14.0875,0.58128 -17.25,1.29173 L 316,324.1418 V 328.0709 332 h 23 23 z m 40.79649,23.1834 c 0.16306,-15.261 0.64358,-28.09437 1.0678,-28.51859 0.42423,-0.42423 5.87032,-1.50736 12.10243,-2.40696 10.46245,-1.51025 12.21396,-1.51155 22.84746,-0.0169 6.334,0.8903 11.87107,1.97343 12.3046,2.40696 0.43354,0.43354 0.92167,13.27452 1.08473,28.53552 L 452.5,379.00158 h -25 -25 z M 427,354.5 V 334 h -11 -11 l -0.11111,5.5 c -0.0611,3.025 -0.11111,6.4 -0.11111,7.5 0,1.1 0.05,7.85 0.11111,15 L 405,375 h 11 11 z m 24,0 V 334 H 439.5 428 v 20.5 20.5 h 11.5 11.5 z m -0.18963,-26.75 c 0.1707,-2.0625 0.1707,-3.75062 0,-3.75137 C 450.63966,323.99788 446.675,323.3235 442,322.5 c -9.90808,-1.7453 -16.95953,-1.87637 -26,-0.48327 -11.37381,1.75265 -11,1.54804 -11,6.0211 v 3.99972 L 427.75,331.76877 450.5,331.5 Z M 104,369 v -9 H 93.059017 c -6.314326,0 -11.205931,0.42869 -11.567523,1.01376 -0.344597,0.55757 -0.313048,4.60757 0.07011,9 L 82.258251,378 H 93.129125 104 Z m 279.07895,4.75 c 0.0632,-1 0.17982,-1 0.58333,0 0.30752,0.76212 2.42339,1.25 5.42105,1.25 H 394 l 0.11645,-6.25 c 0.18629,-9.99857 0.19115,-13.62853 0.0328,-24.5 L 394,334 h -5 -5 l -0.2271,19.25 -0.22709,19.25 -0.2945,-19.25 -0.2945,-19.25 H 377.47841 372 v 20.5 20.5 h 5.5 c 3.69123,0 5.52596,-0.41108 5.57895,-1.25 z M 245,366.45501 V 361 h -11 -11 v 5.46502 5.46503 l 11,-0.01 11,-0.01 z m -10.92105,-3.03834 c 0.048,-1.16495 0.28494,-1.4019 0.60416,-0.60417 0.28887,0.72187 0.25335,1.58438 -0.0789,1.91667 -0.3323,0.33229 -0.56864,-0.25834 -0.52522,-1.3125 z M 80,351.90113 c 0,-21.0819 0.653527,-24.08382 5.92045,-27.19507 C 87.545995,323.74583 90.875335,323 93.536215,323 c 4.125546,0 5.15657,0.45481 8.095705,3.5712 L 105,330.1424 V 350.5712 371 h 25 25 V 310 249 H 151.5 148 V 274.5 300 H 131.5 115 V 274.5 249 h -3 -3 V 274.5 300 H 92.5 76 l 0.215033,-12.25 0.215032,-12.25 0.316703,11.75 0.316703,11.75 H 92.531735 108 V 273.5 248 h 4 4 V 273.5 299 H 131.5 147 V 273.5 248 h 4 4 v -4 -4 h -4 c -3.33333,0 -4,-0.33333 -4,-2 0,-1.91398 -0.66667,-2 -15.5,-2 -14.83333,0 -15.5,0.086 -15.5,2 0,1.66667 -0.66667,2 -4,2 -3.33333,0 -4,-0.33333 -4,-2 0,-1.91398 -0.66667,-2 -15.5,-2 -14.833333,0 -15.5,0.086 -15.5,2 0,1.66667 -0.666667,2 -4,2 -3.365155,0 -4,-0.32518 -4,-2.0489 0,-1.98994 -0.44609,-2.0403 -15.501439,-1.75 -8.525792,0.1644 -15.500792,-0.0386 -15.5,-0.4511 C 37.999352,235.3375 45.2,235 54,235 c 15.333333,0 16,0.0833 16,2 0,1.55556 0.666667,2 3,2 2.333333,0 3,-0.44444 3,-2 0,-1.91919 0.666667,-2 16.5,-2 15.83333,0 16.5,0.0808 16.5,2 0,1.55556 0.66667,2 3,2 2.33333,0 3,-0.44444 3,-2 0,-1.91919 0.66667,-2 16.5,-2 15.83333,0 16.5,0.0808 16.5,2 0,1.61905 0.66667,2 3.5,2 H 155 V 208.5 178 H 151.5 148 V 195.5 213 H 131.5 115 V 195.5 178 h -3 -3 l -0.079,22.75 c -0.0434,12.5125 -0.30592,22.1875 -0.58333,21.5 -0.37301,-0.92442 -4.5352,-1.25 -15.98007,-1.25 -10.062479,0 -15.259503,0.34979 -14.85765,1 0.339919,0.55 0.141476,1 -0.440983,1 C 76.345039,223 76,215.66925 76,200.5 V 178 H 73 70 V 195.5 213 L 53.75,212.77729 37.5,212.55459 53.25,212.2519 69,211.94921 V 194.47461 177 h 4 4 l 0.01365,9.75 C 77.027918,196.93481 77.627848,201 79.116631,201 79.602484,201 80,194.52959 80,186.62132 v -14.37868 l 3.25,-1.35146 c 4.222445,-1.75584 14.359978,-1.76672 18.5,-0.0199 l 3.25,1.37132 0,14.37868 C 105,198.22446 105.2681,201 106.38889,201 c 0.76389,0 1.368,-0.5625 1.34246,-1.25 -0.0255,-0.6875 0.0245,-6.0875 0.11112,-12 L 108,177 h 4 4 v 17.5 17.5 h 15.5 15.5 v -17.43963 -17.43964 l 3.75,-0.31036 c 3.54636,-0.29352 3.76685,-0.51401 4.06037,-4.06037 l 0.31036,-3.75 -4.06036,0 C 148.14925,169 147,168.58271 147,167.52568 c 0,-3.06949 -6.01885,-5.01807 -15.5,-5.01807 -9.48115,0 -15.5,1.94858 -15.5,5.01807 0,1.05337 -1.14208,1.47432 -4,1.47432 -3.25692,0 -4,-0.3514 -4,-1.89159 0,-1.21951 -0.97708,-2.15157 -2.75,-2.6233 -1.5125,-0.40243 -2.21245,-0.9304 -1.55544,-1.17326 1.74449,-0.64484 5.30544,1.51863 5.30544,3.22333 0,0.96091 1.03203,1.46482 3,1.46482 1.84979,0 3,-0.51687 3,-1.34813 0,-0.74146 1.89792,-2.20396 4.2176,-3.25 8.38779,-3.78236 28.7824,-1.47948 28.7824,3.25 0,0.87405 1.2308,1.34813 3.5,1.34813 h 3.5 v -32 -32 h -9.5 c -8.83333,0 -9.5,-0.14035 -9.5,-2 0,-1.96899 -0.66667,-2 -43,-2 -42.333333,0 -43,0.031 -43,2 0,1.85897 -0.666667,2 -9.45431,2 h -9.45431 l -0.29569,6.75 c -0.16263,3.7125 -0.168185,18.15998 -0.01234,32.10551 l 0.283346,25.35552 3.466654,-0.40472 C 36.440005,167.58372 38,167.76124 38,168.2008 38,168.64036 36.425,169 34.5,169 c -3.416667,0 -3.5,0.0952 -3.5,4 0,3.92567 0.06968,4.00312 3.75,4.1681 l 3.75,0.16811 -3.75,0.39226 -3.75,0.39226 0,30.43964 V 239 l 3.75,0.1681 3.75,0.16811 -3.75,0.39226 c -3.632378,0.37996 -3.75,0.51583 -3.75,4.3319 0,3.85591 0.07969,3.9432 3.75,4.10773 l 3.75,0.16811 -3.715661,0.39021 -3.715661,0.39022 -0.284339,10.19168 c -0.156386,5.60542 -0.163776,33.02918 -0.01642,60.94168 L 31.035835,371 H 55.517917 80 Z m -39.215059,-4.14971 c 0.156718,-7.83828 0.777586,-15.49803 1.379708,-17.02167 C 44.097422,325.83897 48.509198,323 54.176725,323 c 4.352714,0 5.465167,0.44189 8.333551,3.31028 3.846356,3.84635 4.343307,6.36129 4.730741,23.94103 L 67.5,362.00262 54,362.00273 40.5,362.00284 Z M 65,353.03498 v -4.96503 l -11,0.01 -11,0.01 V 353.04499 358 H 54 65 Z M 53.252183,353.5 c 0.0111,-2.2 0.215885,-2.98225 0.455078,-1.73834 0.239193,1.24391 0.230112,3.04391 -0.02018,4 C 53.436788,356.71775 53.241084,355.7 53.252183,353.5 Z M 65,341.46502 V 336 H 54 43 v 5.45501 5.45502 l 11,0.01 11,0.01 z M 53.272364,341 c 0,-2.475 0.195016,-3.4875 0.433369,-2.25 0.238353,1.2375 0.238353,3.2625 0,4.5 -0.238353,1.2375 -0.433369,0.225 -0.433369,-2.25 z m 0.947489,-7.75 c 0.841406,-0.9625 2.243133,-3.1 3.11495,-4.75 0.871817,-1.65 1.601457,-2.55 1.621421,-2 0.01996,0.55 -0.862018,2.47338 -1.959962,4.27417 C 55.898318,332.57496 55,334.26246 55,334.52417 55,334.78588 57.25,335 60,335 c 5.449551,0 5.808419,-0.53601 3.433582,-5.12844 -1.894828,-3.66419 -7.460021,-6.2443 -11.537173,-5.34881 C 50.303384,324.87264 49,325.33728 49,325.55529 c 0,0.218 0.898318,1.86975 1.996262,3.67054 1.097944,1.80079 1.993687,3.72417 1.990539,4.27417 -0.0031,0.55 -1.151971,-0.9125 -2.552941,-3.25 -1.400971,-2.3375 -2.753328,-4.25 -3.005238,-4.25 -0.761581,0 -4.420874,6.4091 -4.424884,7.75 -0.0061,2.03815 9.362388,1.62051 11.216115,-0.5 z m 64.605197,13.5566 c 0.35801,-16.73707 1.18116,-19.72421 6.14222,-22.28967 6.14645,-3.17846 14.65719,-1.0776 17.44075,4.3052 1.0186,1.96976 1.5373,7.24921 1.76693,17.98447 L 144.5,362.00279 h -13 -13 z M 131,353 v -5 h -5.5 -5.5 v 5 5 h 5.5 5.5 z m 12,0 v -5 h -5.5 -5.5 v 5 5 h 5.5 5.5 z M 131,341.5 V 336 h -5.5 -5.5 v 4.83333 c 0,2.65834 0.3,5.13334 0.66667,5.5 0.36666,0.36667 2.84166,0.66667 5.5,0.66667 H 131 Z m 11.80226,-0.25 0.30226,-5.25 H 137.55226 132 v 5.55226 5.55226 l 5.25,-0.30226 5.25,-0.30226 z m -12.80738,-7 c -0.003,-0.4125 -1.05643,-2.48673 -2.34136,-4.60941 l -2.33624,-3.8594 -2.15864,2.74426 C 121.97139,330.0348 121,332.10903 121,333.13486 c 0,1.54387 0.77512,1.86514 4.5,1.86514 2.475,0 4.49769,-0.3375 4.49488,-0.75 z M 142,333.13486 c 0,-2.01365 -3.902,-7.5662 -4.73305,-6.73514 -0.27778,0.27777 -1.15862,-0.14853 -1.95743,-0.94734 -1.63725,-1.63725 -5.08754,-1.87854 -7.25483,-0.50734 -1.23535,0.78158 -1.16272,1.44511 0.5,4.56749 2.61218,4.90538 3.10003,5.05585 4.9284,1.52017 0.86255,-1.66799 1.79327,-3.0327 2.06827,-3.0327 0.275,0 -0.18656,1.32765 -1.02568,2.95034 -0.83912,1.62269 -1.52568,3.19769 -1.52568,3.5 0,0.30231 2.025,0.54966 4.5,0.54966 3.72488,0 4.5,-0.32127 4.5,-1.86514 z M 38.141003,321.65009 c -1.993248,-2.12171 -2.053434,-2.47788 -0.619789,-3.6677 1.34129,-1.11317 1.911489,-0.99413 3.672257,0.76664 1.21375,1.21375 1.830639,2.74576 1.476859,3.66769 -0.83479,2.17543 -1.941363,1.98813 -4.529327,-0.76663 z m 26.993929,1.01249 c -0.84822,-1.02204 -0.530292,-1.88198 1.34824,-3.64677 2.063964,-1.93899 2.708804,-2.10137 4.020824,-1.01249 1.399348,1.16135 1.331953,1.5424 -0.644999,3.64677 -2.547318,2.7115 -3.198235,2.85101 -4.724065,1.01249 z m 11.947093,-0.7734 c -2.259829,-1.85218 -2.308623,-2.09115 -0.746032,-3.65374 1.562591,-1.5626 1.816767,-1.52712 3.886229,0.54234 1.943621,1.94362 2.034813,2.39024 0.746032,3.65374 -1.27933,1.25424 -1.779381,1.18445 -3.886229,-0.54234 z m 27.117995,0.84981 c -0.72683,-0.8772 -0.4941,-1.896 0.79698,-3.48899 2.09514,-2.58505 3.29579,-2.80706 4.87702,-0.90179 0.84901,1.02299 0.69763,1.70996 -0.62755,2.84789 -2.92888,2.51502 -3.97576,2.83509 -5.04645,1.54289 z m 11.94209,-0.82336 c -1.38554,-1.1229 -2.12015,-2.53048 -1.78138,-3.41329 0.86037,-2.24209 3.20343,-1.81646 4.98722,0.90595 2.25895,3.44759 0.0684,5.1609 -3.20584,2.50734 z m 26.93161,0.6732 c -0.89726,-1.08113 -0.64193,-1.97929 1.15735,-4.07107 2.28759,-2.65948 2.32485,-2.66594 4.09554,-0.70936 1.73106,1.91281 1.69487,2.04011 -1.15735,4.07108 -2.47427,1.76183 -3.12808,1.87507 -4.09554,0.70935 z m -98.565834,-5.57358 c -1.907583,-3.68886 -1.909076,-3.67707 0.547002,-4.31935 1.532753,-0.40083 2.295035,0.0943 3,1.94847 1.277495,3.36006 1.198069,4.04458 -0.547002,4.71423 -0.97012,0.37227 -2.019626,-0.44752 -3,-2.34335 z m 15.528366,2.02832 c -2.235446,-1.4139 -0.109035,-6.66174 2.511616,-6.1985 2.752485,0.48654 2.783659,0.61315 1.000188,4.062 -1.81393,3.50775 -1.574285,3.36196 -3.511804,2.1365 z m 23.124263,-1.59062 c -1.582589,-3.47341 -1.472966,-4.13798 0.779742,-4.72708 1.478298,-0.38658 2.195425,0.22459 3.011977,2.56695 0.815901,2.3405 0.770487,3.26557 -0.190257,3.87545 -1.935821,1.22886 -2.34985,1.03167 -3.601462,-1.71532 z m 15.69911,1.79985 c -1.391994,-0.30313 -1.480152,-0.87928 -0.582219,-3.80501 1.13703,-3.70478 1.441732,-3.91108 3.682914,-2.49348 1.28042,0.8099 1.28042,1.27675 0,3.7897 -0.90151,1.7693 -2.088032,2.72932 -3.100695,2.50879 z m 23.102115,-2.34516 c -1.06944,-2.58186 -1.04819,-3.23967 0.12868,-3.98469 2.20536,-1.39609 2.6382,-1.1402 3.82373,2.26063 0.85595,2.45537 0.82114,3.36683 -0.15217,3.98469 -2.00891,1.27526 -2.44245,1.01736 -3.80024,-2.26063 z m 15.27628,2.26063 c -0.97331,-0.61786 -1.00812,-1.52932 -0.15217,-3.98469 1.18553,-3.40083 1.61837,-3.65672 3.82373,-2.26063 1.17687,0.74502 1.19812,1.40283 0.12868,3.98469 -1.35779,3.27799 -1.79133,3.53589 -3.80024,2.26063 z M 52,314.5 c 0,-2.83333 0.380952,-3.5 2,-3.5 1.619048,0 2,0.66667 2,3.5 0,2.83333 -0.380952,3.5 -2,3.5 -1.619048,0 -2,-0.66667 -2,-3.5 z m 38.630286,1.25 C 89.588168,311.86135 89.927216,311 92.5,311 c 2.190476,0 2.5,0.43333 2.5,3.5 0,2.76109 -0.397614,3.5 -1.883369,3.5 -1.107796,0 -2.131674,-0.92655 -2.486345,-2.25 z m 39.000004,0 C 128.58817,311.86135 128.92722,311 131.5,311 c 1.7978,0 2.5,0.53879 2.5,1.91821 0,4.94008 -3.24172,7.04087 -4.36971,2.83179 z M 53.25,299.2519 69,298.94921 V 273.47461 248 h 4 4 L 76.781629,261.75 76.563258,275.5 76.252604,262.25 75.94195,249 H 72.970975 70 v 25.5 25.5 l -16.25,-0.22271 -16.25,-0.2227 z m -12.468547,-4.0465 c -0.154799,-0.38797 -0.15389,-12.0679 0.002,-25.9554 L 41.066945,244 H 54.033473 67 v 25 c 0,13.75 0.1125,25.3375 0.25,25.75 0.317359,0.95208 -26.089097,1.40641 -26.468547,0.4554 z M 63.25,291.31234 c 1.369716,-0.34995 1.75,-1.519 1.75,-5.37973 V 281 H 54 43 v 4.83333 c 0,2.65834 0.300246,5.13358 0.667213,5.50055 0.724642,0.72464 16.731163,0.70704 19.582787,-0.0215 z M 53.184982,274.75 l 0.184983,-5.25 0.367277,5.25 0.367277,5.25 H 59.55226 65 V 274.5 269 H 54 43 v 5.5 5.5 h 5 5 z m -0.0047,-11.5 0.180248,-4.75 0.374543,4.75 0.374543,4.75 H 59.554791 65 V 262.5 257 H 54 43 v 5.5 5.5 h 5 5 z M 64.80226,250.75 64.5,245.5 53.75,245.21617 43,244.93234 V 250.46617 256 h 11.05226 11.052259 z m 14.632351,42.75 c 0.295944,-1.1 0.544224,-12.6875 0.551734,-25.75 L 80,244 H 92.5 105 v 24.3 c 0,17.56667 0.33251,24.63251 1.2,25.5 0.66,0.66 0.9975,1.21737 0.75,1.23859 -0.2475,0.0212 -6.66078,0.13373 -14.251734,0.25 -13.364134,0.20471 -13.784674,0.148 -13.263655,-1.78859 z M 92,286.5 V 281 h -5 -5 v 5.5 5.5 h 5 5 z m 11.80226,-0.25 0.30226,-5.25 H 98.55226 93 v 4.83333 c 0,2.65834 0.320746,5.15408 0.712768,5.5461 0.392023,0.39203 2.754523,0.57953 5.25,0.41667 L 103.5,291.5 Z M 92,274.5 V 269 h -4.833333 c -2.658334,0 -5.020834,0.18728 -5.25,0.41618 -0.229167,0.22889 -0.260736,2.70389 -0.07015,5.5 L 82.193027,280 H 87.096513 92 Z m 12,0 V 269 H 98.5 93 v 5.5 5.5 h 5.5 5.5 z m -12,-12 V 257 h -4.869948 -4.869947 l -0.535265,4.74886 c -0.294396,2.61187 -0.326362,5.08687 -0.07104,5.5 C 81.909131,267.66199 84.341476,268 87.059017,268 H 92 Z m 12,0 V 257 H 98.5 93 v 5.5 5.5 h 5.5 5.5 z m 0,-12 V 245 H 93 82 v 5.5 5.5 h 11 11 z m 14.42486,43.03912 c 0.30131,-1.12151 0.55398,-12.72662 0.56149,-25.78912 L 119,244 h 12.5 12.5 l 0.0137,23.75 c 0.008,13.0625 0.28831,24.77518 0.624,26.02818 l 0.61035,2.27818 -13.68549,-0.23906 c -13.23083,-0.23111 -13.66728,-0.3068 -13.13765,-2.27818 z M 130.99891,286.25 131,281 h -5.5 -5.5 v 4.83333 c 0,2.65834 0.25441,5.08775 0.56536,5.39869 0.31095,0.31095 2.78546,0.49845 5.49891,0.41667 L 130.99782,291.5 Z m 11.80335,-0.0687 L 143.10452,281 H 137.55226 132 v 5.25312 5.25311 l 5.25,-0.0719 5.25,-0.0719 z M 131,274.5 V 269 h -5.5 -5.5 v 5.5 5.5 h 5.5 5.5 z m 12,0 V 269 h -5.5 -5.5 v 5.5 5.5 h 5.5 5.5 z m -12,-12 V 257 h -5.5 -5.5 v 4.83333 c 0,2.65834 0.3,5.13334 0.66667,5.5 0.36666,0.36667 2.84166,0.66667 5.5,0.66667 H 131 Z m 12,0 V 257 h -5.5 -5.5 v 5.5 5.5 h 5.5 5.5 z M 142.80226,250.75 142.5,245.5 h -11 -11 l -0.30226,5.25 -0.30226,5.25 H 131.5 143.10452 Z M 40.393011,207.41821 C 40.726855,206.54823 41,198.27782 41,189.03953 v -16.79689 l 3.25,-1.37132 c 4.160115,-1.75534 15.289185,-1.74826 19.5,0.0124 l 3.25,1.35892 v 16.79689 c 0,9.23829 0.273145,17.5087 0.606989,18.37868 C 68.142939,208.81488 66.550446,209 54,209 41.449554,209 39.857061,208.81488 40.393011,207.41821 Z m 12.787237,-7.16821 0.180248,-4.75 0.374543,4.75 0.374543,4.75 H 59.554791 65 v -5.46502 -5.46503 l -11,0.01 -11,0.01 V 199.54499 205 h 5 5 z M 65,187.5 V 182 H 59.5 54 l -0.184982,5.25 -0.184983,5.25 -0.367277,-5.25 L 52.895481,182 H 47.94774 43 v 5.5 5.5 h 11 11 z m 0,-9.87756 c 0,-1.85765 -0.64392,-3.91196 -1.430933,-4.56512 C 61.419812,171.2736 52.066816,170.6266 47.25,171.92844 43.158529,173.03424 43,173.22485 43,177.03854 V 181 h 11 11 z m 53.39301,29.79577 C 118.72686,206.54823 119,198.27782 119,189.03953 v -16.79689 l 3.25,-1.37132 c 4.18077,-1.76405 14.31923,-1.76405 18.5,0 l 3.25,1.37132 0.0137,16.12868 c 0.008,8.87077 0.285,17.14118 0.61664,18.37868 l 0.60297,2.25 h -13.72362 c -12.1033,0 -13.65195,-0.18676 -13.11663,-1.58179 z M 131,199.44774 v -5.55226 l -5.25,0.30226 -5.25,0.30226 -0.30226,5.25 -0.30226,5.25 H 125.44774 131 Z M 142.80226,199.75 142.5,194.5 137.25,194.19774 132,193.89548 V 199.44774 205 h 5.55226 5.55226 z M 131,187.44774 v -5.55226 l -5.25,0.30226 -5.25,0.30226 -0.30226,5.25 -0.30226,5.25 H 125.44774 131 Z M 142.80226,187.75 142.5,182.5 137.25,182.19774 132,181.89548 V 187.44774 193 h 5.55226 5.55226 z M 143,177.44897 c 0,-3.10683 -0.43379,-3.73227 -3.46788,-5 C 137.62478,171.65204 134.01033,171 131.5,171 c -2.51033,0 -6.12478,0.65204 -8.03212,1.44897 -3.03409,1.26773 -3.46788,1.89317 -3.46788,5 V 181 H 131.5 143 Z M 69,167.02793 c 0,-2.99 -9.331536,-5.41152 -18.425038,-4.78127 -3.992817,0.27673 -6.203679,0.14261 -5.074962,-0.30787 6.394163,-2.55197 23.244034,0.36639 24.246396,4.19943 C 70.33801,168.40055 76,168.82498 76,166.60699 c 0,-0.76616 0.711804,-1.66616 1.581787,-2 2.439984,-0.93631 3.117175,-0.66206 1.168213,0.47311 C 77.7875,165.6407 77,166.75202 77,167.54969 77,168.57505 75.827979,169 73,169 c -3.314446,0 -4,-0.33799 -4,-1.97207 z M 39.44113,164.55517 C 40.508751,163.69982 41.821251,163 42.357796,163 c 1.270543,0 0.703236,0.4619 -2.357796,1.91971 -2.357268,1.12265 -2.389176,1.10183 -0.55887,-0.36454 z M 96,162 l -3.5,-0.73672 3.690983,-0.13164 C 98.221024,161.05924 100.16008,161.45 100.5,162 c 0.67043,1.08478 0.65357,1.08478 -4.5,0 z m -8.25,-0.66228 c 0.6875,-0.27741 1.8125,-0.27741 2.5,0 0.6875,0.27741 0.125,0.50439 -1.25,0.50439 -1.375,0 -1.9375,-0.22698 -1.25,-0.50439 z M 67.364439,148.49267 C 67.713998,147.58174 68,138.54823 68,128.41821 V 110 l 24.75,0.001 24.75,0.001 v 19.99939 19.99939 l -10.05,-6.9e-4 c -5.99168,-4.1e-4 -10.495426,-0.44612 -11.153052,-1.10374 -0.704601,-0.7046 -3.034504,-0.86635 -6.45,-0.44777 -2.940821,0.3604 -9.34545,0.89028 -14.232509,1.17751 -7.983036,0.46918 -8.821006,0.354 -8.25,-1.13402 z M 80,140.5 V 135 h -5 -5 v 5.5 5.5 h 5 5 z m 12,0 V 135 H 86.5 81 v 5.5 5.5 h 5.5 5.5 z m 12,0 V 135 H 98.5 93 v 5.5 5.5 h 5.5 5.5 z m 11.80226,0.25 L 115.5,135.5 110.25,135.19774 105,134.89548 V 140.44774 146 h 5.55226 5.55226 z M 80,123 v -11 h -5 -5 v 11 11 h 5 5 z m 12,0 v -11 h -5.455014 -5.455014 l -0.01001,11 -0.01001,11 H 86.534977 92 Z m 12,0 v -11 h -5.455014 -5.455014 l -0.01001,11 -0.01001,11 H 98.534977 104 Z m 11.92004,0 -0.01,-11 H 110.45501 105 v 11 11 h 5.46502 5.46503 z m -75.550326,12.75 c 0.331637,-1.2375 0.609121,-7.5375 0.616631,-14 L 41,110 h 9 9 l 0.01365,11.75 c 0.0075,6.4625 0.284994,12.7625 0.616631,14 C 60.22684,137.97603 60.124266,138 50,138 c -10.124266,0 -10.22684,-0.024 -9.630286,-2.25 z M 49,128.5 c 0,-5.44444 -0.0303,-5.5 -3,-5.5 -2.969697,0 -3,0.0556 -3,5.5 0,5.44444 0.0303,5.5 3,5.5 2.969697,0 3,-0.0556 3,-5.5 z m 8,0 V 123 H 53.5 50 v 4.83333 C 50,133.45969 50.365073,134 54.166667,134 56.934343,134 57,133.87255 57,128.5 Z m -7.819752,-11.25 0.180248,-4.75 0.374543,4.75 c 0.368633,4.67504 0.428913,4.75 3.819752,4.75 H 57 v -4.93358 c 0,-4.63871 -0.164361,-4.95249 -2.75,-5.25 -1.5125,-0.17403 -4.6625,-0.15861 -7,0.0343 l -4.25,0.3507 v 4.8993 C 43,121.8777 43.074888,122 46,122 c 2.886983,0 3.00679,-0.17894 3.180248,-4.75 z m 76.362462,19.8191 c -0.31644,-0.512 -0.11799,-1.21356 0.44098,-1.55902 0.6003,-0.371 1.01631,-5.72068 1.01631,-13.0691 V 110 h 8.5 8.5 l 0.0137,11.75 c 0.008,6.4625 0.285,12.7625 0.61664,14 0.59452,2.21845 0.46895,2.25 -8.95464,2.25 -5.25669,0 -9.81651,-0.41891 -10.13294,-0.9309 z M 135,128.5 V 123 h -3.5 -3.5 v 4.83333 C 128,133.45969 128.36507,134 132.16667,134 134.93434,134 135,133.87255 135,128.5 Z m 7.80226,-0.25 0.30226,-5.25 H 139.55226 136 v 5.56336 5.56336 l 3.25,-0.31336 c 3.16933,-0.30558 3.2575,-0.44367 3.55226,-5.56336 z M 135,117 v -5 h -3.5 -3.5 v 5 5 h 3.5 3.5 z m 7.80226,-0.20578 c -0.29257,-5.03891 -0.39842,-5.2072 -3.30226,-5.25 -2.92053,-0.043 -3.00801,0.0949 -3.30226,5.20578 l -0.30226,5.25 h 3.60452 3.60452 z m 154.92247,242.97369 c -0.22256,-1.79735 -0.40925,-0.56791 -0.41486,2.73209 -0.006,3.3 0.17648,4.77056 0.40466,3.26791 0.22817,-1.50265 0.23276,-4.20265 0.0102,-6 z M 245,354.44 V 349 l -4.75,-0.18025 -4.75,-0.18025 4.75,-0.37454 4.75,-0.37454 V 342.44521 337 h -11 -11 v 5.58882 5.58882 l 6.00182,-0.33882 c 3.301,-0.18635 6.001,-0.001 6,0.41118 C 235.00082,348.6625 232.3,349 229,349 h -6 v 5.44 5.44 h 11 11 z m -10.92105,-10.02333 c 0.048,-1.16495 0.28494,-1.4019 0.60416,-0.60417 0.28887,0.72187 0.25335,1.58438 -0.0789,1.91667 -0.3323,0.33229 -0.56864,-0.25834 -0.52522,-1.3125 z M 91.995517,357.00725 c 0.525597,-0.85043 0.88079,-0.77197 1.286034,0.28408 0.393942,1.02659 1.991179,1.42165 5.389164,1.33295 L 103.5,358.49822 103.80226,353.24911 104.10452,348 H 98.55226 93 l -0.168103,3.75 -0.168103,3.75 -0.392262,-3.75 -0.392263,-3.75 h -4.808792 c -4.779967,0 -4.812508,0.0225 -5.428629,3.75 -1.143897,6.92056 -1.146786,6.91627 4.492833,6.66289 2.824074,-0.12688 5.461451,-0.75942 5.860836,-1.40564 z M 92,341.5 V 336 h -5 -5 v 5.5 5.5 h 5 5 z m 12,0 V 336 H 98.5 93 v 5.5 5.5 h 5.5 5.5 z m 141,-6.59465 c 0,-0.55257 -0.70412,-2.36629 -1.56471,-4.03049 -2.57135,-4.97244 -9.94475,-6.81331 -15.46232,-3.86039 -1.91032,1.02237 -4.97297,5.88821 -4.97297,7.90089 0,0.62536 4.22064,1.01084 11,1.00468 6.69414,-0.006 11,-0.40328 11,-1.01469 z M 95.022024,330.30422 c 3.286222,-5.18183 4.162433,-4.75917 0.974238,0.46995 C 94.898318,332.57496 94,334.26246 94,334.52417 94,334.78588 96.280324,335 99.067388,335 c 4.786582,0 5.030322,-0.12468 4.398532,-2.25 -0.36788,-1.2375 -1.97163,-3.58977 -3.563895,-5.22727 -2.246324,-2.31014 -3.77854,-2.97728 -6.837922,-2.97728 -2.16859,0 -4.250949,0.30806 -4.627465,0.68458 -0.376516,0.37652 0.289497,2.3355 1.480029,4.3533 1.190532,2.0178 1.95271,3.88063 1.693729,4.13961 -0.25898,0.25898 -1.458538,-1.46511 -2.665685,-3.83131 l -2.194811,-4.30219 -2.37495,2.76104 C 83.068727,329.86906 82,331.98643 82,333.05576 82,334.72332 82.71468,335 87.022024,335 c 4.893594,0 5.098181,-0.12009 8,-4.69578 z m 299.146736,-2.2766 c 0.34553,-3.62329 0.1131,-4.08465 -2.64497,-5.25 -3.63848,-1.53734 -12.96389,-1.51073 -16.77379,0.0479 -2.35814,0.9647 -2.75,1.69852 -2.75,5.14976 V 332 h 10.89496 10.89497 z M 321,238 l 0.5,-73.5 5,-1.70623 c 2.77686,-0.94759 8.14285,-1.72569 12.0685,-1.75 6.74608,-0.0418 16.78674,2.10396 17.84307,3.81315 0.27362,0.44273 -1.84454,-0.004 -4.70704,-0.99333 -6.62629,-2.28955 -17.85661,-2.38623 -24.5897,-0.21168 L 322,165.30381 v 11.3481 C 322,187.33333 322.11749,188 324,188 c 1.85022,0 2,-0.66667 2,-8.90217 v -8.90218 l 3.14922,-1.09782 c 1.73208,-0.60381 3.64458,-1.06359 4.25,-1.02175 0.60543,0.0418 -0.47422,0.64176 -2.39922,1.33315 -3.02293,1.08572 -3.54211,1.75367 -3.80896,4.90036 l -0.30896,3.6433 4.18469,-1.47645 c 5.14436,-1.81503 11.2047,-1.82685 16.23769,-0.0317 l 3.80445,1.35699 -0.30445,-3.56774 c -0.26125,-3.06133 -0.80124,-3.74615 -3.80446,-4.8248 -1.925,-0.69139 -2.73367,-1.29131 -1.79705,-1.33315 0.93662,-0.0418 2.84912,0.44615 4.25,1.08444 2.45342,1.11785 2.54705,1.48974 2.54705,10.11657 v 8.95606 l 2.5,-0.4779 c 2.09577,-0.40063 2.5,-0.0961 2.5,1.88342 0,1.85209 -0.53915,2.36133 -2.5,2.36133 -2.36364,0 -2.5,0.3 -2.5,5.5 0,5.2 0.13636,5.5 2.5,5.5 2,0 2.5,0.5 2.5,2.5 0,1.99873 -0.50032,2.5 -2.49526,2.5 -2.37326,0 -2.48906,0.26891 -2.36847,5.5 0.11718,5.08286 0.30643,5.5 2.49526,5.5 1.8597,0 2.36847,0.53702 2.36847,2.5 0,1.99932 -0.50017,2.5 -2.49747,2.5 -2.40059,0 -2.48465,0.21333 -2.1672,5.5 l 0.33027,5.5 h -13.66507 -13.66508 l 0.45611,-5.5 c 0.42155,-5.0834 0.29523,-5.5 -1.66773,-5.5 -2.09925,0 -2.12383,0.24881 -2.12383,21.5 0,20.83333 0.062,21.5 2,21.5 1.81927,0 2,-0.66667 2,-7.37756 0,-8.69499 0.46402,-9.2722 8.68268,-10.80062 4.85856,-0.90355 6.86393,-0.80483 11.5959,0.57079 L 352,251.05587 v 7.97206 c 0,7.83687 0.0424,7.97207 2.5,7.97207 2,0 2.5,0.5 2.5,2.5 0,2 -0.5,2.5 -2.5,2.5 -2.36364,0 -2.5,0.3 -2.5,5.5 0,5.2 0.13636,5.5 2.5,5.5 1.96085,0 2.5,0.50924 2.5,2.36133 0,2.01315 -0.38942,2.28688 -2.64102,1.85646 -2.62542,-0.50188 -2.6381,-0.47448 -2.14679,4.63867 L 352.70641,297 H 339 325.29359 l 0.48043,-5 c 0.44043,-4.58358 0.30328,-5 -1.64679,-5 C 322.07577,287 322,287.42743 322,299 v 12 l 16.25,0.009 c 8.9375,0.005 18.6125,0.29246 21.5,0.63929 l 5.25,0.6306 0.21503,-73.88929 c 0.11827,-40.63911 0.35755,-68.60179 0.53174,-62.13929 0.28781,10.67798 0.48652,11.75 2.17798,11.75 2.64284,0 3.25288,-2.42639 2.50873,-9.97831 -0.73668,-7.4761 -0.0315,-8.66253 5.66183,-9.52643 3.20083,-0.48569 3.16519,-0.43956 -0.59531,0.77043 -3.61853,1.16432 -4.0296,1.64217 -4.31037,5.01069 -0.1707,2.04799 -0.1707,3.71684 0,3.70856 0.17071,-0.008 2.11037,-0.66353 4.31037,-1.4561 5.019,-1.80816 10.88333,-1.83935 15.80446,-0.0841 l 3.80445,1.35699 -0.30445,-3.65089 c -0.26454,-3.17221 -0.76335,-3.80737 -3.80446,-4.84444 -1.925,-0.65645 -2.73367,-1.21895 -1.79705,-1.25 0.93662,-0.031 2.83254,0.45824 4.21316,1.08729 2.36004,1.07531 2.52738,1.65862 2.79705,9.75 0.26143,7.84399 0.46399,8.60627 2.28684,8.60627 1.85883,0 2.02006,-0.7614 2.2842,-10.78674 l 0.28421,-10.78673 -3.78421,-1.70889 c -2.80825,-1.26817 -6.54172,-1.71002 -14.47639,-1.71327 -6.82296,-0.003 -9.8989,-0.30722 -8.5,-0.84126 3.86267,-1.4746 18.79837,-0.26139 23.19219,1.88389 l 4,1.953 0.0361,43 c 0.0199,23.65 -0.10534,36.8125 -0.27822,29.25 L 400.94356,224 h -2.49123 c -2.40719,0 -2.47615,0.18554 -2.0442,5.5 l 0.44703,5.5 h -13.37323 -13.37322 l 0.42207,-5.5 c 0.40668,-5.29966 0.33185,-5.5 -2.05436,-5.5 H 366 v 21.5 21.5 h 2.43031 c 2.39773,0 2.42409,-0.0998 1.96618,-7.44672 -0.41445,-6.6496 -0.25347,-7.55946 1.50395,-8.5 2.9748,-1.59206 3.84223,-1.26177 1.32207,0.50342 -1.2655,0.88639 -2.22251,2.60879 -2.22251,4 V 258 h 11.91667 c 8.59766,0 12.05714,-0.34815 12.42105,-1.25 0.27741,-0.6875 0.53991,1.36406 0.58333,4.55902 0.0477,3.50569 -0.30457,5.57199 -0.8883,5.21122 -0.53198,-0.32878 -0.70073,-1.93034 -0.375,-3.55901 0.65271,-3.26353 0.6995,-3.24694 -9.15775,-3.24694 -2.475,0 -6.525,0.0643 -9,0.14285 L 372,260 v 5 5 h 11.42857 c 9.06118,0 11.75442,-0.32585 13.00159,-1.57302 0.86516,-0.86516 2.3598,-1.42176 3.32143,-1.23688 1.59226,0.30611 1.77245,2.32205 2.01754,22.57301 L 402.03826,312 H 405.51913 409 v -73.33948 -73.33949 l 2.54705,-1.16051 c 3.64477,-1.66067 4.46693,-1.35917 1.16962,0.42892 l -2.78333,1.50936 0.28333,10.7006 c 0.27104,10.23646 0.38092,10.71446 2.53333,11.02015 2.18888,0.31087 2.25,0.0775 2.25,-8.58948 0,-8.57644 0.0951,-8.95236 2.54705,-10.06955 1.40088,-0.63829 3.31338,-1.13512 4.25,-1.10408 0.93662,0.031 0.12795,0.59355 -1.79705,1.25 -3.04111,1.03707 -3.53992,1.67223 -3.80446,4.84444 l -0.30445,3.65089 3.80445,-1.35699 c 4.83177,-1.72342 10.7577,-1.73055 15.55446,-0.0187 l 3.75,1.33827 v -4.04882 c 0,-2.22686 0.3375,-3.70778 0.75,-3.29093 0.4125,0.41685 0.75,4.42935 0.75,8.91667 0,7.66427 0.13441,8.17787 2.2177,8.47408 2.16804,0.30826 2.2248,0.0507 2.53497,-11.5 0.17449,-6.49843 0.41403,21.37218 0.5323,61.93468 L 446,312 h 5.5 5.5 v -4.5 c 0,-4.33333 -0.11111,-4.5 -3,-4.5 -2.33333,0 -3,-0.44444 -3,-2 0,-1.55556 0.66667,-2 3,-2 h 3 v -6 -6 h -3 c -2.33333,0 -3,-0.44444 -3,-2 0,-1.55556 0.66667,-2 3,-2 2.9697,0 3,-0.0556 3,-5.5 0,-5.44444 -0.0303,-5.5 -3,-5.5 -2.53333,0 -3,-0.38889 -3,-2.5 0,-2.11111 0.46667,-2.5 3,-2.5 2.9697,0 3,-0.0556 3,-5.5 0,-5.44444 -0.0303,-5.5 -3,-5.5 -2.53333,0 -3,-0.38889 -3,-2.5 0,-2.11111 0.46667,-2.5 3,-2.5 2.9697,0 3,-0.0556 3,-5.5 0,-5.44444 -0.0303,-5.5 -3,-5.5 -2.53333,0 -3,-0.38889 -3,-2.5 0,-2.11111 0.46667,-2.5 3,-2.5 2.9697,0 3,-0.0556 3,-5.5 0,-5.44444 -0.0303,-5.5 -3,-5.5 -2.53333,0 -3,-0.38889 -3,-2.5 0,-2.11111 0.46667,-2.5 3,-2.5 2.9697,0 3,-0.0556 3,-5.5 0,-5.44444 -0.0303,-5.5 -3,-5.5 -2.53333,0 -3,-0.38889 -3,-2.5 0,-2.11111 0.46667,-2.5 3,-2.5 2.9697,0 3,-0.0556 3,-5.5 0,-5.44444 -0.0303,-5.5 -3,-5.5 -2.33333,0 -3,-0.44444 -3,-2 0,-1.55556 0.66667,-2 3,-2 h 3 v -6 -6 h -3 c -2.33333,0 -3,-0.44444 -3,-2 0,-1.55556 0.66667,-2 3,-2 2.9697,0 3,-0.0556 3,-5.5 0,-5.44444 -0.0303,-5.5 -3,-5.5 -2.8201,0 -3,-0.23369 -3,-3.89683 0,-3.44161 -3.03725,-8.39611 -26,-42.4123 C 401.52187,79.91122 399,75.778924 399,72.087705 399,69.120856 398.5887,68 397.5,68 c -0.91777,0 -1.5,-0.934042 -1.5,-2.40638 0,-1.914051 0.40919,-2.299376 2,-1.883369 1.75348,0.458545 2,0.03068 2,-3.471175 C 400,57.908639 399.37519,55.72634 398.5,55 397.59438,54.248404 397,54.166864 397,54.794222 c 0,0.571511 0.5625,1.266085 1.25,1.543497 0.74674,0.301317 0.54544,0.536171 -0.5,0.583334 -2.64337,0.119249 -2.11715,-3.243586 0.71289,-4.555775 1.82524,-0.846296 2.56573,-0.846296 2.91326,0 0.25844,0.629378 0.4863,0.466703 0.51163,-0.365278 0.0251,-0.825 -0.8086,-2.524386 -1.85273,-3.776414 -1.8441,-2.211289 -2.33665,-2.268506 -17.21673,-2 L 367.5,46.5 l -0.31336,3.25 c -0.26205,2.717844 0.0245,3.25 1.75,3.25 1.39669,0 2.06336,0.646196 2.06336,2 0,1.333333 -0.66667,2 -2,2 -1.55556,0 -2,0.666667 -2,3 0,2.333333 0.44444,3 2,3 1.46667,0 2,0.666667 2,2.5 0,1.833333 -0.53333,2.5 -2,2.5 -1.70822,0 -2,0.666667 -2,4.569716 0,4.301781 -1.32959,6.544491 -22.67658,38.250004 -12.47212,18.52415 -23.94712,35.4353 -25.5,37.58032 -2.06747,2.85583 -2.82342,5.06471 -2.82342,8.25 0,4.16662 -0.12644,4.34996 -3,4.34996 -2.9697,0 -3,0.0556 -3,5.5 0,5.44444 0.0303,5.5 3,5.5 2.33333,0 3,0.44444 3,2 0,1.55556 -0.66667,2 -3,2 h -3 v 6 6 h 3 c 2.33333,0 3,0.44444 3,2 0,1.55556 -0.66667,2 -3,2 -2.96525,0 -3,0.0629 -3,5.43358 0,5.18416 0.12623,5.4481 2.75,5.75 1.96901,0.22656 2.84075,0.95541 3.06955,2.56642 0.27184,1.91406 -0.13875,2.25 -2.75,2.25 -3.054,0 -3.06955,0.0279 -3.06955,5.5 0,5.44444 0.0303,5.5 3,5.5 2.53333,0 3,0.38889 3,2.5 0,2.11111 -0.46667,2.5 -3,2.5 -2.9697,0 -3,0.0556 -3,5.5 0,5.44444 0.0303,5.5 3,5.5 2.53333,0 3,0.38889 3,2.5 0,2 -0.5,2.5 -2.5,2.5 -1.375,0 -2.51368,-0.5625 -2.53041,-1.25 -0.0196,-0.80399 -0.3134,-0.71479 -0.82353,0.25 -0.43623,0.825 -0.60411,3.8625 -0.37308,6.75 0.40256,5.03144 0.54092,5.25 3.32353,5.25 2.43039,0 2.90349,0.40736 2.90349,2.5 0,2.11111 -0.46667,2.5 -3,2.5 -2.9697,0 -3,0.0556 -3,5.5 0,5.47214 0.0156,5.5 3.06955,5.5 2.61125,0 3.02184,0.33594 2.75,2.25 -0.2288,1.61101 -1.10054,2.33986 -3.06955,2.56642 -2.62377,0.3019 -2.75,0.56584 -2.75,5.75 0,5.37064 0.0347,5.43358 3,5.43358 2.33333,0 3,0.44444 3,2 0,1.55556 -0.66667,2 -3,2 h -3 v 6 6 h 3 c 2.33333,0 3,0.44444 3,2 0,1.55556 -0.66667,2 -3,2 -2.89399,0 -3,0.16086 -3,4.55226 v 4.55226 l 5.25,-0.30226 5.25,-0.30226 z m 80.30987,22.5 c 0.006,-3.3 0.1923,-4.52944 0.41486,-2.73209 0.22256,1.79735 0.21797,4.49735 -0.0102,6 -0.22818,1.50265 -0.41027,0.0321 -0.40466,-3.26791 z m -6.6715,-8 c -0.31658,-0.825 -0.13972,-1.5 0.39301,-1.5 0.53274,0 0.96862,0.675 0.96862,1.5 0,0.825 -0.17686,1.5 -0.39301,1.5 -0.21616,0 -0.65203,-0.675 -0.96862,-1.5 z M 378,249.03353 c 2.47765,-0.82671 9.71785,-1.36993 8.91667,-0.669 -0.22917,0.20049 -2.89167,0.62073 -5.91667,0.93385 -3.55056,0.36753 -4.61389,0.27366 -3,-0.26485 z M 434,169 c -2.05955,-0.65958 -2.14764,-0.8155 -0.5,-0.88501 1.1,-0.0464 2.675,0.35185 3.5,0.88501 1.75214,1.13232 0.53568,1.13232 -3,0 z m -96.23834,-1.70726 c 1.24391,-0.23919 3.04391,-0.23011 4,0.0202 0.95609,0.25029 -0.0617,0.446 -2.26166,0.4349 -2.2,-0.0111 -2.98225,-0.21589 -1.73834,-0.45508 z m 45.05084,0.0241 c 0.72187,-0.28887 1.58438,-0.25335 1.91667,0.0789 0.33229,0.33229 -0.25834,0.56864 -1.3125,0.52522 -1.16495,-0.048 -1.4019,-0.28494 -0.60417,-0.60416 z m 42.94916,-0.0241 c 1.24391,-0.23919 3.04391,-0.23011 4,0.0202 0.95609,0.25029 -0.0617,0.446 -2.26166,0.4349 -2.2,-0.0111 -2.98225,-0.21589 -1.73834,-0.45508 z M 368,164 c 0.825,-0.53316 1.95,-0.96937 2.5,-0.96937 0.55,0 0.325,0.43621 -0.5,0.96937 -0.825,0.53316 -1.95,0.96937 -2.5,0.96937 -0.55,0 -0.325,-0.43621 0.5,-0.96937 z m 73,0 c -0.825,-0.53316 -1.05,-0.96937 -0.5,-0.96937 0.55,0 1.675,0.43621 2.5,0.96937 0.825,0.53316 1.05,0.96937 0.5,0.96937 -0.55,0 -1.675,-0.43621 -2.5,-0.96937 z m -23.2127,-2.17971 c 0.94199,-0.37385 5.3127,-0.67972 9.7127,-0.67972 4.4,0 8.77071,0.30587 9.7127,0.67972 0.94198,0.37384 -3.42874,0.67971 -9.7127,0.67971 -6.28396,0 -10.65468,-0.30587 -9.7127,-0.67971 z M 335.03506,146.25 c 0.0193,-0.4125 3.16227,-5.475 6.98441,-11.25 l 6.94935,-10.5 0.0156,9.66821 c 0.009,5.31752 0.28873,10.38002 0.62258,11.25 0.52071,1.35696 -0.47426,1.58179 -7,1.58179 -4.18385,0 -7.59121,-0.3375 -7.57193,-0.75 z M 347,137.5 c 0,-3.025 -0.16129,-5.5 -0.35842,-5.5 -0.19713,0 -2.00173,2.475 -4.01021,5.5 l -3.6518,5.5 H 342.98979 347 Z m 11.36971,7.25 c 0.33164,-1.2375 0.60913,-7.5375 0.61664,-14 L 359,119 h 24.5 24.5 v 12.41821 c 0,6.83002 0.27314,13.13002 0.60699,14 0.5438,1.41712 -2.0709,1.58179 -25.11663,1.58179 H 357.76674 Z M 371,137.5 V 132 h -4.89931 -4.8993 l -0.43147,4.75 c -0.23731,2.6125 -0.25607,5.0875 -0.0417,5.5 0.21439,0.4125 2.61324,0.75 5.33078,0.75 H 371 Z m 12,0 V 132 h -5.5 -5.5 v 5.5 5.5 h 5.5 5.5 z m 12,0 V 132 h -5.5 -5.5 v 5.5 5.5 h 5.5 5.5 z m 11.15745,0.001 L 405.8149,132 H 400.90745 396 v 5.5 5.5 l 5.25,0.001 5.25,0.001 z M 371,126 v -5 h -4.90349 -4.90348 l -0.34652,5.00062 -0.34651,5.00062 5.25,-6.2e-4 L 371,131 Z m 12,0 v -5 h -5.5 -5.5 v 5 5 h 5.5 5.5 z m 12,0 v -5 h -5.5 -5.5 v 5 5 h 5.5 5.5 z m 11,0 v -5 h -5 -5 v 5 5 h 5 5 z m 11.74793,11.75 c 0.20014,-5.0875 0.45123,-9.87991 0.55798,-10.64981 C 418.47144,125.90636 432,145.06346 432,146.49169 432,146.77126 428.71141,147 424.69202,147 h -7.30797 z M 427,142.48462 c 0,-0.28347 -1.6875,-3.06377 -3.75,-6.17845 l -3.75,-5.66306 -0.30981,4.80138 C 418.76646,142.01138 419.32628,143 423.46862,143 425.41088,143 427,142.76808 427,142.48462 Z M 373,106 c 0,-0.55 0.45,-1 1,-1 0.61538,0 1,-5 1,-13 V 79 h 8.5 8.5 v 12.418213 c 0,6.830016 0.27314,13.130017 0.60699,13.999997 C 393.13581,106.7963 391.9124,107 383.10699,107 377.03566,107 373,106.60071 373,106 Z M 383,92 V 81 h -3.44 -3.44 v 11 11 h 3.44 3.44 z m 7,0 V 81 h -3 -3 v 11 11 h 3 3 z M 380,60.5 c 0,-7.348024 1.45848,-8.948099 1.76371,-1.934933 0.22931,5.268809 0.75526,6.434933 2.9023,6.434933 1.10635,0 1.32423,-0.499255 0.76372,-1.75 -1.2071,-2.693577 -1.06668,-8.516408 0.21597,-8.955194 0.78068,-0.267068 1.12777,1.511318 1.08942,5.581988 -0.0489,5.188517 -0.33097,6.04768 -2.14569,6.534911 C 380.25523,67.575384 380,67.246618 380,60.5 Z m 20.78174,238.75 c -0.2635,-10.98942 -0.4112,-11.75 -2.28174,-11.75 -1.72812,0 -1.99146,0.64572 -1.93716,4.75 l 0.0628,4.75 h -13.30531 -13.3053 l 0.24246,-4.75 c 0.21702,-4.25151 0.006,-4.78354 -2.00753,-5.06955 -2.2267,-0.31624 -2.25,-0.19459 -2.25,11.75 V 311 h 17.53174 17.53173 z M 445,298.93045 c 0,-11.94459 -0.0233,-12.06624 -2.25,-11.75 -2.01387,0.28601 -2.22455,0.81804 -2.00753,5.06955 l 0.24246,4.75 h -13.34567 -13.34567 l 0.48882,-5.08732 c 0.47084,-4.90006 0.40101,-5.07491 -1.89679,-4.75 -2.34083,0.33099 -2.39091,0.55791 -2.66736,12.08732 L 409.93653,311 H 427.46826 445 Z M 212,276.05902 c 0,-10.88197 -0.39346,-18.18416 -1,-18.55902 -0.65295,-0.40354 -1,5.82295 -1,17.94098 0,11.70601 0.36925,18.55902 1,18.55902 0.62951,0 1,-6.64699 1,-17.94098 z M 350,288.5 v -5.41003 l -11,-0.01 -11,-0.01 v 5.43005 5.43005 l 11,-0.01 11,-0.01 z m 33,0 V 283 h -5.5 -5.5 v 5.5 5.5 h 5.5 5.5 z m 11,0 V 283 h -5 -5 v 5.5 5.5 h 5 5 z m 33,0 V 283 h -4.89159 c -4.26354,0 -4.95337,0.28889 -5.37274,2.25 -0.37946,1.77449 -0.26424,7.12346 0.18309,8.5 0.0447,0.1375 2.33124,0.25 5.08124,0.25 h 5 z m 12,0 V 283 h -5.5 -5.5 v 5.5 5.5 h 5.5 5.5 z m -245.78497,-8.25 0.21504,-11.75 0.3167,11.75 0.3167,11.75 H 199.03174 204 v -21 -21 h -11 -11 v 21 21 h 5.5 5.5 z m -0.0201,-14.75 c 0.0204,-1.65 0.2445,-2.20394 0.49804,-1.23097 0.25354,0.97297 0.23687,2.32297 -0.0371,3 -0.27393,0.67703 -0.48137,-0.11903 -0.46099,-1.76903 z m 34.60395,10.99856 c -0.1644,-8.52579 0.0386,-15.50079 0.4511,-15.5 0.4125,7.9e-4 0.75,6.97644 0.75,15.50144 V 292 h 5 5 v -14.94521 -14.94521 l -4.75,-0.37454 c -4.69751,-0.3704 -4.68646,-0.37654 1,-0.55479 3.1625,-0.0991 5.69671,0.15725 5.63158,0.56975 -0.0651,0.4125 -0.0651,7.3875 0,15.5 L 241,292 h 5.0064 5.00641 l -0.0561,-21 -0.0561,-21 H 234 217.09944 l -0.0561,21 -0.0561,21 h 5.55531 5.5553 z M 221.25,261.31067 c 0.9625,-0.25152 2.5375,-0.25152 3.5,0 0.9625,0.25153 0.175,0.45733 -1.75,0.45733 -1.925,0 -2.7125,-0.2058 -1.75,-0.45733 z m 22.51166,-0.0179 c 1.24391,-0.23919 3.04391,-0.23011 4,0.0202 0.95609,0.25029 -0.0617,0.446 -2.26166,0.4349 -2.2,-0.0111 -2.98225,-0.21589 -1.73834,-0.45508 z m 30.4342,23.95726 0.19586,-6.75 0.34983,6.75 0.34983,6.75 H 280.54569 286 v -15 c 0,-11.29123 -0.30906,-15.01952 -1.25,-15.07895 -1,-0.0632 -1,-0.17982 0,-0.58333 0.78408,-0.31638 1.25,-2.52339 1.25,-5.92105 V 250 h -11 -11 v 21 21 h 5 5 z m -0.0597,-16.43963 -0.13618,-6.68964 -3.75,-0.39226 c -3.63319,-0.38005 -3.60983,-0.39752 0.75,-0.56099 l 4.5,-0.16872 -0.28876,5.25062 c -0.47318,8.60394 -0.92989,9.69192 -1.07506,2.56099 z m 4.11382,-7.4997 c 0.9625,-0.25152 2.5375,-0.25152 3.5,0 0.9625,0.25153 0.175,0.45733 -1.75,0.45733 -1.925,0 -2.7125,-0.2058 -1.75,-0.45733 z M 326,277.09362 c 0,-5.41405 -0.16671,-5.86278 -2,-5.38337 -1.68755,0.44131 -2,1.36402 -2,5.90638 0,4.7167 0.24768,5.38337 2,5.38337 1.77426,0 2,-0.66667 2,-5.90638 z m 44.7999,0.15638 c -0.25991,-4.98337 -0.56656,-5.75 -2.2999,-5.75 -1.73334,0 -2.03999,0.76663 -2.2999,5.75 -0.29221,5.60244 -0.23319,5.75 2.2999,5.75 2.53309,0 2.59211,-0.14756 2.2999,-5.75 z m 30,0 c -0.25991,-4.98337 -0.56656,-5.75 -2.2999,-5.75 -1.73334,0 -2.03999,0.76663 -2.2999,5.75 -0.29221,5.60244 -0.23319,5.75 2.2999,5.75 2.53309,0 2.59211,-0.14756 2.2999,-5.75 z M 415,277.66667 c 0,-6.02675 -0.32398,-6.65621 -3.0579,-5.94128 -1.6194,0.42348 -1.9421,1.40238 -1.9421,5.89124 0,5.07559 0.14293,5.38337 2.5,5.38337 2.35417,0 2.5,-0.31111 2.5,-5.33333 z m 30,-0.73622 c 0,-5.72237 -0.1287,-6.05127 -2.25,-5.75 -1.99318,0.28308 -2.28423,0.97586 -2.5499,6.06955 -0.29078,5.57508 -0.22234,5.75 2.25,5.75 2.45313,0 2.5499,-0.23035 2.5499,-6.06955 z M 350,277 v -5 h -11 -11 v 5 5 h 11 11 z m -10.80505,-0.5 c 0.0204,-1.65 0.2445,-2.20394 0.49804,-1.23097 0.25354,0.97297 0.23687,2.32297 -0.0371,3 -0.27393,0.67703 -0.48137,-0.11903 -0.46099,-1.76903 z M 383,277 v -5 h -5.5 -5.5 v 5 5 h 5.5 5.5 z m 11.15349,6.2e-4 L 393.80697,272 H 388.90349 384 v 5 5 l 5.25,6.2e-4 5.25,6.2e-4 z M 427,277 v -5 h -4.90349 -4.90348 l -0.34652,5.00062 -0.34651,5.00062 5.25,-6.2e-4 L 427,282 Z m 12,0 v -5 h -5.5 -5.5 v 5 5 h 5.5 5.5 z m -89,-12 v -5 h -11 -11 v 5 5 h 11 11 z m 89,0 v -5 h -11.29022 -11.29022 l 0.23962,4.75 c 0.13179,2.6125 0.26239,4.8625 0.29022,5 0.0278,0.1375 5.0006,0.25 11.0506,0.25 h 11 z m -24,-6 c 0,-4.4 0.1882,-8 0.41821,-8 0.23002,0 1.24252,-0.25898 2.25,-0.57551 1.71073,-0.53747 1.71613,-0.50114 0.0818,0.54969 -1.01697,0.65389 -1.75,2.361 -1.75,4.07551 V 258 h 11.5 11.5 v -2.95031 c 0,-1.75485 -0.70909,-3.36332 -1.75,-3.96959 -2.32351,-1.35332 -0.67113,-1.37585 1.85247,-0.0253 1.79136,0.95871 1.90951,1.73337 1.29633,8.5 L 439.72414,267 H 442.36207 445 V 245.5 224 h -2.47642 c -2.38621,0 -2.46104,0.20034 -2.05436,5.5 l 0.42207,5.5 h -13.37322 -13.37323 l 0.44703,-5.5 c 0.43318,-5.32961 0.36898,-5.5 -2.07242,-5.5 H 410 v 21.5 21.5 h 2.5 c 2.45833,0 2.5,-0.13333 2.5,-8 z m 8.34552,-10.31088 c 2.35063,-0.5703 5.46053,-0.57663 8,-0.0163 3.75111,0.82769 3.37774,0.91827 -3.84552,0.93298 -7.01236,0.0143 -7.52525,-0.0989 -4.15448,-0.91669 z M 351,254.97525 c 0,-3.79175 -2.99994,-5.18636 -11.5,-5.34614 -8.22305,-0.15456 -12.5,1.72463 -12.5,5.49221 V 258 h 12 12 z M 331,229.5 c 0,-0.825 -0.675,-1.5 -1.5,-1.5 -0.825,0 -1.5,0.675 -1.5,1.5 0,0.825 0.675,1.5 1.5,1.5 0.825,0 1.5,-0.675 1.5,-1.5 z m 5,0 c 0,-0.83333 -0.88889,-1.5 -2,-1.5 -1.99224,0 -2.60112,1.06554 -1.33333,2.33333 C 333.8846,231.55126 336,231.02241 336,229.5 Z m 1.7335,-9.72357 c -0.21125,-2.35204 -0.38706,-0.67643 -0.39069,3.72357 -0.004,4.4 0.16921,6.32439 0.38408,4.27643 0.21488,-2.04796 0.21785,-5.64796 0.007,-8 z m 2.94961,9.03607 c -0.31922,-0.79773 -0.55618,-0.56078 -0.60416,0.60417 -0.0434,1.05416 0.19293,1.64479 0.52522,1.3125 0.33229,-0.3323 0.36781,-1.1948 0.0789,-1.91667 z M 346,229.5 c 0,-0.83333 -0.88889,-1.5 -2,-1.5 -1.11111,0 -2,0.66667 -2,1.5 0,0.83333 0.88889,1.5 2,1.5 1.11111,0 2,-0.66667 2,-1.5 z m 4,0 c 0,-0.825 -0.675,-1.5 -1.5,-1.5 -0.825,0 -1.5,0.675 -1.5,1.5 0,0.825 0.675,1.5 1.5,1.5 0.825,0 1.5,-0.675 1.5,-1.5 z m 24.71025,-0.5 c -0.46457,-1.77654 -0.0307,-2 3.88337,-2 H 383 v -4.89159 c 0,-4.45505 -0.23602,-4.95083 -2.64464,-5.55536 -3.42639,-0.85997 -4.14645,-0.0106 -4.61752,5.44695 l -0.38843,4.5 -0.1747,-5.33333 c -0.12339,-3.7668 -0.54187,-5.21037 -1.42471,-4.91469 -1.20188,0.40253 -2.11585,12.25886 -1.07907,13.99802 0.95829,1.6075 2.534,0.64167 2.03932,-1.25 z m 6.78975,1 c 1.1,-0.47269 1.775,-0.92549 1.5,-1.00623 -4.13556,-1.21417 -7.54828,-0.68993 -6.50437,0.99917 0.73412,1.18782 2.25162,1.18996 5.00437,0.007 z m 8.5,-0.65683 c 0,-1.14219 -0.68853,-1.4447 -2.5,-1.09842 -1.375,0.26285 -2.5,0.0903 -2.5,-0.38342 0,-0.47373 1.125,-0.86133 2.5,-0.86133 2.36451,0 2.5,-0.29894 2.5,-5.51588 0,-5.5129 -0.002,-5.51576 -3,-5.2873 l -3,0.2286 0.002,7.03729 0.002,7.03729 2.99802,0.20974 C 389.15344,230.86026 390,230.47437 390,229.34317 Z m 4.50437,0.64977 c 0.34231,-0.55389 -0.10054,-1.28448 -0.98412,-1.62354 -1.91464,-0.73472 -2.98171,0.0749 -2.06137,1.56407 0.83038,1.34358 2.23491,1.37101 3.04549,0.0595 z m 25.03675,-0.0595 c 0.92034,-1.48915 -0.14673,-2.29879 -2.06137,-1.56407 -0.88358,0.33906 -1.32643,1.06965 -0.98412,1.62354 0.81058,1.31154 2.21511,1.28411 3.04549,-0.0595 z M 424.75047,229.25 C 424.99459,228.51682 424.30531,228 423.08333,228 421.855,228 421,228.64569 421,229.57332 c 0,1.83788 3.12044,1.56887 3.75047,-0.32332 z m 13.96482,0.10413 c 0.22156,-0.66469 -1.7147,-1.05428 -5.18075,-1.04239 -3.044,0.0104 -5.53454,0.36157 -5.53454,0.7803 0,1.83375 10.10898,2.08102 10.71529,0.26209 z M 331,221.5 c 0,-4.22222 -0.34848,-5.5 -1.5,-5.5 -1.15152,0 -1.5,1.27778 -1.5,5.5 0,4.22222 0.34848,5.5 1.5,5.5 1.15152,0 1.5,-1.27778 1.5,-5.5 z m 5.07029,-2.25 c 0.0477,-5.25892 0.34653,-7.10714 0.92971,-5.75 0.54294,1.26348 0.88531,-2.6953 0.92971,-10.75 L 338,190 h -5 -5 v 12.5 c 0,10.44444 0.24667,12.5 1.5,12.5 0.825,0 1.5522,-0.7875 1.616,-1.75 0.11048,-1.66667 0.13778,-1.66667 0.57333,0 0.25152,0.9625 1.21182,1.8022 2.13399,1.866 1.49024,0.1031 1.48208,0.16686 -0.0733,0.57333 -1.3955,0.36468 -1.75,1.55662 -1.75,5.88399 0,4.76001 0.2457,5.42668 2,5.42668 1.82191,0 2.00626,-0.6901 2.07029,-7.75 z m 4.65444,-0.48209 c -0.22256,-1.79735 -0.40925,-0.56791 -0.41486,2.73209 -0.006,3.3 0.17648,4.77056 0.40466,3.26791 0.22817,-1.50265 0.23276,-4.20265 0.0102,-6 z M 346,221.5 c 0,-4.83333 -0.24242,-5.5 -2,-5.5 -1.75758,0 -2,0.66667 -2,5.5 0,4.83333 0.24242,5.5 2,5.5 1.75758,0 2,-0.66667 2,-5.5 z m 4,0 c 0,-4.22222 -0.34848,-5.5 -1.5,-5.5 -1.15152,0 -1.5,1.27778 -1.5,5.5 0,4.22222 0.34848,5.5 1.5,5.5 1.15152,0 1.5,-1.27778 1.5,-5.5 z m 44.37226,0.25074 c -0.0967,-3.9765 -0.52143,-5.3292 -1.75,-5.57406 -1.34097,-0.26727 -1.62226,0.64305 -1.62226,5.25 0,4.64098 0.29275,5.57344 1.75,5.57406 1.46078,6.1e-4 1.72889,-0.86705 1.62226,-5.25 z M 420,222.05902 c 0,-4.63911 -1.0289,-6.77689 -2.75,-5.71379 -0.4125,0.25479 -0.59407,2.75635 -0.40349,5.55901 0.2409,3.54256 0.7743,5.09576 1.75,5.09576 C 419.6118,227 420,225.63332 420,222.05902 Z m 6.837,-0.80902 -0.16299,-5.75 -0.64134,5.5 -0.64133,5.5 -0.44567,-4.99101 c -0.33404,-3.74088 -0.884,-5.07424 -2.19567,-5.32332 -1.49709,-0.28429 -1.75,0.47315 -1.75,5.24101 0,5.52591 0.0255,5.57332 3,5.57332 h 3 z m 11.96526,0.5 L 438.5,216.5 h -5 -5 l -0.30226,5.25 -0.30226,5.25 h 5.60452 5.60452 z m -8.72331,2.66667 c 0.048,-1.16495 0.28494,-1.4019 0.60416,-0.60417 0.28887,0.72187 0.25335,1.58437 -0.0789,1.91667 -0.33229,0.33229 -0.56864,-0.25834 -0.52522,-1.3125 z M 80,216.5 c 0,-1.375 -0.45,-2.5 -1,-2.5 -0.55,0 -1,1.125 -1,2.5 0,1.375 0.45,2.5 1,2.5 0.55,0 1,-1.125 1,-2.5 z m 27.61671,-5.97352 c -0.14394,-9.27444 -2.05283,-9.71697 -2.27103,-0.52648 -0.17142,7.22026 0.21145,9.39174 1.51397,8.58674 0.48058,-0.29701 0.82126,-3.92413 0.75706,-8.06026 z M 326,213.5 c 0,-4.83333 -0.24242,-5.5 -2,-5.5 -1.75758,0 -2,0.66667 -2,5.5 0,4.83333 0.24242,5.5 2,5.5 1.75758,0 2,-0.66667 2,-5.5 z m 44.51484,-0.001 c 0.0136,-5.05083 -0.16968,-5.4988 -2.25,-5.4988 -2.07859,0 -2.26484,0.45229 -2.26484,5.5 0,5.03739 0.18925,5.4999 2.25,5.4988 2.0586,-0.001 2.25126,-0.46897 2.26484,-5.5 z M 401,213.5 c 0,-5.15579 -0.15188,-5.5 -2.42685,-5.5 -2.29445,0 -2.41808,0.30006 -2.26613,5.5 0.14615,5.00135 0.36617,5.5 2.42685,5.5 2.08016,0 2.26613,-0.45136 2.26613,-5.5 z m 13.70636,-2.6e-4 C 414.90259,208.27006 414.79211,208 412.45636,208 410.14562,208 410,208.32605 410,213.5 c 0,5.03711 0.18936,5.49998 2.25,5.49974 2.03554,-2.4e-4 2.26967,-0.52447 2.45636,-5.5 z M 445,213.5 c 0,-5.13619 -0.15847,-5.5 -2.39576,-5.5 -2.25494,0 -2.3872,0.32327 -2.25,5.49961 0.13234,4.99331 0.35289,5.49964 2.39576,5.5 2.06065,3.6e-4 2.25,-0.46246 2.25,-5.49961 z m -358,2 c 0,-0.83333 -0.888889,-1.5 -2,-1.5 -1.111111,0 -2,0.66667 -2,1.5 0,0.83333 0.888889,1.5 2,1.5 1.111111,0 2,-0.66667 2,-1.5 z m 5,0 c 0,-0.83333 -0.888889,-1.5 -2,-1.5 -1.111111,0 -2,0.66667 -2,1.5 0,0.83333 0.888889,1.5 2,1.5 1.111111,0 2,-0.66667 2,-1.5 z m 5,0 c 0,-0.825 -0.675,-1.5 -1.5,-1.5 -0.825,0 -1.5,0.675 -1.5,1.5 0,0.825 0.675,1.5 1.5,1.5 0.825,0 1.5,-0.675 1.5,-1.5 z m 5.09243,0 c -0.007,-0.55 -0.93103,-1.1438 -2.05282,-1.31955 -2.011175,-0.3151 -2.705732,0.82009 -1.338374,2.18745 0.972358,0.97236 3.407274,0.3492 3.391194,-0.8679 z m 239.83728,-2.25 c 0.0426,1.0599 0.85897,1.75 2.07029,1.75 1.1939,0 2.04675,-0.70533 2.116,-1.75 0.11048,-1.66667 0.13778,-1.66667 0.57333,0 0.25152,0.9625 1.09932,1.75 1.88399,1.75 C 349.7328,215 350,212.65892 350,202.5 V 190 h -5 -5 l 0.0703,12.75 c 0.0444,8.0547 0.38677,12.01348 0.92971,10.75 0.7349,-1.71022 0.86961,-1.74644 0.92971,-0.25 z M 375,213.5 c 0,-0.825 0.49814,-1.5 1.10699,-1.5 0.60884,0 0.84797,0.675 0.53138,1.5 -0.44407,1.15723 0.22406,1.5 2.92379,1.5 h 3.4994 L 382.78078,202.75 382.5,190.5 377.25,190.19774 372,189.89548 v 12.55226 c 0,10.4909 0.24633,12.55226 1.5,12.55226 0.825,0 1.5,-0.675 1.5,-1.5 z m 5,-0.55902 c 0,-0.58246 0.45,-0.7809 1,-0.44098 0.55,0.33992 1,0.81648 1,1.05902 0,0.24254 -0.45,0.44098 -1,0.44098 -0.55,0 -1,-0.47656 -1,-1.05902 z M 390,213.5 c 0,-0.825 0.49814,-1.5 1.10699,-1.5 0.60884,0 0.84797,0.675 0.53138,1.5 -0.37416,0.97505 0.0259,1.49935 1.14301,1.49813 1.36794,-0.001 1.70159,-0.86869 1.63517,-4.25 -0.0459,-2.33647 -0.1584,-7.96063 -0.25,-12.49813 L 394,190 h -5 -5 v 12.5 12.5 h 3 c 2,0 3,-0.5 3,-1.5 z m -5,-0.5 c 0,-0.55 0.45,-1 1,-1 0.55,0 1,0.45 1,1 0,0.55 -0.45,1 -1,1 -0.55,0 -1,-0.45 -1,-1 z m 34.36163,0.5 c -0.31659,-0.825 -0.0775,-1.5 0.53138,-1.5 0.60885,0 1.10699,0.675 1.10699,1.5 0,0.82536 0.8854,1.5 1.96862,1.5 1.33903,0 1.78453,-0.47971 1.39301,-1.5 -0.31659,-0.825 -0.11046,-1.5 0.45806,-1.5 0.56851,0 1.23946,0.7875 1.49098,1.75 0.25153,0.9625 0.50953,-3.9875 0.57333,-11 L 427,190 h -4.94285 -4.94284 l -0.30716,12.50182 c -0.27695,11.27257 -0.13817,12.50164 1.41147,12.5 1.11648,-0.001 1.51694,-0.52736 1.14301,-1.50182 z M 439,202.44774 v -12.55226 l -5.25,0.30226 -5.25,0.30226 -0.28078,12.25 -0.28078,12.25 H 433.46922 439 Z M 434,213 c 0,-0.55 0.45,-1 1,-1 0.55,0 1,0.45 1,1 0,0.55 -0.45,1 -1,1 -0.55,0 -1,-0.45 -1,-1 z M 80,207.5 c 0,-3.025 -0.45,-5.5 -1,-5.5 -0.55,0 -1,2.475 -1,5.5 0,3.025 0.45,5.5 1,5.5 0.55,0 1,-2.475 1,-5.5 z m 7,2 c 0,-2.83333 -0.380952,-3.5 -2,-3.5 -1.619048,0 -2,0.66667 -2,3.5 0,2.83333 0.380952,3.5 2,3.5 1.619048,0 2,-0.66667 2,-3.5 z m 5,0 c 0,-2.83333 -0.380952,-3.5 -2,-3.5 -1.619048,0 -2,0.66667 -2,3.5 0,2.83333 0.380952,3.5 2,3.5 1.619048,0 2,-0.66667 2,-3.5 z m 5,0 c 0,-2.70313 -0.409638,-3.5 -1.799199,-3.5 -1.467391,0 -1.723844,0.64547 -1.390594,3.5 0.248218,2.12617 0.954445,3.5 1.799199,3.5 C 96.53199,213 97,211.82206 97,209.5 Z m 6,0 c 0,-3.06667 -0.30952,-3.5 -2.5,-3.5 -2.190476,0 -2.5,0.43333 -2.5,3.5 0,3.06667 0.309524,3.5 2.5,3.5 2.19048,0 2.5,-0.43333 2.5,-3.5 z m -16,-6 c 0,-0.83333 -0.888889,-1.5 -2,-1.5 -1.111111,0 -2,0.66667 -2,1.5 0,0.83333 0.888889,1.5 2,1.5 1.111111,0 2,-0.66667 2,-1.5 z m 4.750467,0.25 C 91.120444,201.85781 88,201.5888 88,203.42668 88,204.35431 88.854996,205 90.083333,205 c 1.221973,0 1.911255,-0.51682 1.667134,-1.25 z M 97,203.5 c 0,-0.825 -0.675,-1.5 -1.5,-1.5 -0.825,0 -1.5,0.675 -1.5,1.5 0,0.825 0.675,1.5 1.5,1.5 0.825,0 1.5,-0.675 1.5,-1.5 z m 5.75,0.25 c -0.22917,-0.6875 -1.24167,-1.25 -2.25,-1.25 -1.008333,0 -2.020833,0.5625 -2.25,1.25 -0.263889,0.79167 0.561111,1.25 2.25,1.25 1.68889,0 2.51389,-0.45833 2.25,-1.25 z M 401,197.38337 C 401,192.30778 400.85707,192 398.5,192 c -2.35417,0 -2.5,0.31111 -2.5,5.33333 0,6.02675 0.32398,6.65621 3.0579,5.94128 1.6194,-0.42348 1.9421,-1.40238 1.9421,-5.89124 z M 326,197.5 c 0,-4.83333 -0.24242,-5.5 -2,-5.5 -1.75758,0 -2,0.66667 -2,5.5 0,4.83333 0.24242,5.5 2,5.5 1.75758,0 2,-0.66667 2,-5.5 z m 44.80066,0 c -0.20902,-4.99504 -0.43996,-5.5 -2.51541,-5.5 -2.10333,0 -2.28525,0.43782 -2.28525,5.5 0,5.20898 0.1331,5.5 2.5154,5.5 2.41021,0 2.50578,-0.23002 2.28526,-5.5 z M 415,197.5 c 0,-5.2 -0.13636,-5.5 -2.5,-5.5 -2.36364,0 -2.5,0.3 -2.5,5.5 0,5.2 0.13636,5.5 2.5,5.5 2.36364,0 2.5,-0.3 2.5,-5.5 z m 30,0 c 0,-5.2 -0.13636,-5.5 -2.5,-5.5 -2.36364,0 -2.5,0.3 -2.5,5.5 0,5.2 0.13636,5.5 2.5,5.5 2.36364,0 2.5,-0.3 2.5,-5.5 z m -357.883999,1.75 c 0.110478,-1.66667 0.137779,-1.66667 0.573325,0 0.251527,0.9625 1.324326,1.75 2.383998,1.75 C 91.608573,201 92,200.28893 92,197.5 V 194 h -5 c -5.199088,0 -5.542597,0.3734 -4.369714,4.75 0.720861,2.68988 4.314007,3.09039 4.485715,0.5 z M 97,199.44098 c 0,-0.85746 0.45734,-1.27636 1.016312,-0.9309 0.558971,0.34546 0.757414,1.04702 0.440983,1.55902 -0.316431,0.51199 0.562106,0.9309 1.952305,0.9309 1.83594,0 2.37012,-0.41048 1.95203,-1.5 -0.31659,-0.825 -0.0775,-1.5 0.53138,-1.5 0.60885,0 1.10699,-0.9 1.10699,-2 0,-1.73333 -0.66667,-2 -5,-2 h -5 v 3.5 c 0,2.44444 0.452381,3.5 1.5,3.5 0.825,0 1.5,-0.70156 1.5,-1.55902 z M 92,188 v -5 h -5 -5 v 5 5 h 5 5 z m 12,0 v -5 h -5 -5 v 5 5 h 5 5 z m 232,-1.36364 c 0,-0.92424 -1.28889,-1.36363 -4,-1.36363 -2.71111,0 -4,0.43939 -4,1.36363 0,0.92425 1.28889,1.36364 4,1.36364 2.71111,0 4,-0.43939 4,-1.36364 z M 341,186.5 c 0,-0.83333 -0.88889,-1.5 -2,-1.5 -1.11111,0 -2,0.66667 -2,1.5 0,0.83333 0.88889,1.5 2,1.5 1.11111,0 2,-0.66667 2,-1.5 z m 5,0 c 0,-0.83333 -0.88889,-1.5 -2,-1.5 -1.11111,0 -2,0.66667 -2,1.5 0,0.83333 0.88889,1.5 2,1.5 1.11111,0 2,-0.66667 2,-1.5 z m 4,0 c 0,-0.825 -0.675,-1.5 -1.5,-1.5 -0.825,0 -1.5,0.675 -1.5,1.5 0,0.825 0.675,1.5 1.5,1.5 0.825,0 1.5,-0.675 1.5,-1.5 z m 26,0 c 0,-0.83333 -0.88889,-1.5 -2,-1.5 -1.11111,0 -2,0.66667 -2,1.5 0,0.83333 0.88889,1.5 2,1.5 1.11111,0 2,-0.66667 2,-1.5 z m 9,0.13636 c 0,-0.92424 -1.28889,-1.36363 -4,-1.36363 -2.71111,0 -4,0.43939 -4,1.36363 0,0.92425 1.28889,1.36364 4,1.36364 2.71111,0 4,-0.43939 4,-1.36364 z M 390,186.5 c 0,-0.83333 -0.88889,-1.5 -2,-1.5 -1.11111,0 -2,0.66667 -2,1.5 0,0.83333 0.88889,1.5 2,1.5 1.11111,0 2,-0.66667 2,-1.5 z m 4.30282,0.0137 c 0.10845,-0.54247 -0.59032,-1.13797 -1.55282,-1.32333 -1.0946,-0.2108 -1.75,0.27967 -1.75,1.30963 0,1.73979 2.9553,1.75204 3.30282,0.0137 z M 420,186.42668 c 0,-0.93124 -0.68037,-1.44138 -1.66713,-1.25 C 415.8241,185.66323 415.47962,188 417.91667,188 419.145,188 420,187.35431 420,186.42668 Z m 5,0.0733 c 0,-0.83333 -0.88889,-1.5 -2,-1.5 -1.11111,0 -2,0.66667 -2,1.5 0,0.83333 0.88889,1.5 2,1.5 1.11111,0 2,-0.66667 2,-1.5 z m 9,0.13636 c 0,-0.92424 -1.28889,-1.36363 -4,-1.36363 -2.71111,0 -4,0.43939 -4,1.36363 0,0.92425 1.28889,1.36364 4,1.36364 2.71111,0 4,-0.43939 4,-1.36364 z m 4.75047,0.11364 C 438.12044,184.85781 435,184.5888 435,186.42668 c 0,0.92763 0.855,1.57332 2.08333,1.57332 1.22198,0 1.91126,-0.51682 1.66714,-1.25 z M 336,182.5 c 0,-1.08333 -1.11111,-1.5 -4,-1.5 -2.88889,0 -4,0.41667 -4,1.5 0,1.08333 1.11111,1.5 4,1.5 2.88889,0 4,-0.41667 4,-1.5 z m 5,0 c 0,-0.83333 -0.88889,-1.5 -2,-1.5 -1.11111,0 -2,0.66667 -2,1.5 0,0.83333 0.88889,1.5 2,1.5 1.11111,0 2,-0.66667 2,-1.5 z m 5,0 c 0,-0.83333 -0.88889,-1.5 -2,-1.5 -1.11111,0 -2,0.66667 -2,1.5 0,0.83333 0.88889,1.5 2,1.5 1.11111,0 2,-0.66667 2,-1.5 z m 4,0 c 0,-0.825 -0.675,-1.5 -1.5,-1.5 -0.825,0 -1.5,0.675 -1.5,1.5 0,0.825 0.675,1.5 1.5,1.5 0.825,0 1.5,-0.675 1.5,-1.5 z m 26,0 c 0,-0.83333 -0.88889,-1.5 -2,-1.5 -1.11111,0 -2,0.66667 -2,1.5 0,0.83333 0.88889,1.5 2,1.5 1.11111,0 2,-0.66667 2,-1.5 z m 9,0 c 0,-1.08333 -1.11111,-1.5 -4,-1.5 -2.88889,0 -4,0.41667 -4,1.5 0,1.08333 1.11111,1.5 4,1.5 2.88889,0 4,-0.41667 4,-1.5 z m 5,0 c 0,-0.83333 -0.88889,-1.5 -2,-1.5 -1.11111,0 -2,0.66667 -2,1.5 0,0.83333 0.88889,1.5 2,1.5 1.11111,0 2,-0.66667 2,-1.5 z m 4.36163,0 c -0.31659,-0.825 -1.20246,-1.5 -1.96862,-1.5 -0.76615,0 -1.39301,0.675 -1.39301,1.5 0,0.82536 0.8854,1.5 1.96862,1.5 1.33903,0 1.78453,-0.47971 1.39301,-1.5 z M 420,182.5 c 0,-0.825 -0.825,-1.5 -1.83333,-1.5 -1.00834,0 -1.83334,0.675 -1.83334,1.5 0,0.825 0.825,1.5 1.83334,1.5 C 419.175,184 420,183.325 420,182.5 Z m 5,0 c 0,-0.83333 -0.88889,-1.5 -2,-1.5 -1.11111,0 -2,0.66667 -2,1.5 0,0.83333 0.88889,1.5 2,1.5 1.11111,0 2,-0.66667 2,-1.5 z m 9,0 c 0,-1.08333 -1.11111,-1.5 -4,-1.5 -2.88889,0 -4,0.41667 -4,1.5 0,1.08333 1.11111,1.5 4,1.5 2.88889,0 4,-0.41667 4,-1.5 z m 5,0 c 0,-0.83333 -0.88889,-1.5 -2,-1.5 -1.11111,0 -2,0.66667 -2,1.5 0,0.83333 0.88889,1.5 2,1.5 1.11111,0 2,-0.66667 2,-1.5 z m -335,-5.05103 c 0,-3.10683 -0.43379,-3.73227 -3.46788,-5 -4.119329,-1.72116 -11.002162,-1.87828 -15.382897,-0.35114 C 82.342512,173.07625 82,173.62005 82,177.09783 V 181 h 11 11 z m 232,0.94262 c 0,-1.25261 -0.60833,-1.45816 -2.75,-0.92924 -4.51636,1.11541 -5.04879,2.53765 -0.95,2.53765 2.73306,0 3.7,-0.42033 3.7,-1.60841 z m 5,0.10841 c 0,-0.83333 -0.88889,-1.5 -2,-1.5 -1.11111,0 -2,0.66667 -2,1.5 0,0.83333 0.88889,1.5 2,1.5 1.11111,0 2,-0.66667 2,-1.5 z m 4.75047,0.25 C 345.12044,176.85781 342,176.5888 342,178.42668 c 0,0.92763 0.855,1.57332 2.08333,1.57332 1.22198,0 1.91126,-0.51682 1.66714,-1.25 z M 350,179.60699 c 0,-0.21616 -0.675,-0.65203 -1.5,-0.96862 -0.825,-0.31658 -1.5,-0.13972 -1.5,0.39301 0,0.53274 0.675,0.96862 1.5,0.96862 0.825,0 1.5,-0.17686 1.5,-0.39301 z m 35,-1.2293 c 0,-1.3585 -0.84817,-1.55065 -5.05886,-1.14606 -7.64259,0.73436 -8.30792,2.47605 -1.00889,2.64104 5.00126,0.11305 6.06775,-0.14971 6.06775,-1.49498 z m 4.75047,0.37231 C 389.12044,176.85781 386,176.5888 386,178.42668 c 0,0.92763 0.855,1.57332 2.08333,1.57332 1.22198,0 1.91126,-0.51682 1.66714,-1.25 z M 394,179.60699 c 0,-0.21616 -0.675,-0.65203 -1.5,-0.96862 -0.825,-0.31658 -1.5,-0.13972 -1.5,0.39301 0,0.53274 0.675,0.96862 1.5,0.96862 0.825,0 1.5,-0.17686 1.5,-0.39301 z m 26,-0.57561 c 0,-0.53273 -0.675,-0.70959 -1.5,-0.39301 -0.825,0.31659 -1.5,0.75246 -1.5,0.96862 0,0.21615 0.675,0.39301 1.5,0.39301 0.825,0 1.5,-0.43588 1.5,-0.96862 z m 5,-0.6047 c 0,-0.93124 -0.68037,-1.44138 -1.66713,-1.25 C 420.8241,177.66323 420.47962,180 422.91667,180 424.145,180 425,179.35431 425,178.42668 Z m 9,0.0733 c 0,-1.08333 -1.11111,-1.5 -4,-1.5 -2.88889,0 -4,0.41667 -4,1.5 0,1.08333 1.11111,1.5 4,1.5 2.88889,0 4,-0.41667 4,-1.5 z m 4,1.10699 c 0,-0.21616 -0.675,-0.65203 -1.5,-0.96862 -0.825,-0.31658 -1.5,-0.13972 -1.5,0.39301 0,0.53274 0.675,0.96862 1.5,0.96862 0.825,0 1.5,-0.17686 1.5,-0.39301 z M 293.49292,163.01145 c 0.35034,-0.56686 -0.0511,-0.7345 -0.94098,-0.39301 -1.73242,0.66479 -2.04939,1.38156 -0.61096,1.38156 0.51754,0 1.21592,-0.44485 1.55194,-0.98855 z M 48,94.577552 V 87.155104 L 51.425612,86.02455 C 56.831033,84.2406 63.304971,78.694667 66.18684,73.379264 69.514833,67.24102 72,55.340458 72,45.542158 72,38.666667 72.176784,38 74,38 c 1.490418,0 2,-0.666667 2,-2.616524 0,-3.28116 10.77317,-14.306102 14.20698,-14.539001 6.534909,-0.443231 6.935965,-0.221316 16.35836,9.051548 1.45114,1.428108 2.43466,3.548936 2.43466,5.25 0,2.18731 0.46718,2.853977 2,2.853977 1.6882,0 2,0.666667 2,4.276234 0,7.791414 2.04928,20.780445 4.17482,26.461471 2.62614,7.018977 8.53531,13.516426 14.91478,16.399584 l 4.9104,2.219225 0,7.321743 V 102 h 13 13 v -3 c 0,-3.46806 -1.21272,-3.738322 -6.01799,-1.34114 -2.93053,1.461942 -3.62841,1.488703 -5.87908,0.22544 -6.03582,-3.387819 -6.57591,-10.554113 -1.01225,-13.431195 2.76124,-1.42789 3.29214,-1.43229 5.40967,-0.04483 1.29138,0.846143 2.63202,2.433433 2.97921,3.527311 C 159.17553,90.128395 157.52448,94 155.89339,94 c -0.56994,0 -0.3291,-0.707143 0.53518,-1.571429 4.64562,-4.645619 -2.68906,-10.217769 -7.59983,-5.773583 -2.56835,2.324322 -2.27394,5.990721 0.72158,8.986244 2.76397,2.763969 6.33219,2.660216 9.59454,-0.278982 3.86337,-3.480676 2.60639,-11.405286 -2.20362,-13.892635 -3.836,-1.983675 -6.18859,-1.84949 -9.20748,0.525166 -1.89635,1.491676 -3.38058,1.837533 -5.88485,1.371303 -4.59795,-0.856017 -12.77864,-4.991357 -15.15542,-7.661065 -5.8686,-6.591883 -9.40998,-21.978015 -8.27566,-35.955019 l 0.62897,-7.75 -2.90839,0 c -1.99931,0 -3.42074,-0.781945 -4.54754,-2.501652 C 109.26035,25.941514 101.3141,18.718915 98.164953,17.295104 94.429047,15.606001 90.441578,15.723846 86.70034,17.633926 83.116578,19.463606 73,29.28513 73,30.934689 73,31.52061 71.450228,32 69.556062,32 l -3.443939,0 0.584405,10.319822 c 1.310745,23.14601 -5.707801,36.489706 -21.362424,40.614351 -3.639392,0.958899 -4.615855,0.832139 -7.726137,-1.002972 -4.374776,-2.581181 -8.685573,-1.919294 -11.595781,1.780436 -5.825691,7.406166 2.116466,17.908003 9.281095,12.272308 C 38.231217,93.672965 39.037477,88.437477 36.8,86.2 c -1.9935,-1.9935 -6.525317,-1.42177 -8.322829,1.05 -1.501994,2.065402 -1.608197,2.086537 -1.294475,0.257614 0.187969,-1.095813 1.625401,-2.607619 3.194294,-3.35957 2.545355,-1.219957 3.136309,-1.156287 5.487771,0.591258 4.959734,3.685945 3.477315,12.205074 -2.379607,13.675068 -1.605349,0.402917 -3.829972,0.06123 -5.71106,-0.87718 C 23.513495,95.411723 23,95.569061 23,99 v 3 H 35.5 48 Z M 27.979944,92.475834 C 26.141637,90.26081 27.187705,90.006167 29.25,92.166667 30.2125,93.175 30.6051,94 30.122445,94 29.639789,94 28.675664,93.314125 27.979944,92.475834 Z m 5.261582,-0.506347 C 34.282098,90.290554 34.240278,89.773762 33,88.9848 c -0.897247,-0.570753 -1.021421,-0.960328 -0.309017,-0.969487 0.655041,-0.0084 1.471587,0.438714 1.814548,0.993636 C 35.313254,90.315872 34.145955,94 32.924138,94 32.406541,94 32.549365,93.086269 33.241526,91.969487 Z M 151.08199,92.153196 C 150.06798,90.258507 151.32369,88 153.39113,88 c 0.54512,0 0.18022,0.592953 -0.8109,1.317674 -1.6886,1.234735 -1.69613,1.423566 -0.1197,3 C 153.38581,93.242953 153.67655,94 153.10661,94 c -0.56993,0 -1.48101,-0.831062 -2.02462,-1.846804 z M 136,92.948973 c 0,-3.623508 -0.34298,-4.195189 -3.25,-5.417067 -5.97282,-2.5105 -11.66471,-7.453399 -14.69735,-12.763353 -3.28531,-5.752366 -6.04637,-16.209832 -6.06366,-22.965958 C 111.97213,45.210103 110.8734,40 109.5,40 c -0.68107,0 -1.50352,-1.634241 -1.82765,-3.631646 -0.41472,-2.555616 -1.92209,-4.90865 -5.08744,-7.941587 C 93.191933,19.426711 92.430886,19.521317 79.873629,31.25 78.732339,32.315984 78,34.368033 78,36.5 c 0,2.833333 -0.380952,3.5 -2,3.5 -1.764071,0 -2.004116,0.678296 -2.034888,5.75 -0.04855,8.002302 -2.303557,19.841411 -4.951704,25.997194 C 66.421987,77.771115 59.0658,85.123541 53.68265,87.070113 50.21669,88.323421 50,88.65474 50,92.700888 V 97 h 43 43 z M 83.788676,75.251395 c 0.158772,-7.013267 0.751687,-13.930521 1.317589,-15.371675 2.001629,-5.097451 9.426971,-6.437393 13.43919,-2.425175 C 100.88941,59.798503 101,60.471656 101,72.395528 c 0,7.245603 0.41972,12.745841 1,13.104472 2.79622,1.728161 0.0958,2.500129 -8.75,2.501395 l -9.75,0.0014 z M 92,79 c 0,-4.888889 -0.06667,-5 -3,-5 -2.933333,0 -3,0.111111 -3,5 0,4.888889 0.06667,5 3,5 2.933333,0 3,-0.111111 3,-5 z m 8,0 V 74 H 96.5 93 v 5 5 h 3.5 3.5 z M 92,68.5 c 0,-4.218259 -0.172175,-4.506241 -2.75,-4.59968 L 86.5,63.80064 89,63.110774 c 1.753358,-0.483833 2.594502,-1.499362 2.816422,-3.40032 0.203141,-1.740089 -0.154867,-2.704972 -1,-2.695141 -3.824181,0.04448 -6.049799,5.002875 -5.159878,11.495553 C 86.222718,72.641559 86.500534,73 89.135924,73 91.863718,73 92,72.785875 92,68.5 Z m 7.727017,-1.573878 C 99.170996,60.794216 97.088358,57 94.27859,57 91.698477,57 93.179699,62.322882 96,63.186014 c 2.311257,0.707343 2.273508,0.744928 -0.5,0.49783 -2.994867,-0.266819 -2.999407,-0.259077 -2.653487,4.52444 C 93.190392,72.963569 93.219959,73 96.735402,73 h 3.542378 z M 247,84.215608 C 247,82.1012 240.21054,79.555266 234.5,79.528316 228.6304,79.500615 221,82.09248 221,84.113941 221,84.601274 226.85,85 234,85 c 7.15,0 13,-0.352977 13,-0.784392 z M 258.41318,273.5 c 0.001,-9.9 0.1507,-13.81474 0.33256,-8.69942 0.18186,5.11532 0.181,13.21532 -0.002,18 -0.18291,4.78468 -0.3317,0.59942 -0.33065,-9.30058 z M 209,246.51709 c 0,-2.16822 -0.81735,-2.9911 -4.65886,-4.69038 -3.86949,-1.71167 -6.09808,-1.9853 -13.15329,-1.61499 -5.73344,0.30092 -7.71328,0.15095 -6.09115,-0.46141 1.32182,-0.49899 5.7783,-0.74332 9.9033,-0.54296 9.24689,0.44916 15,2.90634 15,6.40659 0,1.31233 0.45,2.38606 1,2.38606 0.55,0 1,-1.13614 1,-2.52475 0,-1.8114 0.74916,-2.80958 2.65148,-3.53284 1.45831,-0.55445 3.14581,-0.83583 3.75,-0.6253 0.60418,0.21054 -0.33697,0.70514 -2.09145,1.09912 -2.49002,0.55914 -3.258,1.30331 -3.5,3.39149 C 212.37988,249.51938 209,250.14867 209,246.51709 Z m 46,-0.43763 c 0,-2.47867 -0.49173,-3.03092 -3.25,-3.65005 -1.7875,-0.40123 -2.75566,-0.90176 -2.15148,-1.1123 2.17995,-0.75963 6.40148,1.61385 6.40148,3.59912 0,1.08116 0.45,2.24385 1,2.58377 0.55,0.33992 1,-0.23878 1,-1.286 0,-4.29976 6.97759,-7.24936 16.89922,-7.14371 3.63043,0.0386 7.47525,0.41255 8.54404,0.83087 1.06879,0.41833 -1.89722,0.55902 -6.59114,0.31265 -7.09755,-0.37252 -9.31878,-0.10097 -13.19326,1.6129 C 259.86621,243.50437 259,244.36282 259,246.44377 259,248.33333 258.4784,249 257,249 c -1.54346,0 -2,-0.66667 -2,-2.92054 z m -32.80902,-6.22978 c 1.26996,-0.35768 6.58402,-0.65032 11.80902,-0.65032 5.225,0 10.53906,0.29264 11.80902,0.65032 1.26996,0.35768 -4.0441,0.65032 -11.80902,0.65032 -7.76492,0 -13.07898,-0.29264 -11.80902,-0.65032 z m -45.79797,-14.43147 c 0.33385,-0.86998 0.60699,-7.16998 0.60699,-14 V 199 h 16.5 16.5 v 12.41821 c 0,6.83002 0.27314,13.13002 0.60699,14 0.53942,1.4057 -1.365,1.58179 -17.10699,1.58179 -15.74199,0 -17.64641,-0.17609 -17.10699,-1.58179 z M 193,217.5 V 212 h -6.93873 -6.93872 l -0.66417,4.429 c -0.3653,2.43595 -0.36631,4.91095 -0.002,5.5 0.36766,0.59489 3.74751,1.071 7.6029,1.071 H 193 Z m 15,0 V 212 h -7 -7 v 5.5 5.5 h 7 7 z M 193,206 v -5 l -7.25,0.006 -7.25,0.006 -0.1012,4.99383 L 178.2976,211 H 185.6488 193 Z m 15,0 v -5 h -7 -7 v 5 5 h 7 7 z m 8.67534,20.34201 c -0.36189,-0.3619 -0.19076,-1.22096 0.38029,-1.90904 0.63017,-0.75931 0.92155,-6.0038 0.74132,-13.34274 L 217.5,198.99854 234.25,198.99927 251,199 v 12.41821 c 0,6.83002 0.27314,13.13002 0.60699,14 0.53919,1.40512 -1.34088,1.58179 -16.83333,1.58179 -9.59218,0 -17.73642,-0.2961 -18.09832,-0.65799 z M 249,217.5 v -5.43372 l -15,-0.006 -15,-0.006 v 5.44509 5.44509 l 15,-0.006 15,-0.006 z m 0,-11.5 v -5 h -15 -15 v 5 5 h 15 15 z m 8.39301,19.41821 c 0.33385,-0.86998 0.60699,-7.16998 0.60699,-14 V 199 h 16.5 16.5 l 0.0136,11.75 c 0.008,6.4625 0.285,12.7625 0.61664,14 l 0.60297,2.25 h -17.72362 c -15.75078,0 -17.65605,-0.17607 -17.11663,-1.58179 z M 274,217.5 V 212 h -7 -7 v 5.5 5.5 h 7 7 z m 15.80226,-0.25 0.30226,-5.25 H 282.55226 275 v 5.54381 5.54381 l 7.25,-0.29381 L 289.5,222.5 Z M 274,206 v -5 h -7 -7 v 5 5 h 7 7 z m 16,0 v -5 h -7.5 -7.5 v 5 5 h 7.5 7.5 z M 175.75,195.31067 c -1.93494,-0.50565 -2.12579,-1.16994 -0.89405,-3.11184 1.13648,-1.79171 6.21087,0.46347 5.45792,2.42563 -0.53341,1.39004 -1.38223,1.51766 -4.56387,0.68621 z m 30.91667,0.0227 c -1.18949,-1.18949 -0.71487,-1.99034 1.88038,-3.17281 3.32973,-1.51713 3.45295,-1.49099 3.45295,0.73249 0,2.39347 -3.69123,4.08243 -5.33333,2.44032 z m 9.54946,-0.17859 c -0.70613,-0.44805 -1.0058,-1.53928 -0.66594,-2.42495 0.50454,-1.31481 1.06128,-1.40831 3.03387,-0.50953 1.32877,0.60542 2.41594,1.70354 2.41594,2.44026 0,1.47977 -2.77829,1.76679 -4.78387,0.49422 z M 247,194.66052 c 0,-0.73672 1.14017,-1.85899 2.53372,-2.49393 2.10233,-0.95789 2.63791,-0.8829 3.14571,0.44041 0.3366,0.87717 -0.0161,1.99254 -0.78371,2.47861 -2.1033,1.3318 -4.89572,1.08933 -4.89572,-0.42509 z m 10.10428,0.43915 c -0.76764,-0.4938 -1.12031,-1.6155 -0.78371,-2.49267 0.50972,-1.32831 1.03976,-1.39994 3.17161,-0.42861 2.65804,1.21108 2.8874,3.13813 0.42495,3.57036 -0.77942,0.13681 -2.0452,-0.15528 -2.81285,-0.64908 z M 288,194.46778 c 0,-2.25011 4.26884,-3.6239 5.36633,-1.72699 0.56368,0.97427 0.38901,1.79978 -0.5,2.36298 C 290.68448,196.48603 288,196.13518 288,194.46778 Z m -108.37024,-5.3244 c -1.41162,-1.55982 -1.46066,-2.03883 -0.30678,-2.99647 1.05999,-0.87971 1.77277,-0.69859 3.12319,0.79361 0.96236,1.0634 1.45411,2.41181 1.09277,2.99647 -0.94631,1.53117 -1.99862,1.31754 -3.90918,-0.79361 z m 23.02166,1.10162 c -0.25664,-0.41525 0.39434,-1.81824 1.44663,-3.11776 1.58757,-1.96057 2.17191,-2.14809 3.43283,-1.10162 1.35383,1.12359 1.33631,1.46365 -0.16064,3.11776 -1.73509,1.91725 -3.90208,2.42314 -4.71882,1.10162 z M 220.75,189.9199 c -2.10477,-1.22592 -2.28894,-3.49911 -0.34396,-4.24547 1.7139,-0.65769 5.04834,2.78136 4.1329,4.26256 -0.80453,1.30176 -1.53023,1.29849 -3.78894,-0.0171 z m 22.88723,0.30214 c -0.78889,-1.27644 2.98731,-5.57212 4.22556,-4.80684 1.75428,1.08421 1.34833,3.40145 -0.79705,4.54962 -2.31725,1.24015 -2.7987,1.27627 -3.42851,0.25722 z m 16.99253,-1.07866 c -1.49695,-1.65411 -1.51447,-1.99417 -0.16064,-3.11776 1.26092,-1.04647 1.84526,-0.85895 3.43283,1.10162 3.07776,3.80087 0.038,5.67382 -3.27219,2.01614 z m 23.8313,0.79361 c -0.36134,-0.58466 0.14452,-1.94867 1.12414,-3.03113 1.59432,-1.76171 1.94067,-1.80856 3.30246,-0.44677 1.3618,1.3618 1.31637,1.67635 -0.43315,2.99933 -2.35725,1.78252 -3.13031,1.87516 -3.99345,0.47857 z m -99.33992,-4.57045 c -0.98147,-2.15409 -0.9661,-2.84785 0.0777,-3.50724 1.52308,-0.96217 4.00697,1.83978 3.58007,4.03849 -0.48921,2.51964 -2.39371,2.24303 -3.65776,-0.53125 z m 13.20149,1.9539 c -0.84874,-0.31624 -0.90185,-1.22905 -0.19026,-3.27032 0.73968,-2.12183 1.47348,-2.70445 2.92737,-2.32425 1.06714,0.27907 1.93025,0.79241 1.91802,1.14076 -0.0521,1.48348 -3.57667,4.85564 -4.65513,4.45381 z m 27.45381,-1.91176 c -0.93733,-2.05721 -0.88459,-2.7238 0.27206,-3.43865 1.64046,-1.01386 2.45561,-0.36987 3.36891,2.66155 0.994,3.29928 -2.18285,3.97732 -3.64097,0.7771 z m 13.43481,1.73969 c -1.9026,-1.20217 0.18737,-6.31637 2.25674,-5.52228 1.85737,0.71274 1.9605,2.41835 0.28201,4.66412 -0.77461,1.03641 -1.74013,1.36278 -2.53875,0.85816 z m 27.804,-1.11987 c -1.38195,-2.5822 -1.27598,-3.71447 0.40812,-4.36072 0.92464,-0.35482 1.77299,0.45676 2.42122,2.31625 0.77499,2.22314 0.68384,2.98295 -0.40811,3.40197 -0.77329,0.29674 -1.86284,-0.31414 -2.42123,-1.3575 z m 13.02984,0.99936 c -2.02087,-1.24896 0.22232,-6.24621 2.42449,-5.40116 1.81915,0.69807 1.84654,1.17709 0.23321,4.07955 -0.86833,1.56218 -1.64419,1.948 -2.6577,1.32161 z M 192,184.58179 c 0,-0.78002 -0.27314,-2.13002 -0.60699,-3 -0.43514,-1.13395 -0.0104,-1.58179 1.5,-1.58179 1.67443,0 2.10699,0.61589 2.10699,3 0,2 -0.5,3 -1.5,3 -0.825,0 -1.5,-0.6382 -1.5,-1.41821 z M 232,183 c 0,-2.33333 0.44444,-3 2,-3 1.55556,0 2,0.66667 2,3 0,2.33333 -0.44444,3 -2,3 -1.55556,0 -2,-0.66667 -2,-3 z m 41,0 c 0,-2.33333 0.44444,-3 2,-3 2.02195,0 2.50298,1.52569 1.39301,4.41821 C 275.32372,187.20474 273,186.23347 273,183 Z m -51.22869,-28.74945 c 0.3479,-17.63277 0.65969,-19.33123 4.16513,-22.68966 5.92297,-5.67456 17.13218,-3.8734 19.90191,3.19795 0.59051,1.50764 1.20596,9.60403 1.36766,17.99198 l 0.29399,15.25082 -13,-2.8e-4 -13,-2.7e-4 z M 234,155.44774 v -8.55226 l -5.10434,0.30226 -5.10434,0.30226 0.0543,7.75 c 0.0299,4.2625 0.0768,7.975 0.10434,8.25 0.0275,0.275 2.3,0.5 5.05,0.5 h 5 z M 245.79044,155.25 246.08088,147 H 240.54044 235 v 8.55226 8.55226 l 5.25,-0.30226 L 245.5,163.5 Z M 234,138 c 0,-9.06228 -1.02567,-9.96995 -6.40348,-5.66678 -2.44003,1.95243 -2.97857,3.22862 -3.37383,7.99503 L 223.75234,146 H 228.87617 234 Z m 12,4.96788 C 246,136.55825 241.3359,130 236.77749,130 235.22229,130 235,131.00048 235,138 v 8 h 5.5 c 5.45739,0 5.5,-0.0235 5.5,-3.03212 z m -48,23.11545 c 0,-0.50416 0.382,-1.06666 0.8489,-1.25 0.46689,-0.18333 3.50439,-4.34185 6.75,-9.24116 l 5.9011,-8.90784 0.29182,8.85576 c 0.1605,4.87067 0.7781,9.4417 1.37244,10.15784 C 214.03673,166.74918 212.68027,167 206.12244,167 201.6551,167 198,166.5875 198,166.08333 Z M 211,157.5 c 0,-3.025 -0.16129,-5.5 -0.35842,-5.5 -0.19713,0 -2.00173,2.475 -4.01021,5.5 l -3.6518,5.5 H 206.98979 211 Z m 44.78339,1.25 c 0.16401,-4.5375 0.39235,-9.13043 0.50741,-10.20651 0.14291,-1.33656 2.08692,0.8815 6.13511,7 3.25925,4.92608 6.29675,9.10651 6.75,9.28984 0.45325,0.18334 0.82409,0.74584 0.82409,1.25 C 270,166.5875 266.73416,167 262.74259,167 h -7.25742 z m 5.85799,-1.23492 C 259.62738,154.48178 257.85245,152 257.69709,152 c -0.15537,0 -0.26327,2.3625 -0.23979,5.25 0.0425,5.22158 0.0616,5.25288 3.5427,5.78244 1.925,0.29284 3.68072,0.41213 3.90159,0.26508 0.22087,-0.14705 -1.24622,-2.74915 -3.26021,-5.78244 z"
       id="path1" />
  </g>
</svg>
