<?xml version="1.0" encoding="UTF-8" standalone="no"?>
<!-- Created with Inkscape (http://www.inkscape.org/) -->

<svg
   version="1.1"
   id="svg1"
   width="767"
   height="548"
   viewBox="0 0 767 548"
   sodipodi:docname="colosseum.svg"
   inkscape:version="1.3 (0e150ed6c4, 2023-07-21)"
   xmlns:inkscape="http://www.inkscape.org/namespaces/inkscape"
   xmlns:sodipodi="http://sodipodi.sourceforge.net/DTD/sodipodi-0.dtd"
   xmlns="http://www.w3.org/2000/svg"
   xmlns:svg="http://www.w3.org/2000/svg">
  <defs
     id="defs1" />
  <sodipodi:namedview
     id="namedview1"
     pagecolor="#505050"
     bordercolor="#ffffff"
     borderopacity="1"
     inkscape:showpageshadow="0"
     inkscape:pageopacity="0"
     inkscape:pagecheckerboard="1"
     inkscape:deskcolor="#505050"
     showgrid="false"
     inkscape:zoom="2.1405109"
     inkscape:cx="383.31969"
     inkscape:cy="274"
     inkscape:window-width="2560"
     inkscape:window-height="1369"
     inkscape:window-x="-8"
     inkscape:window-y="-8"
     inkscape:window-maximized="1"
     inkscape:current-layer="g1" />
  <g
     inkscape:groupmode="layer"
     inkscape:label="Image"
     id="g1">
    <path
       style="fill:#000000;stroke-width:1.08122"
       d="M 7.329584,537.77574 C 6.9647853,536.78181 6.9816722,520.91319 7.3671223,502.51212 L 8.0679263,469.05565 4.362056,465.18107 C -0.70839137,459.8798 -0.75981362,454.90864 4.2030097,449.80666 l 3.546824,-3.64627 0.6477321,-30.43615 c 0.634377,-29.80843 0.6032466,-30.4652 -1.509327,-31.84459 -3.3912672,-2.2143 -6.18277738,-9.90148 -6.20884274,-17.09777 -0.0236862,-6.55361 1.38818924,-10.66965 5.76456844,-16.80482 2.0644082,-2.89407 2.435636,-5.07752 2.9134728,-17.13611 L 9.905053,319.02151 6.9121364,315.44403 C 2.9108552,310.66125 0.65345759,302.18876 0.66872671,292.01113 0.68300185,282.47429 2.3227509,275.0618 6.4720918,265.7765 c 1.586508,-3.55024 3.2815283,-8.19007 3.7667142,-10.31071 0.485186,-2.12065 0.963445,-16.91977 1.0628,-32.88692 l 0.180639,-29.0312 -3.9685539,-4.59269 -3.9685541,-4.59269 0.6489904,-7.84817 C 5.1755173,164.64647 8.5082352,153.48533 15.450831,138.81596 30.447052,107.12965 63.230233,71.631532 103.22575,43.771956 126.87708,27.297201 153.14798,13.71534 165.27437,11.693264 l 4.41933,-0.736922 8.67532,13.538523 c 5.51646,8.608897 11.86605,16.79118 17.43822,22.471481 l 8.76293,8.932955 12.19932,33.166664 c 6.70961,18.241665 12.67332,34.506665 13.25268,36.144435 0.97671,2.76105 1.30705,2.89878 4.53889,1.89239 3.40827,-1.06133 3.6554,-0.89885 11.15179,7.3323 l 7.66629,8.41769 v 28.91064 28.91064 l 8.60485,26.00705 c 4.73268,14.30389 8.93556,26.3964 9.33975,26.87225 0.40417,0.47586 8.19738,-0.008 17.31821,-1.07467 l 16.58335,-1.93988 15.59339,16.27608 15.59338,16.27606 h 12.90803 12.90802 l 0.2969,-13.54305 0.2969,-13.54306 49.16995,-0.33854 c 118.1564,-0.81351 199.12407,8.81026 264.23924,31.40733 42.1172,14.61603 72.44345,34.01552 85.75464,54.85664 l 4.25293,6.65873 -0.2702,95.21902 -0.2702,95.21903 -378.85271,0.27791 C 37.047615,539.56156 7.9419878,539.44429 7.329584,537.77574 Z m 12.36012,-31.41283 v -27.68914 l 2.595485,-2.71363 c 1.427515,-1.4925 3.114573,-2.71364 3.749024,-2.71364 0.634451,0 2.321519,1.22114 3.749034,2.71364 l 2.595475,2.71363 v 27.68914 c 0,23.4744 0.233817,27.68914 1.536059,27.68914 1.295559,0 1.585292,-4.48831 1.850482,-28.666 0.297885,-27.15807 0.43168,-28.83006 2.543376,-31.78472 4.629674,-6.47776 11.292794,-2.66509 13.178636,7.54087 0.489658,2.65 0.911018,15.63881 0.936344,28.86402 0.04378,22.87088 0.144231,24.04583 2.055346,24.04583 1.908851,0 2.03241,-1.39544 2.471747,-27.91528 0.315903,-19.06954 0.897547,-29.14141 1.83554,-31.78472 4.247619,-11.96993 14.523091,-13.55522 19.128126,-2.95108 1.799018,4.14264 2.004072,7.5482 2.024946,33.63025 l 0.02326,29.02083 h 4.170119 4.170119 l 0.323909,-31.78472 c 0.302992,-29.73262 0.464143,-32.0343 2.495919,-35.65041 3.169252,-5.64057 8.611202,-9.16977 13.00804,-8.43594 4.76121,0.79464 8.17918,3.28714 10.44034,7.61343 1.64733,3.15184 1.91134,7.47114 2.19558,35.92014 l 0.32308,32.3375 h 5.15768 5.15767 l 0.33503,-32.89028 c 0.32035,-31.447 0.43742,-33.09036 2.66787,-37.44982 1.28305,-2.50774 3.87639,-5.91749 5.76297,-7.57721 3.10376,-2.73053 4.06226,-2.97558 10.0735,-2.57539 5.586,0.37189 7.17238,0.96201 9.96728,3.70777 6.95569,6.83338 7.23795,8.56053 7.26372,44.44743 l 0.0233,32.3375 h 7.93064 7.93063 l 0.0106,-33.44305 c 0.0106,-32.90219 0.0511,-33.53455 2.52976,-39.10022 6.25847,-14.05288 22.65375,-17.77877 32.818,-7.45801 6.31139,6.40883 6.93839,10.7091 6.93839,47.58805 v 32.41323 h 8.45935 8.45935 l 0.006,-33.44305 c 0.003,-18.39368 0.46929,-35.18431 1.03568,-37.3125 4.52043,-16.98561 28.71559,-23.40063 42.5048,-11.26957 6.86826,6.04235 7.16068,7.95177 7.18647,46.92373 l 0.0227,35.10139 h 9.99052 9.99052 l 0.31931,-35.19094 0.3193,-35.19092 3.20022,-5.40901 c 8.67243,-14.65819 29.09627,-17.1338 40.75871,-4.94044 6.95731,7.27402 7.32586,9.69159 7.32586,48.05421 v 32.6771 h 29.15026 c 27.28491,0 29.112,-0.1238 28.55251,-1.93472 -0.32875,-1.0641 -8.16794,-22.82972 -17.42041,-48.36806 l -16.82268,-46.43333 -13.58032,-0.34487 c -18.8472,-0.47863 -133.75262,1.76374 -160.64844,3.13505 -75.77668,3.86355 -125.540898,10.4562 -180.35486,23.893 l -16.542018,4.05503 -0.629397,3.97812 c -0.346167,2.18797 -0.63463,17.03749 -0.641028,32.99895 l -0.01163,29.02083 h 3.700964 3.700963 z m 8.248412,1.24585 c -0.297981,-24.79644 -0.744063,-29.30703 -2.696967,-27.27037 -0.436185,0.45491 -0.936058,12.72657 -1.110828,27.27037 -0.31528,26.23552 -0.300317,26.44329 1.903892,26.44329 2.20422,0 2.219172,-0.20777 1.903903,-26.44329 z m 19.047127,-1.15812 c -0.292683,-24.37916 -0.544465,-27.82397 -2.156679,-29.50781 -1.003913,-1.04851 -2.134991,-1.5826 -2.513504,-1.18685 -1.705605,1.78325 -2.445682,11.96981 -2.488359,34.25024 l -0.046,24.04583 h 3.767983 3.767983 z m 27.473683,-2.90049 c -0.310173,-30.3059 -0.3278,-30.51511 -2.743038,-32.55846 -3.009286,-2.54591 -5.045049,-1.81166 -7.389366,2.66517 -1.548832,2.9577 -1.861141,7.58537 -2.154712,31.92714 l -0.343333,28.46805 h 6.471305 6.471315 z m 37.222214,-0.73004 c -0.003,-29.09786 -0.14595,-31.47543 -2.08204,-34.79533 -2.23352,-3.82992 -6.72836,-5.73299 -9.39185,-3.97642 -2.804188,1.84937 -5.541717,6.42724 -6.54324,10.94203 -0.52909,2.38517 -0.973343,16.64979 -0.987217,31.69916 l -0.02527,27.3625 h 9.516767 9.51676 z m 46.30987,-2.40856 c -0.29436,-32.12737 -0.40765,-33.7808 -2.51885,-36.75972 -1.21584,-1.71557 -4.19427,-3.85173 -6.61873,-4.74702 -4.0174,-1.48352 -4.7184,-1.45307 -7.9091,0.34344 -7.33692,4.13108 -7.54504,5.23462 -7.90445,41.91352 l -0.32231,32.89028 h 12.79084 12.79083 z m 58.37849,0.15531 c 0,-32.52674 -0.0681,-33.62637 -2.37919,-38.41805 -5.35074,-11.09387 -18.85968,-11.60384 -26.36009,-0.99511 -3.21891,4.55291 -4.04069,13.45095 -4.04069,43.75203 v 29.14632 h 16.38999 16.38998 z m 68.72628,1.14769 c -0.003,-18.83254 -0.462,-34.05457 -1.09805,-36.449 -1.39994,-5.27015 -5.7788,-10.69952 -10.17996,-12.62215 -4.11545,-1.79783 -13.82639,-1.9771 -17.9906,-0.33212 -3.69104,1.45805 -8.41686,6.04964 -10.73743,10.43244 -1.50697,2.84619 -1.80334,8.13909 -2.0893,37.3125 l -0.33323,33.99583 h 21.21724 21.21723 z m 70.85293,-1.76084 c 0,-33.46183 -0.0455,-34.1882 -2.43496,-38.91252 -5.82078,-11.50836 -25.29014,-13.62948 -33.6541,-3.6665 -4.99213,5.94651 -5.15026,7.26374 -5.15026,42.90301 v 33.77435 h 20.61966 20.61966 z m 85.45151,5.63029 c -0.31346,-27.09547 -0.44154,-28.65666 -2.65629,-32.37961 -4.16583,-7.00268 -14.02113,-10.92248 -22.47099,-8.9375 -5.05724,1.18802 -11.42548,5.37361 -12.25562,8.05513 -0.31319,1.01168 4.29019,15.31481 10.22975,31.78472 l 10.7992,29.94531 h 8.34165 8.34163 z m 21.37095,0 c 0.0262,-32.10957 0.48393,-34.4962 7.83035,-40.82741 4.85156,-4.18112 10.15172,-5.88935 18.17586,-5.85804 7.39973,0.0289 13.28347,2.58768 18.06419,7.856 6.30718,6.95047 6.66245,9.06331 6.66245,39.6231 v 27.6744 h 17.03183 c 15.65572,0 16.97558,-0.15323 16.33574,-1.89654 -0.38284,-1.0431 -4.94037,-17.39193 -10.12782,-36.33074 l -9.43172,-34.43421 -0.29515,-15.35397 -0.29515,-15.35398 -19.03353,-0.69336 c -10.46844,-0.38135 -41.51688,-1.06477 -68.99654,-1.5187 l -49.96301,-0.82534 v 3.06475 c 0,2.51765 10.82233,34.32006 12.15226,35.71053 0.21883,0.22878 1.97559,-0.80931 3.90392,-2.30689 4.84236,-3.76064 9.61639,-5.23932 16.91554,-5.23932 10.20228,0 17.73096,4.59637 22.11087,13.49901 1.83361,3.727 2.018,6.73221 2.018,32.89027 v 28.78849 h 8.45934 8.45935 z m 46.30585,1.10555 c -0.38436,-31.73822 -0.86511,-33.68277 -9.75406,-39.45451 -4.1373,-2.68641 -6.13063,-3.24483 -11.53587,-3.23171 -7.4339,0.018 -11.79737,1.94828 -15.88449,7.02668 -4.31321,5.35931 -4.9128,9.90796 -4.91908,37.31787 l -0.006,25.70417 h 21.21538 21.21539 z m 71.04435,-0.38569 c 0,-30.59757 -0.55689,-33.79766 -6.43459,-36.97551 -3.86465,-2.08946 -9.40824,-2.05289 -12.32256,0.0813 -3.80849,2.78902 -4.49394,8.46735 -4.50015,37.27991 l -0.006,27.36253 h 11.6316 11.6316 z m 14.80386,-0.73711 c 0,-25.49371 0.20376,-28.88987 1.94016,-32.3375 5.44303,-10.80717 19.32623,-9.31059 25.05097,2.70045 2.56349,5.37843 2.61658,6.02381 2.61658,31.80608 v 26.31627 h 4.75838 4.75838 v -26.01607 c 0,-28.32883 0.48765,-31.31561 5.83027,-35.70942 3.63536,-2.98975 7.42334,-3.03963 11.94513,-0.15728 6.19526,3.94911 6.90619,7.42877 7.39166,36.1786 l 0.43402,25.70417 h 3.06074 3.06073 l 0.006,-22.94028 c 0.006,-25.12611 0.7466,-29.97766 5.29953,-34.73788 5.84405,-6.11008 14.17331,-2.4091 16.79477,7.4625 0.65876,2.48069 1.15372,14.14822 1.1571,27.27538 l 0.005,22.94028 h 2.58923 2.58922 l 0.31868,-25.89377 c 0.31593,-25.67069 0.34076,-25.91831 2.88218,-28.74444 4.01368,-4.46327 9.62882,-3.70848 12.27946,1.65062 1.22356,2.47382 1.54702,8.34018 1.54702,28.05769 v 24.9299 h 3.17225 3.17226 V 510.2471 c 0,-28.84975 1.24813,-33.87794 7.9715,-32.11367 5.37902,1.41151 6.25858,5.62631 6.65131,31.87279 0.2026,13.53936 0.78278,24.04583 1.32784,24.04583 0.54873,0 0.98798,-8.73957 1.01409,-20.17639 0.0628,-27.51552 1.57023,-34.25738 7.23908,-32.37625 4.25149,1.41079 4.82868,4.51255 5.45902,29.33597 l 0.60359,23.76945 0.25903,-21.00556 c 0.29354,-23.80385 1.20627,-28.55362 5.58887,-29.08395 5.53778,-0.67012 6.1824,2.15745 6.1824,27.11884 0,14.20822 0.38723,22.41789 1.05741,22.41789 0.68294,0 1.05742,-12.53875 1.05742,-35.40514 v -35.40514 l -2.9079,-1.1752 c -6.61731,-2.67435 -32.0875,-8.79051 -49.66378,-11.92576 -44.04015,-7.85589 -103.5484,-13.72952 -154.41794,-15.24149 l -23.52755,-0.6993 v 11.85966 c 0,11.68459 0.14878,12.40038 10.07906,48.48707 5.54349,20.14507 10.30187,36.86035 10.57419,37.14505 0.27231,0.28471 0.49511,-12.6324 0.49511,-28.70469 0,-32.80436 0.43969,-35.08507 7.49161,-38.85973 8.80896,-4.71514 18.76379,-0.58106 23.28979,9.6719 1.73241,3.92451 1.95474,7.56404 1.97535,32.33749 l 0.0233,27.91528 h 4.75838 4.75838 z m 24.32062,2.46923 c 0,-29.49052 -0.55222,-32.41341 -6.70319,-35.48013 -4.58068,-2.28382 -8.51918,-1.3556 -10.99519,2.59131 -1.63033,2.59884 -1.90702,6.47527 -2.20837,30.93799 l -0.3445,27.9669 h 10.12562 10.12563 z m 34.70075,0.11364 c -0.31375,-24.28436 -0.4733,-26.09723 -2.55404,-29.02083 -1.43512,-2.01645 -3.37582,-3.23919 -5.49195,-3.4602 -2.76731,-0.28902 -3.56739,0.22303 -5.18227,3.31667 -1.65291,3.16652 -1.95674,7.11479 -2.25952,29.36262 l -0.34982,25.70417 h 8.08614 8.08614 z m 30.67963,2.40938 c -0.29744,-17.92233 -0.76117,-24.25533 -1.95565,-26.70775 -2.11813,-4.34875 -4.72804,-5.96832 -7.11721,-4.41656 -4.24204,2.75518 -4.92666,6.72667 -5.36529,31.12431 l -0.42236,23.49305 h 7.6252 7.62521 z m 21.52162,2.76388 c 0.213,-22.79414 0.15652,-25.09958 -0.70408,-28.74444 -0.70457,-2.984 -4.17564,-3.3392 -5.40188,-0.55278 -0.46829,1.0641 -1.03526,12.75535 -1.25994,25.98056 l -0.4085,24.04583 h 3.79035 3.79035 z m 20.95466,-1.86275 c 0,-23.43447 -1.00423,-31.06969 -3.4993,-26.6053 -0.80106,1.43334 -1.36984,10.47495 -1.61694,25.70417 l -0.3812,23.49305 h 2.74872 2.74872 z m 14.80386,-0.072 c 0,-14.37222 -0.38686,-22.66389 -1.05742,-22.66389 -0.67056,0 -1.05742,8.29167 -1.05742,22.66389 0,14.37222 0.38686,22.66389 1.05742,22.66389 0.67056,0 1.05742,-8.29167 1.05742,-22.66389 z m 13.74643,1.72358 c 0,-12.76766 -0.41269,-21.20697 -1.05742,-21.62358 -0.69118,-0.44662 -1.05741,6.80611 -1.05741,20.94031 0,13.67868 0.38851,21.62358 1.05741,21.62358 0.66773,0 1.05742,-7.71714 1.05742,-20.94031 z M 26.178498,459.4967 C 101.96394,440.53673 171.46911,434.00226 311.27279,432.69386 l 72.16879,-0.67543 v -10.34152 -10.34152 l -9.25241,0.0133 c -20.79321,0.0297 -91.66151,2.28788 -121.33874,3.86639 C 161.98591,420.048 83.856709,429.26981 40.867972,440.23592 18.24581,446.00666 5.9432664,451.9651 5.9432664,457.15085 c 0,2.58482 2.4248926,6.14565 4.1851346,6.14565 0.473998,0 7.696545,-1.70991 16.050097,-3.7998 z M 761.99731,404.65801 c 0,-60.77745 0.97057,-55.56937 -13.09893,-70.28854 -35.58273,-37.22581 -115.11672,-61.81213 -228.52114,-70.64266 -26.67915,-2.07744 -85.59641,-3.47835 -124.511,-2.96056 l -28.28593,0.37636 v 10.97417 10.97417 h 47.58382 47.58382 l 0.0602,24.04584 0.0603,24.04583 4.43381,13.12417 4.43381,13.12417 3.91057,0.36089 c 7.75233,0.71543 14.55705,6.68071 16.66255,14.60704 0.60069,2.26132 1.09482,10.95213 1.09806,19.31289 l 0.006,15.20139 h 5.28709 5.2871 v -14.72434 c 0,-21.27505 2.95848,-30.35807 11.22374,-34.45874 5.60673,-2.78169 15.2907,-1.90821 18.99866,1.71364 5.96333,5.82484 6.22964,7.24261 6.60943,35.18698 0.38461,28.29952 0.50967,27.71172 -5.90235,27.74331 -3.10991,0.0153 -3.43661,0.33222 -3.43661,3.33359 v 3.31667 h 10.57418 10.57418 v -27.68293 c 0,-25.26516 0.1801,-28.05203 2.0621,-31.90898 6.27727,-12.86461 25.6069,-8.80323 29.59687,6.21864 0.62675,2.35967 1.11177,15.35612 1.1151,29.88021 l 0.006,25.70417 h 4.75839 4.75838 v -27.6744 c 0,-21.01746 0.35071,-28.55198 1.45799,-31.32271 4.57434,-11.44631 18.91803,-11.21724 25.449,0.40643 1.9976,3.55528 2.21447,6.17379 2.70072,32.61012 l 0.52871,28.74445 4.49403,0.33996 4.49402,0.33995 0.0233,-27.42606 c 0.0207,-24.51707 0.23554,-27.91498 2.02494,-32.03549 2.23547,-5.14766 4.73878,-6.99891 9.46417,-6.99891 5.0369,0 8.56396,2.28244 11.01429,7.12758 2.1156,4.18328 2.29229,6.40738 2.66149,33.50158 l 0.3954,29.02083 h 3.0695 3.06949 l 0.006,-25.15139 c 0.006,-27.44375 0.67649,-32.11548 5.29953,-36.94899 3.37068,-3.52411 6.07087,-3.89391 10.59045,-1.45034 6.34203,3.42889 6.80429,5.84974 7.16976,37.54808 0.23781,20.62692 0.68487,28.95752 1.58613,29.55668 3.73254,2.48144 3.89852,1.39578 3.89852,-25.50166 0,-25.62128 0.0685,-26.47647 2.41294,-30.12639 3.21259,-5.00143 7.69225,-5.59684 11.36678,-1.51076 2.60698,2.89896 2.61093,2.93898 3.13897,31.83675 l 0.52871,28.93413 2.9079,0.34982 2.9079,0.34982 0.006,-23.56648 c 0.006,-25.87037 0.79896,-31.28152 4.86499,-33.21846 2.27586,-1.08417 2.98567,-0.878 5.29689,1.53842 3.9376,4.11686 4.58301,8.99613 4.61085,34.85802 0.0138,12.8853 0.45587,23.70609 0.98221,24.04619 0.55641,0.35952 1.10968,-9.93095 1.32178,-24.58386 0.31628,-21.85111 0.61408,-25.59978 2.23964,-28.19202 2.39121,-3.81318 5.4902,-3.81364 7.88189,-10e-4 1.62581,2.59166 1.94339,6.59347 2.39077,30.12639 l 0.51592,27.13774 0.5415,-24.92744 c 0.46445,-21.38008 0.80831,-25.35262 2.41636,-27.91527 2.23137,-3.556 4.24467,-3.77584 7.1132,-0.77673 1.99974,2.09078 2.11483,3.68518 2.11483,29.29722 0,17.32037 0.38124,27.08611 1.05742,27.08611 0.68996,0 1.05742,-18.07209 1.05742,-52.00516 z m -86.70829,-70.39905 c -2.61711,-0.96226 -5.10798,-2.29683 -5.53526,-2.96572 -0.42728,-0.6689 -0.78416,-7.57491 -0.79306,-15.3467 -0.0188,-16.39898 0.15127,-16.65652 8.7448,-13.24259 l 5.51415,2.19059 v 15.34002 c 0,17.29496 0.16604,17.00135 -7.93063,14.0244 z m 4.22967,-14.64578 c 0,-8.66732 -0.25668,-10.05472 -2.04532,-11.05556 -1.12493,-0.62944 -2.31452,-1.14445 -2.64355,-1.14445 -0.32902,0 -0.59822,4.6848 -0.59822,10.41066 0,7.29407 0.39568,10.57757 1.32177,10.96827 3.64542,1.53791 3.96532,0.79741 3.96532,-9.17892 z m -73.49057,-10.68822 c -1.16316,-0.27078 -3.18547,-0.73118 -4.49403,-1.02312 -2.30554,-0.51436 -2.37919,-0.93794 -2.37919,-13.68427 0,-9.24662 0.37683,-13.28479 1.2687,-13.59562 1.78152,-0.62087 11.66965,1.45537 13.30396,2.79348 0.99061,0.81107 1.27494,4.4095 1.05742,13.38272 l -0.29751,12.27336 -3.17226,0.17287 c -1.74474,0.0951 -4.12393,-0.0486 -5.28709,-0.31942 z m 3.48109,-13.39651 c -0.28581,-7.9293 -0.48621,-8.59439 -2.68803,-8.92133 -2.28348,-0.33908 -2.37919,-0.024 -2.37919,7.83101 0,8.75907 0.31593,9.65838 3.39297,9.65838 1.79514,0 1.95382,-0.81201 1.67425,-8.56806 z m -98.47249,4.51435 c -0.38772,-0.40536 -0.70495,-6.62411 -0.70495,-13.81944 v -13.08241 h 7.84415 c 11.76672,0 11.18938,-0.74767 11.18938,14.49051 v 13.14838 h -8.81182 c -4.8465,0 -9.12905,-0.33167 -9.51676,-0.73704 z m 13.87903,-12.80601 0.30884,-8.56806 h -4.80287 -4.80286 v 8.90801 8.90802 l 4.49403,-0.33996 4.49403,-0.33996 z M 755.6528,430.68261 c 0,-14.56674 -0.40581,-23.90118 -1.05742,-24.32222 -0.69304,-0.44782 -1.05741,7.93341 -1.05741,24.32222 0,16.38881 0.36437,24.77004 1.05741,24.32222 0.65161,-0.42104 1.05742,-9.75548 1.05742,-24.32222 z m -13.74643,-4.42222 c 0,-15.84629 -0.38381,-24.875 -1.05742,-24.875 -0.67362,0 -1.05742,9.02871 -1.05742,24.875 0,15.84629 0.3838,24.875 1.05742,24.875 0.67361,0 1.05742,-9.02871 1.05742,-24.875 z m -14.84133,-3.04028 c -0.0277,-18.1758 -0.39986,-25.28197 -1.42538,-27.21583 -1.29683,-2.44548 -1.44549,-2.48175 -2.2654,-0.55278 -1.013,2.38329 -2.0703,48.27351 -1.1688,50.72974 0.33056,0.90062 1.56761,1.63748 2.74903,1.63748 2.09585,0 2.14711,-0.5975 2.11055,-24.59861 z M 705.78225,391.6242 c -0.88383,-4.64327 -1.60037,-5.37843 -3.81723,-3.91641 -2.85107,1.88028 -3.47226,8.22544 -3.16935,32.37387 l 0.28526,22.74179 3.17225,0.57564 3.17226,0.57564 0.52871,-24.33495 c 0.29079,-13.38422 0.21343,-25.99123 -0.1719,-28.01558 z M 19.336684,441.22456 C 62.198373,424.19199 199.12981,409.46478 336.91518,407.06842 l 40.7106,-0.70803 v -7.73889 -7.73889 l -39.65318,0.23518 c -132.94357,0.78845 -241.202435,15.17649 -312.202742,41.493 -11.847366,4.39128 -12.424664,4.74882 -12.424664,7.69548 0,1.69963 0.11896,3.08997 0.264355,3.08968 0.145395,-3.1e-4 2.722608,-0.97744 5.727135,-2.17139 z M 684.63749,413.27011 c -0.33171,-24.67456 -0.53357,-27.11788 -2.53452,-30.67916 -1.52115,-2.70732 -2.93246,-3.86945 -4.69912,-3.86945 -1.76666,0 -3.17796,1.16213 -4.69911,3.86945 -2.02685,3.60735 -2.17411,5.62554 -2.17411,29.79577 v 25.92631 l 2.64355,0.77321 c 1.45395,0.42525 4.70908,0.82278 7.23364,0.88339 l 4.59009,0.11022 z m -30.55652,-3.31666 c -0.0662,-29.71358 -0.67205,-33.56584 -5.67306,-36.06876 -3.66753,-1.83553 -5.6953,-0.86559 -8.0137,3.83323 -1.28306,2.60046 -1.58612,8.39005 -1.58612,30.3008 v 27.08611 l 4.75838,0.66313 c 2.61711,0.36471 6.06694,0.73783 7.66628,0.82916 l 2.9079,0.16605 z m -34.83512,-3.66574 c 0,-27.9696 -0.20012,-29.48718 -4.54614,-34.47593 -2.59794,-2.98215 -9.22833,-3.40581 -11.76673,-0.75185 -2.87206,3.00281 -3.24937,6.9734 -3.24937,34.1949 v 26.53334 l 6.34451,0.64331 c 3.48948,0.35382 7.89098,0.72695 9.78112,0.82916 l 3.43661,0.18586 z M 17.644382,430.09094 c 1.92706,-1.07828 2.045322,-2.55168 2.045322,-25.48268 0,-19.19821 0.326721,-24.99879 1.547024,-27.46602 2.423803,-4.90049 5.728595,-5.73891 9.027158,-2.29018 1.984192,2.07452 2.114836,3.68518 2.114836,26.07268 0,18.59691 0.291626,23.76035 1.321773,23.40277 0.985197,-0.34197 1.456404,-6.91075 1.850482,-25.79629 0.443936,-21.27488 0.82356,-25.90104 2.367602,-28.8522 3.221403,-6.15717 8.987463,-6.15717 12.149736,0 1.485831,2.89301 1.877065,7.47473 2.211812,25.9022 0.223676,12.31313 0.794745,22.3875 1.26905,22.3875 4.097591,0 4.207583,-0.63367 4.207583,-24.23984 0,-25.59921 1.133732,-32.51762 5.982123,-36.50497 5.577437,-4.58693 13.052855,-1.45 15.123925,6.3465 0.598372,2.25254 1.0906,13.67241 1.093847,25.37748 l 0.0063,21.28194 h 2.55707 c 6.084459,0 5.902276,0.83245 5.902276,-26.97013 0,-24.39775 0.114212,-25.86171 2.379191,-30.49616 6.108547,-12.49891 17.683368,-12.49891 23.791918,0 2.24189,4.58721 2.37919,6.19562 2.37919,27.87161 v 23.00347 l 2.64354,-0.57384 c 1.45395,-0.31561 3.83314,-0.83206 5.28709,-1.14767 l 2.64355,-0.57384 v -24.65328 c 0,-31.58834 1.26849,-36.65596 10.67645,-42.65254 9.03647,-5.75979 21.06314,0.12527 24.17182,11.8281 0.60068,2.26133 1.09481,14.43463 1.09805,27.05179 l 0.006,22.94027 2.3792,-0.01 c 1.30855,-0.006 4.87734,-0.32333 7.93063,-0.70677 l 5.55145,-0.69716 0.006,-25.55017 c 0.003,-14.60025 0.4867,-27.36048 1.12778,-29.77426 1.52224,-5.73144 7.51746,-12.38351 13.20883,-14.65602 9.59642,-3.83174 20.413,0.68166 25.00913,10.43546 2.26542,4.8076 2.43736,6.69935 2.75222,30.27937 l 0.33584,25.15138 2.83641,-0.01 c 1.56003,-0.006 5.33457,-0.32333 8.38787,-0.70677 l 5.55144,-0.69716 v -25.86207 c 0,-20.87967 0.31638,-26.65394 1.64223,-29.9724 6.28411,-15.72852 28.32596,-20.98324 41.26028,-9.83633 7.20164,6.20643 7.80409,9.08742 7.83035,37.44548 0.0128,13.79738 0.44981,25.3618 0.97121,25.6987 0.52139,0.33691 3.1385,0.29865 5.8158,-0.085 l 4.86737,-0.69691 v -41.30805 -41.30807 h -2.39724 c -5.10832,0 -37.05286,2.32988 -54.17464,3.95125 -92.28657,8.73914 -170.556554,30.3068 -219.680749,60.53406 l -9.982356,6.14237 -0.691393,10.18377 c -1.131459,16.66579 -0.848948,47.43299 0.43554,47.43299 0.619816,0 2.047331,-0.515 3.172255,-1.14445 z M 579.6038,377.42401 c -1.49824,-8.68348 -13.43097,-13.51671 -18.99891,-7.69528 -3.36428,3.51742 -3.92924,9.45539 -3.53788,37.18444 l 0.31987,22.66389 11.10289,0.55277 11.10289,0.55278 0.30825,-24.875 c 0.16955,-13.68125 0.0359,-26.45386 -0.29711,-28.3836 z M 27.930809,405.79337 c 0.339558,-22.35417 -0.1965,-28.73739 -2.234705,-26.61004 -0.856837,0.8943 -1.355188,8.59335 -1.589945,24.5629 -0.323676,22.01793 -0.238955,23.23961 1.586127,22.87299 1.769272,-0.35543 1.953623,-2.07055 2.238523,-20.82585 z m 499.108061,12.45174 -0.31712,-6.35694 -68.99654,-0.2844 -68.99654,-0.28439 v 5.53578 5.53578 l 12.95338,0.14649 c 7.12435,0.0806 27.70435,0.48462 45.73333,0.89791 18.02899,0.41329 43.39112,0.84488 56.36029,0.95908 l 23.58033,0.20764 z m -482.235483,2.34346 c 2.365825,-0.66288 2.379191,-0.78969 2.379191,-22.57682 0,-21.54442 -0.839125,-28.201 -3.443113,-27.31322 -2.586508,0.88184 -3.788983,10.32183 -3.873714,30.41047 -0.09009,21.35639 -0.200856,20.91932 4.937636,19.47957 z m 490.883203,-26.1129 c -0.0202,-19.5174 -0.27807,-22.97428 -2.0111,-26.96458 -2.49749,-5.75048 -7.61501,-8.00218 -13.79039,-6.06777 -8.43616,2.6426 -10.5017,8.45259 -10.56434,29.71568 l -0.0464,15.75417 h 11.10289 11.10289 v 4.975 c 0,4.23796 0.31332,4.975 2.11484,4.975 2.04598,0 2.11408,-0.72895 2.09162,-22.3875 z m -465.709056,18.93959 4.697919,-1.23681 v -23.57654 c 0,-23.25255 -0.03468,-23.61868 -2.522429,-26.64255 -2.27107,-2.76047 -2.708883,-2.90433 -4.393467,-1.44359 -4.064388,3.52429 -4.715704,7.86619 -4.715704,31.43689 0,15.21439 0.368616,22.6994 1.117881,22.6994 0.614836,0 3.231946,-0.55656 5.8158,-1.2368 z m 34.569986,-7.65649 7.13757,-1.28369 -0.002,-23.37956 c -0.002,-26.03842 -0.83384,-30.05542 -6.66303,-32.16971 -3.37916,-1.22564 -5.372846,-0.28186 -8.420674,3.98619 -3.219881,4.50902 -3.896396,10.26737 -3.922958,33.39186 l -0.02474,21.95457 2.379191,-0.60798 c 1.308555,-0.3344 5.591091,-1.18564 9.516761,-1.89168 z m 288.59077,-25.10254 c 0.30843,-21.97366 0.6022,-25.64027 2.32507,-29.02084 4.9945,-9.79999 11.51823,-13.73115 22.87302,-13.78313 9.42305,-0.0431 16.42849,2.96481 20.77228,8.91907 5.02284,6.88506 5.56695,10.32824 5.61677,35.54323 l 0.0464,23.49305 h 18.98889 18.9889 l -5.77117,-17.13611 c -3.17413,-9.42486 -8.4917,-24.97173 -11.81681,-34.54861 l -6.04563,-17.4125 -0.56323,-24.32222 -0.56322,-24.32222 -60.5372,-0.28544 -60.53719,-0.28544 v 49.20627 49.20627 h 22.73449 22.73449 v 9.95 9.95 h 5.20054 5.20056 z m 46.13736,-0.0891 -0.31961,-25.24043 -3.0495,-4.17712 c -3.85716,-5.28342 -10.13961,-8.3031 -17.33977,-8.3344 -6.66807,-0.029 -11.37728,1.88685 -15.23132,6.19651 -4.67189,5.22422 -5.09001,7.94316 -5.09001,33.09846 v 23.69747 h 20.67491 20.67492 z m 47.13625,-9.71033 c -1.94138,-4.27739 -4.6022,-6.49536 -9.21603,-7.68213 -3.82557,-0.98402 -3.92272,-1.52094 4.0569,22.42429 l 6.34451,19.03863 0.29446,-14.93576 c 0.23953,-12.1496 -0.0365,-15.66501 -1.47984,-18.84503 z m -342.6781,28.28852 c 4.18246,-0.62397 9.15095,-1.39276 11.04109,-1.70842 l 3.4366,-0.57392 v -24.32702 c 0,-20.14599 -0.29222,-24.93513 -1.70028,-27.86518 -2.46994,-5.13973 -5.61704,-7.3549 -10.48909,-7.38301 -5.38061,-0.0311 -8.65314,2.35398 -11.16503,8.13718 -1.7432,4.01341 -1.97994,7.52865 -2.00041,29.70351 -0.0203,22.04936 0.18002,25.15139 1.62471,25.15139 0.90636,0 5.06994,-0.51054 9.25241,-1.13453 z m 62.44034,-7.28699 10.19536,-0.74929 -0.0233,-24.43543 c -0.0206,-21.70269 -0.25026,-24.95834 -2.05335,-29.1112 -5.26126,-12.11765 -21.00383,-12.0565 -27.67083,0.10746 -2.40322,4.38467 -2.51854,5.60815 -2.86923,30.44097 l -0.36538,25.8727 6.29564,-0.68798 c 3.46262,-0.37838 10.88357,-1.02515 16.49101,-1.43726 z m 61.21579,-4.37341 17.71175,-0.7401 v -22.59293 c 0,-26.54799 -0.76003,-30.87949 -6.34371,-36.15366 -10.13997,-9.57788 -26.88454,-6.34405 -33.66216,6.50106 -1.44162,2.73221 -1.81355,7.5651 -2.11056,27.42518 -0.1983,13.25967 -0.0825,24.86617 0.25741,25.79221 0.42785,1.16572 1.51284,1.5029 3.52673,1.09602 1.59984,-0.32322 10.87907,-0.92073 20.62054,-1.32778 z m 62.71552,-5.72313 c -5.94768,-17.25764 -23.03847,-65.01856 -23.40243,-65.39909 -0.24913,-0.26048 -0.45297,15.28058 -0.45297,34.53566 v 35.00926 h 12.64211 12.64211 z M 16.771568,366.31266 c 37.507333,-25.36792 103.920542,-47.29891 176.334732,-58.2293 31.14791,-4.70155 78.42412,-9.49514 93.95702,-9.5268 3.28295,-0.007 7.75339,-0.32054 9.93432,-0.69743 l 3.96532,-0.68526 v -20.43692 -20.43691 l -7.13758,0.76064 c -26.49586,2.82364 -67.86057,9.46645 -97.30664,15.6266 -91.65875,19.17512 -167.625406,52.41951 -187.0031764,81.83599 -3.4375504,5.21839 -4.0151017,6.94732 -3.9544799,11.83789 0.039019,3.14986 0.7137996,7.21951 1.4994402,9.04368 l 1.4284452,3.31666 0.3853443,-3.6641 c 0.3331502,-3.1678 1.4028136,-4.35226 7.8972546,-8.74474 z m 302.180452,-93.69965 -12.70197,-13.28022 -0.0161,19.89436 -0.0161,19.89436 12.44074,35.19776 12.44073,35.19775 0.2773,-41.81191 0.27731,-41.81189 z M 19.689704,311.58778 c 0,-26.58598 0.654573,-30.00515 6.013442,-31.41137 2.162357,-0.56741 3.245153,-0.16421 4.739148,1.7648 1.724892,2.22712 1.936428,4.79165 1.936428,23.47546 0,16.28777 0.29539,20.8727 1.321773,20.51652 0.988242,-0.34295 1.455188,-7.13126 1.850482,-26.90185 0.558074,-27.91187 0.887735,-29.80217 5.782101,-33.15507 3.044127,-2.0854 5.905025,-0.88927 8.7574,3.66139 1.561765,2.49164 1.909021,6.26842 2.225665,24.20682 l 0.375193,21.25458 2.464725,-1.17413 2.464736,-1.17413 0.332336,-26.11186 c 0.321963,-25.29666 0.414868,-26.28434 2.975882,-31.63611 4.478696,-9.35917 11.098504,-10.78983 16.281969,-3.51882 2.069811,2.90338 2.245068,4.74918 2.54548,26.80972 0.177446,13.03042 0.476219,23.69167 0.663932,23.69167 0.187713,0 2.034156,-0.73952 4.103195,-1.64338 l 3.761903,-1.64337 0.332548,-26.82468 c 0.311504,-25.12656 0.479232,-27.11125 2.649456,-31.35158 1.274284,-2.48979 4.026913,-6.09666 6.116943,-8.01527 6.914019,-6.34695 16.117659,-3.79318 18.488009,5.12996 0.59837,2.25255 1.0906,14.62168 1.09383,27.48695 l 0.006,23.39141 5.28709,-1.7677 5.28709,-1.76772 v -24.60956 c 0,-13.53526 0.5101,-27.09635 1.13355,-30.13577 3.78039,-18.42977 21.98263,-23.9373 32.07789,-9.70593 2.06803,2.91531 2.23401,4.77744 2.54906,28.59721 l 0.33699,25.47885 3.89268,-0.67224 c 2.14098,-0.36973 5.67708,-1.19748 7.85801,-1.83945 l 3.96531,-1.16722 v -25.52393 c 0,-16.52129 0.44339,-27.07118 1.25706,-29.91062 0.69138,-2.41268 3.35201,-6.82285 5.91251,-9.80039 8.74604,-10.17053 21.44224,-11.06114 29.22852,-2.05029 2.0037,2.3188 4.14792,6.11683 4.76496,8.44008 0.62492,2.3529 1.1245,14.44066 1.12778,27.2874 l 0.006,23.06331 3.96532,-0.71362 c 2.18092,-0.3925 5.2797,-0.98622 6.88616,-1.3194 l 2.92083,-0.60579 -0.27729,-40.53835 -0.27818,-40.53835 -3.17226,0.35985 c -7.802,0.88502 -40.55754,8.28162 -54.98575,12.41647 -51.77781,14.8385 -99.233506,37.22876 -130.345068,61.49865 -10.903959,8.50608 -24.426753,22.88175 -27.935785,29.69768 -2.781697,5.40317 -2.85561,6.06478 -3.57825,32.03056 l -0.737888,26.51345 2.785198,-2.68021 2.785187,-2.68022 z m 7.190444,18.82095 c 0.896955,-0.93779 1.264154,-7.33808 1.252712,-21.83472 -0.01576,-19.89879 -0.699027,-25.34846 -2.759533,-22.00803 -1.223877,1.98411 -1.881063,45.16941 -0.687386,45.16941 0.508915,0 1.496311,-0.597 2.194207,-1.32666 z m 20.30243,-33.65108 c 0,-19.85274 -0.833965,-26.93336 -3.172255,-26.93336 -0.394872,0 -1.360982,1.36812 -2.146897,3.04028 -1.011304,2.15169 -1.555875,9.75543 -1.863245,26.0162 l -0.434303,22.97593 3.808355,-1.89874 3.808345,-1.89875 z M 13.581855,280.87984 C 37.920821,238.68551 126.09382,193.72171 219.28141,175.98338 l 15.59291,-2.96812 0.28821,-20.13993 c 0.16998,-11.87849 -0.11472,-20.13992 -0.69406,-20.13992 -1.89431,0 -39.91978,12.06669 -54.04902,17.15147 -33.52835,12.06608 -73.26396,30.93027 -98.176065,46.60839 -57.502574,36.18852 -86.8646468,80.39889 -74.0326121,111.47068 1.2546373,3.03802 1.4172471,2.24851 1.9355301,-9.39722 0.502327,-11.2872 0.88784,-13.27216 3.435552,-17.68889 z m 60.857783,-0.077 c 0.303733,-24.56902 -0.269356,-28.66739 -4.008651,-28.66739 -0.974749,0 -2.492388,0.87062 -3.372551,1.93472 -3.353126,4.05391 -4.014583,9.40555 -4.014583,32.48092 v 23.03014 l 5.551445,-2.54298 5.551446,-2.54297 z m 28.458782,12.56306 8.78667,-2.99176 v -25.80293 -25.80293 l -2.59548,-2.71363 c -1.42752,-1.4925 -2.97399,-2.71179 -3.43661,-2.70951 -2.66849,0.0132 -7.755077,4.9019 -9.948279,9.56145 -2.380798,5.05807 -2.543376,6.71142 -2.891447,29.40525 -0.202844,13.22521 0.0063,24.04583 0.464841,24.04583 0.458508,0 4.787641,-1.34629 9.620305,-2.99177 z m 44.47454,-14.15195 10.83853,-3.0712 v -24.77243 c 0,-26.83234 -0.45438,-29.40157 -5.72101,-32.3485 -6.15251,-3.44262 -12.76867,-0.83875 -17.01348,6.69586 -1.93019,3.42613 -2.14397,6.10757 -2.44845,30.71148 -0.31682,25.60097 -0.237,26.92989 1.58613,26.40679 1.05586,-0.30293 6.79708,-1.93284 12.75828,-3.622 z m 50.49172,-12.16078 c 7.56054,-1.51944 14.81707,-3.01949 16.12563,-3.33346 l 2.37919,-0.57083 -0.0173,-24.57755 c -0.0166,-23.45991 -0.12606,-24.77865 -2.40687,-28.99977 -3.13997,-5.81117 -9.063,-8.24378 -15.30874,-6.28732 -5.82503,1.82467 -9.16454,4.87129 -12.04673,10.99023 -2.33053,4.94776 -2.49234,6.6819 -2.83631,30.39848 -0.20064,13.83326 -0.20064,25.14946 0,25.14711 0.20063,-0.002 6.55068,-1.24745 14.11122,-2.76689 z m 56.27551,-10.04818 c 6.26959,-0.97009 11.50801,-1.87151 11.64093,-2.00313 0.13292,-0.13164 -3.55483,-11.61984 -8.19499,-25.52935 l -8.43667,-25.28999 v -29.15456 -29.15455 l -4.73387,-5.18703 -4.73387,-5.18703 -0.0245,61.63471 c -0.0213,53.49676 0.18069,61.63472 1.52961,61.63472 0.85476,0 6.68378,-0.79371 12.95337,-1.76379 z M 20.218413,243.1701 c 5.223931,-7.3953 22.623114,-24.40776 34.079416,-33.32195 34.86583,-27.12926 82.593511,-50.98596 141.887141,-70.92232 10.12618,-3.40473 18.92918,-6.19804 19.56224,-6.20735 4.53831,-0.0668 4.02033,-1.76449 -13.69275,-44.88019 -9.71482,-23.646991 -18.07528,-43.460558 -18.57878,-44.030133 -1.4169,-1.602814 -26.34191,7.451272 -41.09194,14.926772 -17.08807,8.660446 -28.50371,15.950557 -43.703645,27.909417 -31.153603,24.510774 -62.066518,62.243534 -76.647914,93.557564 -5.419533,11.63864 -5.109339,9.10501 -5.862866,47.88766 -0.209697,10.79298 -0.09823,19.61184 0.247785,19.59747 0.345987,-0.0144 2.056573,-2.047 3.801313,-4.51694 z m 18.15235,-43.73285 c -0.387724,-0.40536 -0.704949,-6.26969 -0.704949,-13.03183 v -12.2948 l 5.205649,-5.36079 c 7.645091,-7.87293 8.540788,-6.98245 8.540788,8.49105 v 12.51375 l -5.059059,5.20983 c -4.932285,5.07928 -6.54047,5.98039 -7.982429,4.47279 z m 7.754397,-18.32814 c 0,-6.75366 -0.201925,-7.56367 -1.586128,-6.36259 -1.133457,0.98351 -1.586127,3.58489 -1.586127,9.11518 0,6.75366 0.201935,7.56367 1.586127,6.36259 1.133468,-0.98351 1.586128,-3.58489 1.586128,-9.11518 z m 47.756995,-24.31265 c -1.374242,-1.4368 -1.745417,-28.13833 -0.421339,-30.31055 1.864091,-3.05813 14.237244,-12.37821 15.669964,-11.80338 1.28707,0.51637 1.50015,3.54744 1.25876,17.9053 l -0.29058,17.28369 -7.4931,4.10578 c -5.698389,3.12238 -7.787847,3.79762 -8.723705,2.81916 z m 8.550525,-8.51982 c 2.90481,-1.52231 2.9079,-1.5367 2.9079,-13.55472 v -12.03077 l -3.70093,3.08741 -3.700932,3.0874 -3.2e-5,10.87129 c -2.1e-5,5.97922 0.356847,10.68951 0.793032,10.46732 0.436185,-0.22221 2.101622,-1.08977 3.700962,-1.92793 z m -84.329104,28.95001 c 4.872615,-11.05053 17.200103,-30.88042 27.65854,-44.49124 9.405492,-12.24053 31.278116,-35.121643 42.659774,-44.626745 23.59952,-19.708539 52.62607,-36.588519 77.38614,-45.002829 7.7443,-2.631775 14.23872,-4.892348 14.43206,-5.023496 0.26876,-0.182311 -11.46991,-19.180187 -13.16337,-21.303605 -0.18691,-0.234369 -3.80453,0.73726 -8.03914,2.159176 -18.5713,6.235943 -52.9739,27.466608 -76.955377,47.490988 C 39.940299,101.6171 12.332938,142.87498 9.4840525,174.92336 c -0.5686901,6.39742 -0.3760285,7.93205 1.2285195,9.78577 1.046643,1.20918 2.186106,2.17857 2.532157,2.15422 0.34605,-0.0243 2.532527,-4.36087 4.858847,-9.6367 z M 213.09711,93.924307 C 203.47082,67.895142 199.45066,58.321628 197.0203,55.639473 c -1.78241,-1.967071 -3.40825,-3.40135 -3.613,-3.187288 -0.32167,0.336317 29.60452,73.681575 31.08598,76.187755 0.30104,0.50924 0.74816,0.71594 0.99362,0.45931 0.24545,-0.25664 -5.32995,-16.08535 -12.38979,-35.174943 z"
       id="path1" />
  </g>
</svg>
