<?xml version="1.0" encoding="UTF-8" standalone="no"?>
<!-- Created with Inkscape (http://www.inkscape.org/) -->

<svg
   version="1.1"
   id="svg1"
   width="529"
   height="347"
   viewBox="0 0 529 347"
   sodipodi:docname="evoluon.svg"
   inkscape:version="1.3 (0e150ed6c4, 2023-07-21)"
   xmlns:inkscape="http://www.inkscape.org/namespaces/inkscape"
   xmlns:sodipodi="http://sodipodi.sourceforge.net/DTD/sodipodi-0.dtd"
   xmlns="http://www.w3.org/2000/svg"
   xmlns:svg="http://www.w3.org/2000/svg">
  <defs
     id="defs1" />
  <sodipodi:namedview
     id="namedview1"
     pagecolor="#505050"
     bordercolor="#ffffff"
     borderopacity="1"
     inkscape:showpageshadow="false"
     inkscape:pageopacity="0"
     inkscape:pagecheckerboard="false"
     inkscape:deskcolor="#505050"
     showguides="true"
     showgrid="false"
     labelstyle="default"
     showborder="true"
     borderlayer="true"
     inkscape:zoom="3.3804035"
     inkscape:cx="264.61338"
     inkscape:cy="173.5"
     inkscape:window-width="2560"
     inkscape:window-height="1369"
     inkscape:window-x="-8"
     inkscape:window-y="-8"
     inkscape:window-maximized="1"
     inkscape:current-layer="g1">
    <inkscape:grid
       id="grid1"
       units="px"
       originx="0"
       originy="0"
       spacingx="1"
       spacingy="1"
       empcolor="#0099e5"
       empopacity="0.30196078"
       color="#0099e5"
       opacity="0.14901961"
       empspacing="5"
       dotted="false"
       gridanglex="30"
       gridanglez="30"
       visible="false" />
  </sodipodi:namedview>
  <g
     inkscape:groupmode="layer"
     inkscape:label="Image"
     id="g1">
    <path
       style="fill:#000000;stroke-width:1.12227"
       d="m -7.5788576,338.32522 c 0,-1.40456 1.4509392,-1.79072 6.72838888,-1.79072 4.69372832,0 7.12555122,-0.54151 8.04176042,-1.79072 0.907419,-1.23722 0.947348,-1.79072 0.1291809,-1.79072 -0.6513056,0 -1.1841916,0.53723 -1.1841916,1.19382 0,0.65659 -0.5575109,1.19381 -1.2389137,1.19381 -0.681403,0 -0.123891,-1.34303 1.2389137,-2.98453 l 2.4778277,-2.98454 H 0.51762551 c -4.69431511,0 -8.09648311,-0.50163 -8.09648311,-1.1938 0,-0.78262 21.8035536,-1.19382 63.3006396,-1.19382 h 63.300638 v -17.90719 -17.90719 h 22.15522 22.15523 v -37.5591 -37.55908 l -3.95629,-1.19684 c -2.17596,-0.65827 -6.56744,-1.80518 -9.75885,-2.54874 C 131.59582,208.10711 102.71524,197.49047 84.20707,188.26062 54.847977,173.6195 35.632853,159.53772 18.532656,140.13119 8.1532188,128.35188 7.9985807,126.74254 16.227095,116.13706 c 3.228925,-4.16166 7.704734,-9.05619 9.946242,-10.87672 2.241508,-1.82053 7.551804,-6.353803 11.800658,-10.073951 C 73.568498,64.021058 140.89931,38.327721 206.56694,30.85157 c 9.83312,-1.119484 12.37551,-1.805771 13.51614,-3.648503 5.14033,-8.304352 17.69122,-16.524818 31.00187,-20.3052997 16.67873,-4.7370837 37.11585,-1.1168178 50.80018,8.9988307 5.63512,4.165552 10.50703,8.988388 11.99121,11.870405 0.58406,1.134153 5.80889,2.268717 16.67573,3.621114 8.70383,1.083206 18.19892,2.477934 21.10021,3.099393 37.10158,7.947218 45.55209,10.236434 66.94848,18.136118 37.44282,13.824123 67.71342,31.967351 89.79556,53.820552 11.70853,11.58715 15.84708,17.44581 15.02521,21.27024 -0.98213,4.57029 -5.08015,10.04116 -14.47981,19.33059 -25.83388,25.53095 -62.32932,46.02438 -106.64894,59.88701 l -12.66012,3.95994 -0.52751,23.7239 c -0.29013,13.04816 -0.38312,31.11063 -0.20665,40.13883 l 0.32083,16.41493 h 62.18855 62.18853 v 17.90719 17.90719 h 17.40768 c 11.16352,0 17.40767,0.43811 17.40767,1.22136 0,0.79886 -6.45512,1.10858 -18.66028,0.89536 l -18.66027,-0.326 0.14831,-15.25711 c 0.0915,-9.41202 -0.237,-14.98764 -0.85742,-14.55374 -1.30774,0.91455 -1.27619,-0.21649 0.0864,-3.09749 1.07407,-2.27096 0.0536,-2.30914 -61.71813,-2.30914 h -62.81021 v -14.32575 c 0,-8.75462 -0.4103,-14.32576 -1.05502,-14.32576 -0.64472,0 -1.05501,5.57114 -1.05501,14.32576 v 14.32575 h -5.80255 -5.80257 l -0.12494,-7.46133 c -0.0686,-4.10373 -0.057,-7.90417 0.0262,-8.44542 0.0832,-0.54125 -0.41612,-0.58743 -1.10936,-0.10266 -0.92239,0.64506 -1.00013,0.26862 -0.2899,-1.40354 0.53945,-1.27003 1.0961,-29.19649 1.2532,-62.871 l 0.28264,-60.58594 h 5.78366 5.78365 v 53.72157 c 0,35.0185 0.36731,53.72158 1.05501,53.72158 0.67052,0 1.05502,-9.3233 1.05502,-25.58227 v -25.58225 l 5.5388,-1.78534 c 3.04634,-0.98193 7.6752,-2.39443 10.28636,-3.1389 8.93814,-2.54834 30.06708,-11.03959 30.8429,-12.39507 0.4263,-0.74481 0.78238,-0.98025 0.79126,-0.52316 0.0412,2.12062 20.65321,-7.89079 21.5223,-10.45356 0.54234,-1.59926 -19.4799,7.68675 -20.69874,9.59977 -0.4263,0.66909 -0.78237,0.84769 -0.79126,0.39688 -0.008,-0.45082 -4.17025,0.78234 -9.24749,2.74036 -11.46308,4.42067 -34.35081,11.80815 -36.58376,11.80815 -1.18501,0 -1.66037,-1.16236 -1.66037,-4.05995 0,-3.93406 0.30254,-4.228 9.75884,-9.48093 12.7333,-7.07329 22.70434,-13.86848 23.41194,-15.95504 0.31438,-0.92704 -2.35379,0.23653 -6.0166,2.62379 -12.13177,7.90698 -25.12696,15.01701 -26.14531,14.30484 -0.57944,-0.40523 -1.00887,-9.5684 -1.00887,-21.52683 V 150.29973 H 375.79784 365.6555 l 0.5342,-3.283 c 0.2938,-1.80563 1.74745,-6.50627 3.23031,-10.44586 l 2.69612,-7.16287 42.7824,-0.31185 c 40.26303,-0.29348 42.77996,-0.18803 42.74138,1.79072 -0.0951,4.87408 -21.44728,29.48807 -34.67545,39.97243 -1.3422,1.0638 -2.26958,2.49166 -2.06088,3.17304 1.07892,3.52246 27.9491,-24.20544 36.83067,-38.00634 l 4.64315,-7.21491 h 18.82132 c 10.95648,0 19.67406,-0.5164 20.86199,-1.23581 1.52476,-0.92339 2.04475,-0.84794 2.05682,0.29845 0.0125,1.18554 0.2223,1.16612 0.92313,-0.0854 0.64262,-1.14761 1.12043,-1.22894 1.63927,-0.27898 0.40275,0.73741 1.18581,1.02356 1.74013,0.63591 1.61427,-1.12895 7.28643,0.70994 7.28643,2.36223 0,4.396 -23.41106,25.62554 -41.01789,37.19569 -11.81851,7.7664 -15.8442,12.8323 -4.61353,5.80559 17.98014,-11.24965 35.86709,-26.2696 45.52718,-38.22987 2.9586,-3.66308 5.37929,-7.5908 5.37929,-8.72824 0,-2.33443 -5.59374,-8.9191 -6.60487,-7.77494 -0.36079,0.40829 -0.10848,1.73441 0.56072,2.94696 0.6692,1.21254 0.93879,2.51913 0.59908,2.90353 -0.3397,0.38442 -37.28837,0.68249 -82.10812,0.6624 -72.09098,-0.0323 -81.33991,0.16873 -80.18529,1.743 0.92498,1.26118 3.41871,1.77953 8.56105,1.77953 4.38529,0 7.2559,0.49819 7.2559,1.25924 0,2.29863 -6.41322,18.35548 -7.70137,19.28205 -0.69643,0.50092 -5.6577,0.91901 -11.02507,0.92906 l -9.75885,0.0183 -0.0235,16.41492 c -0.0267,18.64771 0.36737,17.57148 -9.99913,27.31274 -12.15514,11.42198 -21.66254,17.15679 -28.44331,17.15679 -2.63427,0 -4.78957,0.53721 -4.78957,1.1938 0,0.75707 7.91258,1.19382 21.62771,1.19382 h 21.62772 v 7.75978 7.75978 H 326.8595 c -8.44008,0 -13.71513,0.45917 -13.71513,1.19382 0,0.65659 0.94951,1.19382 2.11001,1.19382 1.9035,0 2.77032,2.43083 2.23496,6.26751 -0.0687,0.49245 0.29048,0.89536 0.79821,0.89536 0.50771,0 1.20797,-1.61165 1.55613,-3.58144 0.55104,-3.11768 1.08725,-3.58143 4.14092,-3.58143 5.27706,0 6.04663,1.54937 4.35034,8.75855 -1.74085,7.39852 -1.6976,6.76101 -0.45869,6.76101 0.55921,0 1.92472,-3.3576 3.03446,-7.46133 1.95251,-7.22019 2.14128,-7.47331 5.84082,-7.83185 l 3.82311,-0.37052 v 15.59163 c 0,9.59855 0.40553,15.59163 1.05501,15.59163 0.58025,0 1.05501,0.56893 1.05501,1.26428 0,0.69535 -0.48652,0.92402 -1.08115,0.50817 -0.59463,-0.41585 -1.01316,-0.31326 -0.93007,0.22799 0.0831,0.54125 0.0949,7.29639 0.0262,15.01139 l -0.12496,14.0273 h -10.5501 c -9.93916,0 -10.55011,-0.14199 -10.55011,-2.45204 0,-1.34862 1.87412,-10.41205 4.16472,-20.14093 3.76026,-15.97103 4.96106,-24.25643 3.16848,-21.86233 -0.36287,0.48463 -2.47499,8.93938 -4.69362,18.78833 -2.21862,9.84896 -4.45458,19.65314 -4.96882,21.78709 -0.89214,3.70211 -1.17066,3.87988 -6.07861,3.87988 -6.12514,0 -4.86469,3.21774 -13.27602,-33.89142 -6.35546,-28.03912 -6.35625,-28.12955 -0.24472,-28.16856 3.52749,-0.0225 4.15708,1.27564 7.22854,14.90438 5.3084,23.55453 6.01688,26.1969 6.56186,24.47316 1.78378,-5.6421 7.0483,-30.28271 6.58256,-30.80973 -1.02336,-1.15801 -1.79138,0.73758 -3.61909,8.93252 -2.56365,11.49484 -4.18224,10.78559 -7.52279,-3.29644 -2.95105,-12.44004 -2.93534,-14.22216 0.12529,-14.22216 1.11216,0 2.02211,-0.57541 2.02211,-1.27866 0,-0.88158 -8.764,-1.22331 -28.22153,-1.1004 -15.52185,0.098 -47.09304,0.13622 -70.15821,0.0849 l -41.93668,-0.0935 v -7.75978 -7.75978 h 49.58551 c 32.35366,0 49.58549,-0.41487 49.58549,-1.19382 0,-0.70143 -3.66693,-1.19381 -8.89078,-1.19381 h -8.89077 l -3.20055,-4.39366 c -5.49541,-7.54401 -12.19115,-24.50171 -16.90152,-42.80498 -2.22268,-8.63673 -6.42682,-30.56087 -6.42682,-33.51514 0,-1.38958 7.04151,-1.6593 43.32007,-1.6593 h 43.3201 l -0.74326,5.67061 c -0.4088,3.11884 -1.81755,11.04277 -3.13057,17.60874 -1.31302,6.56597 -1.99027,12.41101 -1.50499,12.98898 0.48527,0.57798 1.20208,-1.03367 1.59292,-3.58144 0.39084,-2.54776 1.32351,-6.78115 2.0726,-9.40754 0.7491,-2.62638 1.94681,-8.90341 2.66158,-13.94892 l 1.29959,-9.17368 10.15279,-0.66251 c 5.58402,-0.36436 11.81441,-0.76197 13.84531,-0.88355 2.03089,-0.12158 5.35418,0.20091 7.38507,0.71663 3.57849,0.90873 3.62169,0.87815 1.39824,-0.99024 -2.08749,-1.75413 -14.0154,-1.9006 -132.31595,-1.62477 -102.20844,0.23831 -130.114764,0.61928 -130.456952,1.78098 -0.339759,1.15345 8.280839,1.54648 39.275722,1.79072 l 39.71103,0.3129 2.71362,7.75978 c 1.49248,4.26788 3.36353,8.60921 4.15787,9.64738 0.79434,1.03818 1.12673,2.24691 0.73863,2.68608 -0.38811,0.43917 -0.23089,0.79849 0.34936,0.79849 0.58027,0 1.05757,0.67152 1.06069,1.49226 0.005,1.27922 5.15628,10.66274 11.63309,21.19018 3.99464,6.49291 17.1121,20.99803 25.11077,27.76714 4.64205,3.92848 8.44009,7.74913 8.44009,8.49034 0,0.90566 -4.07733,1.45804 -12.43291,1.68431 -10.18681,0.27587 -13.8081,-0.12071 -20.04519,-2.19525 -13.37175,-4.44761 -32.7017,-12.55353 -40.04502,-16.79269 -2.31638,-1.33721 -5.09414,-2.6236 -6.17281,-2.85866 -1.07866,-0.23505 -2.56616,-1.01105 -3.30556,-1.72441 -0.73939,-0.71336 -5.31129,-3.98263 -10.15976,-7.26503 -13.18276,-8.9247 -23.39378,-18.0457 -35.045805,-31.30466 -5.759512,-6.55382 -10.471841,-11.23696 -10.471841,-10.407 0,4.04319 21.775874,26.91153 35.376616,37.15141 16.61425,12.50873 38.53266,24.71971 54.8268,30.54457 1.74076,0.62228 3.33026,2.09594 3.53219,3.27479 0.32756,1.91206 -0.18476,2.05388 -4.74754,1.31428 -2.8131,-0.45596 -12.65528,-2.96038 -21.87152,-5.56537 -14.92041,-4.21728 -19.16132,-4.90908 -17.31987,-2.82539 0.70604,0.79894 16.5767,5.59433 27.74661,8.38377 4.64204,1.15926 9.03993,2.63033 9.77308,3.26905 1.03606,0.90264 1.27108,9.8351 1.05501,40.09915 l -0.27799,38.93783 -21.89147,0.32268 -21.89147,0.32267 v 17.2156 c 0,9.46859 -0.40146,17.49638 -0.89214,17.83953 -0.49067,0.34314 -9.99056,0.68598 -21.11085,0.76186 -12.274548,0.0838 -19.978641,0.57754 -19.607677,1.25673 0.336078,0.61534 0.983991,0.85798 1.439807,0.5392 0.455816,-0.31877 1.940055,0.75897 3.298309,2.39498 l 2.469555,2.97457 36.632256,-0.0844 c 33.18412,-0.0765 36.76456,-0.27564 38.03795,-2.116 1.26532,-1.82868 1.22132,-1.86795 -0.44055,-0.39315 -1.01545,0.90115 -1.84627,1.16469 -1.84627,0.58562 0,-1.04607 4.10556,-4.48744 5.45089,-4.56903 0.38683,-0.0235 1.09896,-0.49033 1.58251,-1.03749 0.48355,-0.54718 0.40443,-0.88646 -0.17584,-0.75399 -0.58025,0.13246 -10.43141,0.17724 -21.89146,0.0995 l -20.83646,-0.14134 v -15.4491 c 0,-8.49702 0.41101,-15.73656 0.91335,-16.08788 0.50234,-0.3513 16.86809,-0.67857 36.36832,-0.72724 19.50022,-0.0487 35.68775,-0.51475 35.97231,-1.03573 0.28456,-0.52099 -2.66937,-1.06203 -6.56426,-1.20232 -3.89489,-0.14028 -7.44617,-0.66366 -7.89173,-1.16307 -0.44555,-0.49939 -0.68294,-14.30192 -0.52751,-30.6723 l 0.2826,-29.76429 2.49547,-0.39952 c 1.37249,-0.21974 2.89012,0.0488 3.3725,0.5969 0.48239,0.54804 3.56503,12.81518 6.85031,27.26031 3.28529,14.44514 6.29371,26.53249 6.68539,26.8608 0.39167,0.32829 0.63691,1.26842 0.54497,2.08916 -0.0919,0.82076 -0.22653,2.29809 -0.29906,3.28298 -0.0725,0.98491 -0.84401,1.79072 -1.71439,1.79072 -0.87039,0 -1.58252,0.53723 -1.58252,1.19382 0,0.78497 26.37527,1.19382 77.01578,1.19382 75.6091,0 77.05432,-0.0436 79.1258,-2.38764 1.16051,-1.31318 2.11002,-3.73066 2.11002,-5.37214 0,-4.3852 -1.9205,-3.63982 -2.30692,0.89536 -0.3224,3.78357 -0.46809,3.88884 -5.86941,4.24072 l -5.53881,0.36084 v -12.35865 c 0,-8.02054 -0.44439,-12.86152 -1.26601,-13.79124 -0.98467,-1.11422 -0.98028,-1.43257 0.0197,-1.43257 0.99305,0 1.27669,-12.56965 1.24592,-55.21385 -0.0219,-30.36761 -0.0308,-55.91344 -0.0197,-56.76849 0.0145,-1.12333 1.55682,-1.45455 5.55889,-1.19381 l 5.5388,0.36084 0.27293,64.16744 c 0.17607,41.39985 0.64399,64.16743 1.31875,64.16743 0.67821,0 1.04585,-22.66113 1.04585,-64.46589 v -64.46589 h 5.80256 5.80256 l 0.12493,62.97363 c 0.0687,34.63549 0.057,63.41646 -0.0262,63.95772 -0.0831,0.54124 0.33545,0.64384 0.93007,0.22799 0.59464,-0.41585 1.08116,-0.21888 1.08116,0.43772 0,0.6566 -0.47475,1.52583 -1.05502,1.93162 -0.58025,0.40581 -1.055,3.66081 -1.055,7.23334 v 6.49552 h 69.63077 c 68.92736,0 69.6307,0.0242 69.6307,2.38762 0,1.31319 0.49145,2.38762 1.09212,2.38762 0.75284,0 0.75284,0.71741 0,2.30915 -0.60067,1.27003 -1.09212,7.448 -1.09212,13.72884 v 11.41971 l -12.39637,0.0133 c -6.81801,0.007 -47.8646,0.0225 -91.21464,0.0338 -57.27676,0.0149 -79.01895,0.38799 -79.55257,1.36499 -0.44835,0.8209 -0.25999,1.01272 0.48373,0.49261 0.6699,-0.46851 1.21801,-0.41211 1.21801,0.12529 0,0.53739 -0.94951,1.64809 -2.11002,2.4682 -1.16051,0.82009 -2.11002,2.02375 -2.11002,2.67478 0,0.76107 13.93755,1.1837 39.0354,1.1837 28.15911,0 39.03539,-0.37335 39.03539,-1.33998 0,-0.8732 0.62184,-0.76921 1.78504,0.29845 1.2129,1.11329 1.53109,1.16014 0.99274,0.14617 -0.43577,-0.82075 -0.28952,-1.49227 0.32498,-1.49227 0.6145,0 1.11728,0.53722 1.11728,1.19382 0,0.77285 12.85672,1.19381 36.46014,1.19381 20.05307,0 36.20937,-0.45913 35.90287,-1.02028 -0.30649,-0.56116 0.73369,-2.3071 2.31151,-3.87989 l 2.86878,-2.85953 -2.431,3.13041 c -2.13439,2.74846 -2.22041,3.22185 -0.70496,3.87988 0.94931,0.41223 16.87935,0.74949 35.40008,0.74949 29.22916,0 33.67405,0.23637 33.67405,1.79072 0,1.58705 -31.5917,1.79055 -277.99531,1.79055 -246.4036,0 -277.9953076,-0.2035 -277.9953076,-1.79072 z m 92.2916756,-4.20555 c -1.013515,-1.26727 -2.200268,-2.05408 -2.637228,-1.74851 -0.436959,0.3056 -1.390568,-0.25713 -2.119131,-1.25049 -1.135089,-1.54764 -6.20596,-1.79324 -35.433686,-1.71615 -35.3651229,0.0932 -35.2930625,0.0831 -35.9790989,5.06693 -0.2744347,1.99366 1.9600979,2.11061 38.8603609,2.03382 38.609474,-0.0803 39.126026,-0.11342 37.308783,-2.3856 z m 237.547042,-0.12999 c 5.56355,-5.91434 6.90525,-5.81186 -76.09235,-5.81186 -67.17109,0 -77.47207,0.23294 -78.60495,1.77757 -0.71706,0.97766 -1.6919,1.50611 -2.16631,1.17434 -0.47442,-0.33178 -1.20611,0.0257 -1.62598,0.79451 -0.47678,0.87294 -0.30611,1.07792 0.4546,0.54592 1.61035,-1.12619 1.5657,0.80577 -0.0611,2.64666 -1.00224,1.1341 15.7206,1.43773 77.23987,1.40246 78.06137,-0.0448 78.53265,-0.0595 80.85627,-2.5296 z m -1.7304,-1.03662 c 0.62108,-1.31319 1.66089,-2.38762 2.31065,-2.38762 0.64978,0 0.32212,1.07443 -0.72813,2.38762 -1.05026,1.3132 -2.09004,2.38763 -2.31066,2.38763 -0.22061,0 0.10705,-1.07443 0.72814,-2.38763 z m 175.92303,-8.34491 9.75884,-0.0118 V 312.06134 299.52631 H 316.30941 126.40749 v 12.51031 12.51032 l 21.36398,0.32316 c 11.75017,0.17776 92.81455,0.19418 180.14307,0.0365 87.32851,-0.15768 163.17058,-0.29198 168.53795,-0.29845 z M 364.36317,294.84399 c -0.6876,-1.25893 -7.76457,-1.42345 -8.43398,-0.19607 -0.20999,0.38503 1.75052,0.85902 4.35667,1.05333 3.00426,0.22398 4.49648,-0.0898 4.07731,-0.85726 z m -164.40742,-5.16664 c -0.26309,-0.82074 -3.26987,-13.44406 -6.68174,-28.0518 -3.41187,-14.60776 -6.55947,-26.56081 -6.99465,-26.56234 -0.4352,-0.001 -0.79126,12.62177 -0.79126,28.05181 v 28.0546 h 7.47299 c 5.53016,0 7.34862,-0.38797 6.99466,-1.49227 z m 114.24365,0.88579 c 0,-0.94595 11.63019,-51.79996 12.29458,-53.75912 0.39939,-1.17771 -0.10709,-1.74361 -1.56051,-1.74361 -1.18348,0 -2.39548,0.94014 -2.69331,2.08918 -2.69772,10.40791 -9.09577,38.66332 -9.09577,40.16923 0,1.07254 -0.86666,1.91267 -1.97306,1.91267 -1.63336,0 -2.44965,-2.20948 -4.74133,-12.83348 -5.88895,-27.30061 -7.08738,-31.3376 -9.30294,-31.3376 -1.46254,0 -1.90478,0.60596 -1.52472,2.08918 0.29443,1.14904 2.74035,12.02767 5.43539,24.17471 6.96488,31.39201 6.44259,29.84532 10.07845,29.84532 1.69577,0 3.08322,-0.27292 3.08322,-0.60648 z m 24.02094,-27.74657 c 0.26726,-26.195 0.17484,-27.75616 -1.64314,-27.75616 -1.59133,0 -2.53752,2.75077 -5.44097,15.81802 -1.93305,8.69992 -4.82389,21.34609 -6.42409,28.1026 l -2.90946,12.28459 8.06722,-0.34646 8.06724,-0.34645 z m 13.95944,-39.69428 v -68.04733 h -3.16503 -3.16503 v 68.04733 68.04733 h 3.16503 3.16503 z m 14.77015,0 v -68.04733 h -3.69254 -3.69253 v 68.04733 68.04733 h 3.69253 3.69254 z m 13.9432,55.21384 c 0.1647,-7.05842 0.17151,-37.67972 0.0151,-68.04733 l -0.28425,-55.21384 h -3.14449 -3.14447 v 68.04733 68.04733 h 3.12935 3.12933 z m -67.9266,-35.65443 c 1.75807,-7.00703 1.60234,-7.62129 -1.93217,-7.62129 -3.59735,0 -3.6067,0.0403 -1.92323,8.29302 1.37203,6.72598 2.02799,6.61171 3.8554,-0.67173 z m 10.99171,-17.14448 14.50641,-0.0273 v -4.77525 -4.77525 h -83.87336 -83.87334 v 4.57628 c 0,2.51696 0.19796,4.80013 0.43992,5.07371 0.24194,0.27358 31.45706,0.3754 69.36695,0.22626 37.90986,-0.14913 75.45491,-0.28344 83.43342,-0.29844 z m -28.14095,-12.86909 c -0.36436,-0.4123 -1.70828,-0.93022 -2.98648,-1.15096 -3.8557,-0.66583 -4.60729,-2.42822 -2.57031,-6.02711 4.76835,-8.42461 9.27257,-19.736 8.29803,-20.83877 -0.6696,-0.75769 -1.3012,-0.18376 -1.80605,1.64109 -0.42699,1.54343 -2.58646,6.43245 -4.79882,10.86448 -2.21237,4.43204 -3.77276,8.05824 -3.46756,8.05824 0.30521,0 -0.85561,1.34304 -2.57959,2.98453 -2.58718,2.46339 -4.24845,2.98453 -9.51378,2.98453 -3.50858,0 -6.65374,0.50256 -6.98923,1.11679 -0.36675,0.67151 4.90952,1.11681 13.23316,1.11681 7.6137,0 13.54499,-0.33734 13.18063,-0.74963 z m -93.64367,-12.02237 c -17.17446,-15.4811 -31.04323,-36.5794 -40.35335,-61.38882 l -3.02398,-8.05823 H 118.79231 78.788337 l 2.30755,3.667 c 17.115184,27.19835 55.034713,54.18218 96.306433,68.53237 9.9134,3.44689 13.41793,4.10399 22.13378,4.14997 l 10.35547,0.0547 z m 82.19859,4.27089 c 6.09022,-7.46655 14.69748,-31.72064 19.35574,-54.54179 1.68374,-8.24879 3.06698,-15.93793 3.07386,-17.08698 0.0117,-1.95329 -2.59513,-2.08917 -40.07789,-2.08917 -22.7176,0 -40.09041,0.46037 -40.09041,1.06239 0,4.99885 6.47491,34.35877 9.9832,45.2679 2.48631,7.73126 8.80144,21.78364 11.76621,26.18203 l 2.62321,3.8917 h 15.58758 c 14.81237,0 15.69652,-0.13359 17.7785,-2.68608 z m 25.92329,0.76882 c 5.49948,-3.12282 16.70513,-11.93181 22.36658,-17.58281 l 5.27506,-5.26531 0.52751,-17.76108 0.52749,-17.76109 10.65138,-0.33818 10.65137,-0.3382 2.80002,-7.10126 c 1.54,-3.90569 2.80001,-7.37971 2.80001,-7.72004 0,-0.34034 -11.57034,-0.61879 -25.71185,-0.61879 h -25.71184 l -0.69877,6.26751 c -1.20537,10.81106 -6.53059,33.99052 -10.49066,45.66334 -0.66826,1.9698 -3.23273,8.12327 -5.69882,13.67441 -2.46608,5.55114 -4.4838,10.25178 -4.4838,10.44586 0,1.34014 14.38605,0.0314 17.19632,-1.56436 z M 143.28767,198.27579 C 114.47031,183.37853 90.035572,162.47408 74.620102,139.52922 l -5.596837,-8.33051 H 44.964847 c -13.23213,0 -24.058417,0.23213 -24.058417,0.51586 0,0.28374 4.154105,4.48485 9.231344,9.33582 26.517024,25.33528 64.140126,45.85241 108.899706,59.38662 15.90021,4.80784 16.82324,4.33847 4.25019,-2.16122 z m -17.42679,2.19906 c 0.3481,-0.63735 -0.69208,-1.49092 -2.31151,-1.8968 -1.61945,-0.4059 -9.82838,-3.4848 -18.24209,-6.84201 -17.393099,-6.94013 -43.723763,-21.39242 -56.944621,-31.25558 -4.9179,-3.66891 -9.592215,-6.52036 -10.387365,-6.33657 -3.528444,0.81557 33.029778,24.91055 48.869303,32.20904 19.107313,8.8042 32.984333,14.11989 34.801343,13.3309 0.87808,-0.38128 1.59653,-0.0985 1.59653,0.62829 0,1.62998 1.75738,1.73918 2.61841,0.16273 z m 276.4319,-2.62153 c 41.61443,-13.1964 79.68509,-34.88517 102.44462,-58.36252 8.62521,-8.89723 9.84533,-8.29209 -16.71938,-8.29209 H 464.2913 l -2.93333,5.0737 c -1.61333,2.79054 -8.67904,11.53315 -15.70159,19.42804 -14.21412,15.97976 -28.13417,27.2487 -45.7442,37.03207 -5.85743,3.25413 -10.68523,6.59836 -10.72845,7.43161 -0.0874,1.6858 1.24847,1.45031 13.10905,-2.31081 z m -4.45745,-13.68386 c 18.09504,-10.28435 37.00745,-26.53026 49.38534,-42.42242 l 7.75086,-9.95143 -20.27306,-0.32423 c -11.15019,-0.17833 -29.3182,-0.17833 -40.37337,0 l -20.1003,0.32423 -2.57754,7.16288 c -1.41764,3.93958 -2.57974,7.27702 -2.58243,7.41652 -0.003,0.13951 4.38661,0.40813 9.75397,0.59691 l 9.75885,0.34326 0.28866,20.59326 c 0.15877,11.32631 0.52669,20.59328 0.8176,20.59328 0.29091,0 3.95905,-1.94952 8.15142,-4.33226 z m 62.77844,-6.43511 c 0.82008,-1.48594 0.89736,-2.36457 0.20794,-2.36457 -0.60338,0 -1.36929,0.80274 -1.702,1.78387 -0.33273,0.98111 -0.95084,1.54196 -1.37358,1.24633 -0.42274,-0.29565 -0.76863,0.19343 -0.76863,1.08685 0,2.16204 2.01064,1.19304 3.63627,-1.75248 z M 302.6596,175.77228 c 0.64414,-1.91713 0.6858,-3.61151 0.10497,-4.26878 -0.58085,-0.65728 -1.43393,0.4383 -2.14922,2.76017 -1.44513,4.69088 -1.44505,4.68755 -0.10498,4.68755 0.59461,0 1.56177,-1.43053 2.14923,-3.17894 z M 36.151334,150.52014 C 19.839343,134.67795 17.725736,132.04304 18.11593,128.03638 c 0.214281,-2.20031 -0.0197,-4.00055 -0.519971,-4.00055 -0.500264,0 -0.925366,-0.94012 -0.944671,-2.08917 -0.02944,-1.75264 -0.369345,-1.63518 -2.110021,0.72915 -1.141207,1.5501 -2.074922,3.76974 -2.074922,4.93255 0,3.02825 19.565427,23.88516 22.406154,23.88516 1.292506,0 1.846733,-0.42185 1.278835,-0.97338 z M 76.29449,132.39252 c -0.598481,-3.08337 -0.390057,-3.58144 1.498691,-3.58144 1.246746,0 2.193847,-0.77306 2.193847,-1.79072 0,-0.98489 -0.912692,-1.79072 -2.028203,-1.79072 -2.164484,0 -5.039844,7.23351 -3.787104,9.52717 1.436744,2.63055 2.797989,1.11442 2.122769,-2.36429 z m -3.956085,-7.00992 c -1.602701,-0.68715 -2.989644,2.62901 -1.527283,3.6517 0.747828,0.523 1.52789,0.0489 1.912799,-1.16229 0.357487,-1.12501 0.184005,-2.24524 -0.385516,-2.48941 z m -45.101911,1.63776 c -1.431732,-1.95209 -4.81537,-2.40436 -5.711613,-0.76341 -0.888202,1.62622 0.53107,2.55413 3.906607,2.55413 2.652272,0 2.922067,-0.26766 1.805006,-1.79072 z m 11.22077,-0.007 c -4.083425,-2.40984 -9.255447,-2.40532 -8.437256,0.007 0.431366,1.27202 2.178943,1.78859 6.033199,1.78337 l 5.425931,-0.007 z m 11.315974,0.007 c 0.433454,-1.27818 -0.101196,-1.79072 -1.867966,-1.79072 -1.36138,0 -3.066253,0.80583 -3.788607,1.79072 -1.118058,1.52442 -0.840269,1.79072 1.867967,1.79072 1.854618,0 3.434589,-0.74679 3.788606,-1.79072 z m 8.440086,0 c 0.433454,-1.27818 -0.101196,-1.79072 -1.867967,-1.79072 -1.36138,0 -3.066253,0.80583 -3.788607,1.79072 -1.118058,1.52442 -0.840269,1.79072 1.867967,1.79072 1.854618,0 3.434589,-0.74679 3.788607,-1.79072 z m 9.113576,0 c 0,-1.95002 -5.76339,-2.60025 -6.766624,-0.76341 -0.878481,1.60842 0.520183,2.55413 3.777427,2.55413 1.953724,0 2.989197,-0.62032 2.989197,-1.79072 z m 282.32526,-1.46739 c -1.07244,-1.21353 -1.95731,0.61349 -1.07741,2.22451 0.6647,1.217 0.9132,1.21795 1.27056,0.004 0.24434,-0.82944 0.15742,-1.83266 -0.19315,-2.22935 z m 157.72333,-8.08311 -5.07551,-5.37216 H 266.5263 30.752613 l -4.395586,4.59187 c -2.417572,2.52553 -4.395586,4.94299 -4.395586,5.37216 0,0.42916 110.360159,0.78029 245.244789,0.78029 h 245.24478 z m -485.745798,0.38882 c 1.342974,-1.42766 2.44177,-3.40842 2.44177,-4.40172 0,-1.25091 -0.972751,-0.75139 -3.165032,1.62527 -3.034227,3.28943 -3.980876,5.37216 -2.44177,5.37216 0.397794,0 1.822058,-1.16807 3.165032,-2.59571 z m 490.983778,-2.02715 c -0.58144,-1.22939 -3.80275,-4.89857 -7.15844,-8.15375 -16.85266,-16.347871 -38.84346,-30.894635 -64.48361,-42.655506 -9.50921,-4.361772 -14.64558,-6.394652 -30.76606,-12.176628 -1.40667,-0.504538 -1.40667,-0.381389 0,1.108337 0.87039,0.921769 4.66843,2.897783 8.44009,4.391142 9.74317,3.857731 20.01838,8.270123 23.89718,10.261954 1.82847,0.938947 3.64767,1.707176 4.04267,1.707176 0.39501,0 6.90683,3.505161 14.47073,7.789247 20.22019,11.452424 38.46539,25.248828 36.43258,27.549078 -0.34174,0.38673 -4.73257,0.65282 -9.75739,0.59135 l -9.13602,-0.11173 -5.97339,-6.02703 c -3.28535,-3.314894 -10.72092,-9.627966 -16.52348,-14.029089 l -10.55011,-8.002043 -11.07761,-0.316312 c -10.84168,-0.30957 -11.0102,-0.273849 -7.91258,1.677414 4.16902,2.626149 19.12932,15.336936 23.47399,19.944314 6.01438,6.378056 5.27468,6.749186 -13.45139,6.749186 -9.28409,0 -16.88197,-0.40291 -16.88417,-0.89536 -0.005,-1.20627 -16.50978,-20.609293 -20.91341,-24.586373 -7.50101,-6.774463 -4.98504,-2.616324 5.60953,9.270852 6.09831,6.842339 11.08784,13.288931 11.08784,14.325751 0,1.54564 -1.38831,1.88513 -7.7091,1.88513 h -7.7091 l -5.03518,-7.759785 c -2.76935,-4.267881 -5.20667,-7.759783 -5.41628,-7.759783 -1.78559,0 -0.91915,2.96493 2.13824,7.31701 2.01615,2.869918 3.67035,5.889548 3.67598,6.710288 0.007,1.0951 -2.79766,1.49227 -10.53987,1.49227 -8.5882,0 -10.55011,0.32698 -10.55011,1.75834 0,1.52936 8.46544,1.76072 65.00525,1.77662 l 65.00526,0.0183 4.10098,4.19244 c 4.60994,4.71275 5.71594,5.23222 4.16698,1.95721 z m -50.69648,-9.51296 c -1.44178,-0.23619 -5.83916,-3.86424 -9.77194,-8.062339 -3.93278,-4.198091 -9.04363,-9.050534 -11.35747,-10.783197 -5.60838,-4.19975 -5.50449,-6.414464 0.30091,-6.414464 4.47783,0 5.96599,0.862577 18.86687,10.935612 10.98465,8.576868 15.09468,13.831068 11.17688,14.288398 -3.53492,0.41263 -6.83744,0.42553 -9.21525,0.036 z m 3.23219,-5.87378 c -5.94261,-5.383584 -21.49562,-17.001698 -22.69999,-16.956907 -0.61655,0.02293 1.25276,2.306089 4.15405,5.073705 2.90127,2.767604 7.41145,7.302732 10.0226,10.078048 3.70198,3.934724 5.56077,5.049204 8.44009,5.060464 l 3.69253,0.0144 z m -433.893999,9.26529 c 2.696481,0 6.399301,-4.12888 5.060963,-5.6433 -0.308905,-0.34955 2.351768,-2.849 5.912606,-5.554356 4.445329,-3.377344 5.904665,-5.043323 4.656714,-5.316109 -3.517668,-0.768922 -20.72155,14.394615 -20.671898,18.220245 0.02923,2.25221 0.127637,2.28621 1.107433,0.38269 0.60549,-1.17634 2.324487,-2.08917 3.934182,-2.08917 z m 23.411591,-1.79072 c -2.1566,-2.94042 -17.903348,-2.24226 -16.284342,0.72199 0.32104,0.5878 4.411859,1.06873 9.090711,1.06873 7.442161,0 8.342605,-0.22415 7.193631,-1.79072 z m 11.605117,0.56736 c 0,-0.67284 -1.235148,-1.75476 -2.744773,-2.40422 -1.765703,-0.75964 -2.534793,-1.80006 -2.156099,-2.91675 0.913572,-2.69395 -0.708163,-3.03497 -3.421078,-0.71938 -2.196535,1.87482 -2.307585,2.37693 -1.035488,4.68187 1.050157,1.9028 2.468049,2.58184 5.391175,2.58184 2.181445,0 3.966263,-0.55051 3.966263,-1.22336 z m 7.14899,-0.95974 c 0.243912,-0.82801 -0.699694,-1.39834 -2.313524,-1.39834 -1.5674,0 -2.725445,0.6761 -2.725445,1.59121 0,1.94719 4.45883,1.77653 5.038969,-0.19287 z m 7.963676,1.39758 c 0.381804,-0.43205 0.170438,-1.49962 -0.4697,-2.37243 -0.640137,-0.8728 -0.894131,-2.38236 -0.564429,-3.35459 0.983498,-2.90015 -1.139217,-3.27723 -3.347794,-0.59471 -2.597217,3.15456 -1.84692,7.10725 1.349092,7.10725 1.286255,0 2.651028,-0.35349 3.032831,-0.78552 z m 268.310995,-1.00813 c 1.40325,-1.58785 0.95207,-1.79206 -4.03423,-1.82605 l -5.61417,-0.0383 -4.48379,-11.628034 c -2.46608,-6.395374 -4.4838,-12.018925 -4.4838,-12.496724 0,-0.4778 3.28085,-0.868726 7.29076,-0.868726 h 7.29075 l 5.89688,10.575163 c 3.24329,5.816339 5.89688,11.341271 5.89688,12.277641 0,1.87318 5.21177,5.79871 7.69873,5.79871 0.86385,0 1.84388,-0.80582 2.1779,-1.79072 0.46211,-1.36271 -0.20437,-1.79178 -2.78841,-1.79514 -3.09561,-0.003 -3.69782,-0.66336 -6.81481,-7.461333 -1.88052,-4.101296 -5.23602,-10.4116 -7.45667,-14.022883 l -4.03753,-6.56597 -9.68726,-0.185471 c -10.73078,-0.205443 -11.03478,0.07139 -7.41562,6.751441 3.11736,5.753879 8.22602,19.956236 7.48143,20.798786 -0.33531,0.37942 -6.82862,0.68985 -14.4296,0.68985 H 308.36303 L 305.97191,94.763194 C 302.00699,75.917191 303.41492,77.477132 290.37036,77.477132 h -11.22114 l 0.60534,3.879891 c 0.33293,2.13394 0.92581,8.58053 1.31751,14.325753 l 0.71216,10.445864 h -15.05978 -15.05978 l 0.73713,-11.639676 c 0.40541,-6.401821 1.00491,-12.885526 1.33222,-14.408234 l 0.5951,-2.768549 -11.26283,0.292677 c -6.19455,0.160973 -11.48344,0.696625 -11.75309,1.190338 -0.75542,1.383105 2.49578,2.034544 11.12025,2.228169 4.33804,0.09741 8.0618,0.374475 8.275,0.615744 0.21321,0.241257 -0.0128,5.715797 -0.50228,12.165633 l -0.88993,11.726988 -9.86756,0.59691 c -5.42715,0.32829 -10.34348,0.26155 -10.92518,-0.14832 -0.92752,-0.65353 1.6826,-15.656294 4.05585,-23.312669 0.61317,-1.978172 0.50939,-2.021066 -1.005,-0.415268 -0.92882,0.984896 -2.77656,6.752969 -4.10606,12.817944 l -2.41729,11.027223 -13.97889,0.0155 c -16.71812,0.0186 -16.37238,0.60405 -9.23135,-15.632332 2.61115,-5.936903 4.74755,-11.291452 4.74755,-11.899007 0,-0.607519 -4.28154,-1.104599 -9.51454,-1.104599 h -9.51452 l -6.09349,10.500753 c -3.35141,5.775416 -6.72354,12.222005 -7.49362,14.325755 l -1.40017,3.825 -14.37839,0.18566 c -14.85834,0.19187 -19.31556,-0.002 -20.08677,-0.87494 -1.05615,-1.19512 3.12702,-7.627943 11.27303,-17.335479 l 8.72971,-10.403112 -9.89702,-0.11759 c -9.3013,-0.110488 -10.11393,0.08034 -13.5008,3.171161 -7.16743,6.540804 -10.82165,10.586337 -16.29139,18.035932 l -5.56865,7.584318 -14.849817,-0.17908 c -13.413228,-0.16178 -16.224202,0.36757 -14.187908,2.67177 0.364047,0.41193 59.980845,0.76876 132.481785,0.79296 115.70585,0.0385 132.013,-0.17459 133.3998,-1.74384 z m -231.44241,-2.65984 c -0.68998,-2.04484 4.92436,-9.751537 12.81421,-17.589777 6.38582,-6.344028 6.88963,-6.608243 12.60107,-6.608243 4.06851,0 5.94196,0.471759 5.92606,1.492266 -0.0128,0.820746 -2.20046,4.178345 -4.86148,7.46133 -2.66102,3.282985 -6.20711,8.207964 -7.8802,10.944394 -3.0331,4.96082 -3.06395,4.9765 -10.57299,5.37216 -5.26411,0.27738 -7.68021,-0.0453 -8.02667,-1.07213 z m 18.77891,-9.527195 c 9.28962,-12.992921 8.98831,-12.2832 5.21492,-12.2832 -2.67697,0 -4.93708,1.835154 -12.4562,10.114113 l -9.18583,10.114112 5.34949,0.0333 c 5.33977,0.0332 5.3599,0.0187 11.07762,-7.978322 z m 41.33473,10.614665 c -1.30559,-0.20981 -2.37378,-1.01991 -2.37378,-1.80022 0,-1.96147 4.8631,-12.115409 8.62339,-18.005228 3.0009,-4.700387 3.37673,-4.905472 10.04204,-5.480042 4.33482,-0.373676 7.083,-0.128848 7.34839,0.654651 0.23317,0.688365 -1.48914,5.871076 -3.82735,11.517142 -2.3382,5.646054 -4.25129,10.812087 -4.25129,11.480057 0,1.20663 -11.01988,2.3635 -15.5614,1.63364 z m 13.45138,-3.8751 c 0,-0.69964 1.6424,-5.294514 3.64979,-10.21085 l 3.64978,-8.938781 -4.9343,0.361881 c -4.89736,0.359182 -4.97159,0.428937 -9.91501,9.315488 -2.7394,4.924478 -5.00989,9.356512 -5.04556,9.848952 -0.0357,0.49245 2.7837,0.89536 6.26524,0.89536 3.77627,0 6.33006,-0.51319 6.33006,-1.27205 z m 92.51731,2.03967 c -0.30215,-0.891 -0.88894,-6.531763 -1.30396,-12.53503 l -0.75459,-10.91503 h 9.03258 c 7.68823,0 9.11495,0.31094 9.58612,2.089173 1.98845,7.504784 4.86369,20.193907 4.86369,21.464637 0,2.25212 -20.65885,2.15207 -21.42384,-0.10375 z m 17.72829,-4.647509 c -0.38399,-2.13394 -1.45791,-6.700274 -2.38651,-10.147408 l -1.68835,-6.267518 h -6.74873 -6.74872 l 0.56877,3.282986 c 0.31284,1.805642 0.88001,6.371975 1.2604,10.147409 l 0.69162,6.86442 h 7.87485 7.87484 z M 335.1018,79.049252 c 0.76158,-0.344857 1.67153,-0.302453 2.0221,0.09419 0.35058,0.396705 -0.27255,0.67885 -1.3847,0.627015 -1.22903,-0.05731 -1.47902,-0.340165 -0.6374,-0.721254 z m 22.88054,29.467018 c -0.82408,-1.50882 -3.7393,-1.50882 -5.80256,0 -1.17473,0.85905 -0.54702,1.16195 2.43605,1.17553 2.41382,0.0107 3.75817,-0.45845 3.36651,-1.17553 z m 14.24264,0.0704 c 0,-0.61783 -0.47475,-1.45536 -1.05501,-1.86117 -0.58025,-0.4058 -1.055,0.0997 -1.055,1.12336 0,1.02364 0.47475,1.86117 1.055,1.86117 0.58026,0 1.05501,-0.50551 1.05501,-1.12336 z M 58.93997,97.95083 c 3.162171,-3.184616 10.693445,-9.631204 16.736163,-14.325753 l 10.986759,-8.535571 h 13.542248 c 10.54108,0 13.54223,0.350643 13.54223,1.582224 0,0.870226 -4.39148,4.88078 -9.75885,8.912346 -5.367366,4.031565 -12.132622,9.742085 -15.033902,12.690026 l -5.275053,5.359918 13.715139,-0.005 13.715136,-0.005 5.80257,-7.403586 c 3.1914,-4.071977 8.75683,-10.492588 12.36762,-14.268021 l 6.56506,-6.863362 h 13.21639 c 10.07048,0 13.21638,0.365617 13.21638,1.536004 0,0.844801 -2.8914,4.72299 -6.42531,8.618198 -3.53393,3.895208 -8.32568,9.650603 -10.64835,12.789758 l -4.22304,5.707549 h 14.67299 14.673 l 1.88511,-4.4768 c 1.03681,-2.462238 4.43737,-8.908827 7.55681,-14.325753 l 5.6717,-9.848956 h 12.68379 c 11.51069,0 12.68379,0.198747 12.68379,2.148864 0,1.181874 -0.43911,2.659218 -0.97579,3.282985 -1.37863,1.602335 -9.57432,20.43799 -9.57432,22.00409 0,0.87253 3.66619,1.18557 11.21384,0.9575 l 11.21384,-0.33884 2.50489,-10.97571 c 4.30371,-18.857718 2.45945,-17.078889 17.70699,-17.078889 7.23332,0 13.36175,0.402912 13.61875,0.89536 0.25699,0.492448 0.0991,4.118655 -0.35061,8.058237 -0.44983,3.939581 -1.08447,9.983259 -1.4103,13.430394 l -0.59243,6.267518 h 12.3966 12.39661 l -0.77864,-9.252051 C 277.74953,89.400313 277.2523,83.088028 277.07282,80.46164 l -0.32631,-4.775252 h 13.66876 13.66874 l 1.4246,5.372158 c 0.78353,2.954686 2.26264,9.132667 3.2869,13.728846 l 1.86232,8.356688 11.26588,0.33884 c 8.02249,0.2413 11.26588,-0.0603 11.26588,-1.04756 0,-0.76253 -2.37378,-6.673017 -5.27505,-13.134432 -2.90129,-6.461405 -5.27505,-12.302287 -5.27505,-12.97973 0,-0.778089 4.66973,-1.231717 12.67955,-1.231717 h 12.67956 l 6.09349,10.500754 c 3.35142,5.775415 6.72355,12.222004 7.49363,14.325753 l 1.40015,3.825002 h 14.11465 c 7.76305,0 14.11466,-0.30445 14.11466,-0.67656 0,-1.54568 -6.26665,-9.904252 -12.92389,-17.23813 -3.91672,-4.314822 -7.12132,-8.495759 -7.12132,-9.290974 0,-1.05474 3.56426,-1.445845 13.17646,-1.445845 h 13.17648 l 5.8163,5.960266 c 3.19897,3.278139 8.78236,9.694142 12.40754,14.257778 l 6.59124,8.297525 13.58057,0.0679 c 12.57728,0.0629 13.47359,-0.0797 12.13261,-1.93093 -1.68916,-2.331885 -18.62451,-16.601959 -24.39441,-20.55521 -7.27013,-4.981114 -5.51979,-6.097352 9.56104,-6.097352 h 13.51735 l 9.42914,7.266059 c 5.18602,3.996323 12.83136,10.442912 16.98962,14.325752 7.33324,6.847511 7.74547,7.058901 13.71513,7.033141 l 6.15466,-0.0265 -2.63753,-2.34079 C 485.1796,96.726312 470.38584,86.901651 459.12683,80.587516 420.14597,58.726803 375.43901,45.337983 318.41944,38.448521 294.18473,35.520332 239.47753,35.53263 215.02839,38.471761 149.4323,46.357338 95.495673,64.537104 55.17501,92.351597 39.262915,103.32828 38.96105,103.74101 46.845025,103.74101 c 6.0949,0 6.572632,-0.2287 12.094945,-5.79018 z m 17.619445,1.230129 c 2.175315,-2.508034 6.703432,-7.074368 10.062484,-10.147409 7.166394,-6.556217 5.788652,-7.412432 -2.26722,-1.409009 -3.083758,2.298089 -5.872565,4.178344 -6.197347,4.178344 -0.324784,0 -2.747161,2.014559 -5.383061,4.476798 -2.635899,2.462239 -5.533323,5.131237 -6.438721,5.931097 -1.377431,1.21688 -1.000103,1.4605 2.311285,1.49227 3.215288,0.0308 4.699197,-0.81722 7.91258,-4.522091 z M 247.20706,95.682776 c 0.38296,-4.432029 0.92749,-8.998363 1.21007,-10.147408 0.45147,-1.835726 -0.32182,-2.089173 -6.37421,-2.089173 h -6.88799 l -1.16322,5.073705 c -0.63977,2.790537 -1.60493,6.95396 -2.1448,9.252049 -0.53987,2.298091 -0.98424,4.581261 -0.98747,5.073701 -0.003,0.49245 3.51699,0.89536 7.82273,0.89536 h 7.8286 z m 105.38481,4.178345 c -0.96367,-2.13394 -3.3958,-6.700274 -5.40474,-10.147408 -3.47474,-5.96232 -3.87546,-6.267518 -8.22892,-6.267518 h -4.57631 l 3.62389,8.875354 c 1.99313,4.88144 3.62388,9.447771 3.62388,10.147411 0,0.75945 2.56172,1.27205 6.35716,1.27205 h 6.35716 z m 50.97267,-6.313085 c -7.48911,-8.153789 -9.89661,-10.101841 -12.48437,-10.101841 h -3.20601 l 1.93425,2.793343 c 12.73787,18.395222 11.83734,17.505362 17.66496,17.455902 l 5.36952,-0.0456 z M 66.293049,98.340001 c 0.733992,-1.000761 1.040974,-2.151741 0.682181,-2.557744 -0.766244,-0.867055 -3.868373,1.803087 -3.868373,3.329675 0,1.644418 1.719507,1.227828 3.186192,-0.771931 z m 36.144301,-15.55267 c 2.69661,-1.93572 4.92026,-3.922392 4.94143,-4.414839 0.0212,-0.492448 -3.8262,-0.89536 -8.549758,-0.89536 -6.554004,0 -9.615238,0.580957 -12.92388,2.452676 -6.02914,3.410735 -9.434858,6.500777 -8.95611,8.125985 0.248705,0.844277 2.53133,-0.242869 5.900237,-2.810115 4.298269,-3.275453 6.548759,-4.187108 10.336196,-4.187108 6.161715,0 5.662073,1.119367 -4.511464,10.107285 -4.216131,3.724779 -7.399568,7.259587 -7.074304,7.855108 0.325264,0.595534 4.043645,-2.021531 8.263068,-5.815683 4.219424,-3.794163 9.877987,-8.482242 12.574585,-10.417949 z M 72.67131,92.954699 c 1.948653,-1.180095 2.906056,-4.776696 1.249406,-4.693534 -1.026898,0.05157 -5.538806,4.308112 -5.538806,5.225342 0,1.08705 2.032294,0.835084 4.2894,-0.531808 z m 313.91865,-6.593702 c -0.32099,-0.946551 -1.16821,-1.720988 -1.88275,-1.720988 -1.01042,0 -1.01777,0.318353 -0.0331,1.432574 0.6963,0.787917 1.32108,2.533869 1.38839,3.879892 0.10559,2.111365 0.19024,2.150964 0.61673,0.288414 0.27189,-1.187402 0.23172,-2.933354 -0.0893,-3.879892 z M 55.132169,88.780389 c 2.02054,-1.729332 2.01971,-1.752756 -0.06211,-1.752756 -1.160511,0 -3.031581,0.788741 -4.157933,1.752756 -2.020541,1.729322 -2.019712,1.752745 0.06211,1.752745 1.160512,0 3.031582,-0.78874 4.157935,-1.752745 z m 8.734815,-5.496874 c 4.984027,-3.485563 2.411918,-5.072475 -2.892584,-1.784642 -2.619567,1.623656 -3.608525,2.824202 -2.803629,3.403452 1.697746,1.221807 1.591026,1.25213 5.696213,-1.61881 z M 386.43806,80.578896 c 1.74301,-0.705914 1.82857,-1.022834 0.5275,-1.95389 -2.62529,-1.8787 -4.66328,-1.262746 -5.91292,1.787103 -1.44716,3.531858 -0.64123,4.822465 1.63684,2.621242 0.91746,-0.886526 2.60433,-1.991029 3.74858,-2.454455 z M 379.4063,78.04245 c -0.32482,-0.367563 -0.91475,0.295002 -1.31093,1.472365 -0.57253,1.701422 -0.45135,1.838543 0.59059,0.668296 0.72102,-0.809811 1.04517,-1.773098 0.72034,-2.140661 z m 12.86389,1.225401 c 0,-0.984895 -0.47476,-1.790719 -1.05501,-1.790719 -0.58026,0 -1.05502,0.805824 -1.05502,1.790719 0,0.984895 0.47476,1.790719 1.05502,1.790719 0.58025,0 1.05501,-0.805824 1.05501,-1.790719 z M 82.968331,72.263729 c 4.831124,-2.401234 13.376712,-6.271826 18.990189,-8.601316 5.61348,-2.329489 11.39322,-4.733902 12.84386,-5.343139 7.24678,-3.04349 32.57365,-10.629677 45.36546,-13.588365 29.95207,-6.927788 55.67253,-10.234198 85.98337,-11.053315 12.76562,-0.344976 23.66125,-1.106915 24.2125,-1.693195 1.37701,-1.464553 2.96793,-1.346343 2.14552,0.159419 -0.44484,0.814467 3.69125,1.194465 12.33412,1.133184 12.31141,-0.08729 49.49517,3.517652 62.06137,6.016816 15.27735,3.038355 35.08046,7.530047 42.37621,9.611667 8.88425,2.534847 12.42768,2.933295 10.84908,1.219948 -2.90705,-3.155221 -46.15663,-12.707064 -73.26959,-16.181886 -9.12488,-1.169453 -14.39787,-2.355241 -14.67631,-3.300395 -1.38028,-4.685653 -15.239,-15.737084 -21.42512,-17.085162 -1.70703,-0.371994 -1.84475,-0.146628 -0.78958,1.29205 0.70297,0.958453 1.85072,1.74264 2.55058,1.74264 1.26403,0 9.96922,6.130672 13.50308,9.509612 1.01544,0.970932 1.84626,2.587657 1.84626,3.592723 0,1.718284 -5.23433,2.101879 -18.17184,1.331713 -1.00055,-0.05956 -2.60974,-1.854246 -3.57599,-3.988186 -0.96625,-2.13394 -2.28402,-4.274576 -2.92838,-4.75697 -0.64435,-0.482394 -0.78316,-0.885306 -0.30846,-0.89536 0.47472,-0.01 -0.0511,-1.495624 -1.16832,-3.301266 -2.83888,-4.587888 -2.03065,-6.208338 2.5176,-5.047585 5.87517,1.499398 3.79195,-1.446199 -2.28334,-3.2285528 -7.25707,-2.1290625 -23.60894,-1.9627739 -31.42706,0.3195968 -11.50857,3.359733 -27.65913,14.685295 -29.29179,20.540828 -0.28891,1.036161 -5.09426,2.122878 -14.65795,3.314856 -29.45677,3.671371 -59.54185,10.528661 -84.38634,19.234164 -25.502501,8.936068 -54.653204,22.934899 -53.220655,25.557771 0.43134,0.789743 1.466361,0.626489 2.941583,-0.463976 1.251845,-0.925342 6.228819,-3.647087 11.059943,-6.048319 z M 225.5785,29.965533 c 0,-1.53415 1.96255,-4.055369 5.3416,-6.86215 6.34006,-5.266356 20.8397,-11.982963 22.30038,-10.330119 0.61928,0.700758 -0.35594,3.535302 -2.59572,7.54465 -1.97323,3.532196 -3.8908,7.362302 -4.26126,8.511348 -0.55661,1.726406 -2.00748,2.092002 -8.35552,2.105473 -4.22506,0.0089 -8.75013,0.340229 -10.05571,0.736142 -1.89145,0.573578 -2.37377,0.227074 -2.37377,-1.705344 z m 15.0339,-2.200971 c 2.17596,-0.406984 3.95629,-1.21757 3.95629,-1.801304 0,-0.583735 1.17226,-3.162645 2.60505,-5.730913 l 2.60503,-4.669577 -5.77765,2.891325 c -5.43021,2.71745 -14.20258,8.670734 -14.20258,9.63845 0,0.685122 6.44186,0.489743 10.81386,-0.327981 z m 32.84717,2.930648 c -0.29934,-0.548053 -5.73536,-0.834658 -12.08003,-0.6369 -11.18352,0.348583 -11.53579,0.281534 -11.53579,-2.195571 0,-3.463637 5.62032,-12.009173 9.79075,-14.886537 6.16694,-4.2548522 11.73186,-3.0043978 18.69453,4.200725 3.89529,4.030923 4.50015,5.34996 4.65291,10.146855 0.0835,2.620113 -0.44156,3.053855 -4.44175,3.669604 -2.49501,0.384057 -4.7813,0.249877 -5.08062,-0.298176 z m 6.97949,-4.280024 c 0,-1.894834 -6.63442,-9.939281 -9.65465,-11.706586 -2.51372,-1.470918 -3.83957,-1.571037 -6.69302,-0.505412 -3.44161,1.285268 -11.08262,9.519776 -11.08262,11.943433 0,0.730246 5.30147,1.190375 13.71515,1.190375 7.54332,0 13.71514,-0.414815 13.71514,-0.92181 z m 23.21023,1.677357 c 0,-0.916693 -8.15408,-6.440418 -13.78619,-9.339028 l -5.87361,-3.022897 2.70857,5.749442 c 2.1668,4.599385 3.34169,5.841375 5.87361,6.209041 4.64429,0.674402 11.07762,0.908702 11.07762,0.403442 z m 94.32298,303.979377 c -1.98978,-2.25157 -1.87066,-2.64789 0.63195,-2.10253 2.62948,0.57302 4.21607,1.64746 4.21607,2.85516 0,1.54205 -3.26857,1.03462 -4.84802,-0.75263 z m 84.21866,-0.31266 c 0.72474,-1.3132 1.75186,-2.38764 2.28247,-2.38764 0.53062,0 0.10551,1.07444 -0.94479,2.38764 -1.05025,1.31319 -2.07736,2.38762 -2.28248,2.38762 -0.20511,0 0.22005,-1.07443 0.9448,-2.38762 z M 168.60792,262.45572 V 231.3542 l 5.53881,0.36085 5.53881,0.36084 0.28156,30.74068 0.28155,30.74067 h -5.82036 -5.82037 z m 8.44009,0.6593 v -28.05461 h -3.16504 -3.16502 v 28.05461 28.0546 h 3.16502 3.16504 z m 27.98558,27.81318 c -0.42469,-1.50871 -0.93213,-3.54894 -1.12765,-4.53383 -0.19551,-0.9849 -2.84987,-12.81644 -5.89856,-26.29233 -3.0487,-13.4759 -5.22862,-25.42895 -4.84425,-26.56234 0.4773,-1.40746 1.86691,-2.06072 4.3836,-2.06072 4.2355,0 4.20562,-0.0784 9.6658,25.36852 1.65543,7.71501 3.30563,14.0273 3.66714,14.0273 0.36149,0 2.42907,-7.92393 4.59458,-17.60873 2.16552,-9.68481 4.30455,-18.41457 4.75341,-19.39946 0.94872,-2.08178 6.25459,-2.9131 8.41733,-1.31883 1.24484,0.91764 0.95374,3.35451 -1.80644,15.12213 -1.80973,7.71551 -3.04294,14.48132 -2.74047,15.03512 0.30246,0.55379 0.0471,1.0069 -0.56734,1.0069 -0.6145,0 -1.11727,0.44768 -1.11727,0.99484 0,0.54717 0.6585,0.99485 1.46335,0.99485 0.80485,0 1.34059,-0.8506 1.19051,-1.89021 -0.15008,-1.03962 0.11607,-2.44857 0.59142,-3.13102 0.85876,-1.23289 1.16912,-2.482 4.88251,-19.6509 l 1.93654,-8.9536 5.53319,-0.36144 c 5.42522,-0.35439 5.54583,-0.28985 6.1817,3.30783 0.3567,2.01809 1.06972,3.96382 1.58448,4.32382 0.51478,0.36001 0.70459,1.07815 0.42182,1.59591 -0.28278,0.51774 -0.0404,2.76379 0.53856,4.99121 2.21879,8.53588 10.49127,45.04676 10.49127,46.30362 0,0.91576 -5.81964,1.3204 -18.99019,1.3204 -15.75026,0 -18.99019,-0.29081 -18.99019,-1.70457 0,-0.93751 1.17658,-6.67948 2.61461,-12.75992 1.43804,-6.08045 2.45521,-11.23576 2.26037,-11.45622 -1.00428,-1.13639 -2.79781,3.79886 -5.08146,13.98259 l -2.5432,11.34122 -5.3465,0.3555 c -4.7851,0.31816 -5.42758,0.0674 -6.11867,-2.38764 z m 10.39919,-6.0261 c 0.88502,-3.44713 2.29677,-9.49081 3.13723,-13.43039 0.84047,-3.93959 2.99859,-13.51147 4.79581,-21.27086 1.79723,-7.75939 3.26769,-14.34028 3.26769,-14.6242 0,-0.28393 -0.87322,-0.51624 -1.9405,-0.51624 -1.62934,0 -2.76437,3.54759 -7.07874,22.12488 -3.97915,17.13383 -5.49722,22.04664 -6.72951,21.77811 -1.11941,-0.24394 -3.02686,-6.71612 -6.43264,-21.82643 -4.23857,-18.80518 -5.11734,-21.52535 -7.05771,-21.84668 -2.58982,-0.42888 -2.98706,-3.00087 4.48179,29.01854 2.75685,11.81874 5.2376,22.69737 5.51278,24.17471 0.37526,2.01465 1.24201,2.68608 3.4675,2.68608 2.67178,0 3.12737,-0.62396 4.5763,-6.26752 z m 38.63011,5.37216 c -4.9e-4,-0.49245 -2.32316,-10.83385 -5.16146,-22.9809 -2.83831,-12.14704 -5.58556,-24.2344 -6.10499,-26.86079 -0.875,-4.42418 -1.20789,-4.77524 -4.52814,-4.77524 h -3.58371 l -6.12025,26.86078 c -3.36615,14.77344 -6.12714,27.2637 -6.13556,27.75615 -0.008,0.49244 7.10601,0.89536 15.80985,0.89536 8.70384,0 15.82476,-0.40292 15.82426,-0.89536 z m 5.85048,1.79072 c -1.5858,-5.71246 -3.11587,-12.1114 -6.77959,-28.35305 -2.29573,-10.17726 -4.76149,-20.11575 -5.47947,-22.08554 -1.15877,-3.17911 -1.37691,-7.63836 -0.42851,-8.75954 0.18741,-0.22156 2.04143,-0.83687 4.12003,-1.36734 l 3.7793,-0.96451 2.07602,7.93331 c 1.1418,4.36334 3.45183,13.84271 5.1334,21.06527 l 3.05737,13.13194 1.21287,-4.77525 c 0.66707,-2.62639 2.78487,-11.75906 4.7062,-20.29482 l 3.49337,-15.51956 3.88084,-0.37109 c 2.92074,-0.27929 4.0561,0.14573 4.58928,1.71798 0.63443,1.87081 -1.67899,14.21166 -5.45422,29.09533 -0.74944,2.95469 -2.66485,11.14722 -4.25644,18.20565 l -2.8938,12.83348 h -5.1712 c -3.21267,0 -5.32808,-0.56517 -5.58545,-1.49226 z m 9.77318,-6.56597 c 0.66825,-3.11884 3.526,-15.74341 6.35058,-28.0546 4.97653,-21.69074 5.06697,-22.384 2.91996,-22.384 -1.88049,0 -2.48966,1.30918 -4.02739,8.65516 -4.95415,23.66695 -7.9936,34.93384 -9.51635,35.27605 -0.94211,0.21172 -1.80644,-0.76002 -2.12371,-2.38763 -2.16473,-11.10502 -9.56114,-41.16346 -10.35474,-42.08079 -0.61889,-0.71539 -1.39496,-0.66585 -2.10197,0.13417 -0.7911,0.89518 0.4576,8.25283 4.24464,25.01039 7.34725,32.51137 7.01103,31.50186 10.49195,31.50186 2.5882,0 3.03341,-0.61323 4.11703,-5.67061 z m 4.29751,6.56597 c -0.0687,-0.82075 -0.11157,-1.76087 -0.0953,-2.08918 0.0164,-0.3283 2.26091,-10.26679 4.98797,-22.08553 2.72706,-11.81875 5.50984,-24.16956 6.18398,-27.44623 1.82486,-8.86991 4.16632,-8.56251 6.30023,0.82706 0.93972,4.13499 3.85165,16.84967 6.47094,28.25485 2.61928,11.40517 4.76234,21.47797 4.76234,22.38398 0,2.28831 -28.41873,2.44231 -28.61022,0.15505 z m 24.90897,-4.77525 c -0.38714,-2.13394 -2.52965,-11.66953 -4.76116,-21.19018 -2.23149,-9.52066 -4.38325,-19.34989 -4.78164,-21.84275 -0.39841,-2.49285 -0.86345,-4.3731 -1.03342,-4.17834 -0.16997,0.19476 -2.72867,10.93354 -5.68598,23.86396 -2.95731,12.93041 -5.66057,24.34625 -6.00725,25.36852 -0.54737,1.6141 0.92264,1.85868 11.1715,1.85868 h 11.80182 z m -89.5326,-31.57033 c -2.29718,-8.65445 -4.88215,-20.37027 -4.88215,-22.12725 0,-1.78456 0.9747,-2.11317 6.26781,-2.11317 3.44729,0 6.46726,0.40291 6.71106,0.89536 0.24379,0.49245 -0.79639,6.22814 -2.31151,12.746 -2.67143,11.49211 -4.60695,15.03815 -5.78521,10.59906 z m 3.88834,-13.79455 1.57932,-6.86444 h -3.59239 c -4.02139,0 -4.00543,-0.0423 -2.47396,6.56598 2.29834,9.91751 2.27432,9.91591 4.48703,0.29846 z m 51.68555,14.84828 c -1.4636,-1.02356 -5.59547,-17.25958 -5.59547,-21.98717 0,-3.24599 0.11674,-3.30698 6.33006,-3.30698 4.51437,0 6.33006,0.44844 6.33006,1.56343 0,2.08749 -4.2777,21.32948 -5.14738,23.15403 -0.37702,0.79097 -1.23979,1.05049 -1.91727,0.57669 z m 3.33177,-17.83282 c 0.71872,-3.79142 0.65208,-3.8799 -2.92306,-3.8799 h -3.65855 l 1.65723,7.44449 1.65724,7.44449 1.26581,-3.5646 c 0.6962,-1.96052 1.59681,-5.31054 2.00133,-7.44448 z m -46.90764,-30.41912 c -19.95367,-13.32123 -34.76539,-30.00553 -47.19911,-53.16635 -3.60069,-6.70715 -9.77145,-22.51312 -9.77145,-25.02888 0,-1.1864 6.15067,-1.51488 28.36549,-1.51488 h 28.3655 l 0.70578,5.67061 c 2.88608,23.18848 13.12245,57.46992 20.86615,69.88041 3.54034,5.67398 2.09411,6.83494 -8.37536,6.72315 -7.35804,-0.0785 -10.0243,-0.60617 -12.957,-2.56406 z m 18.9902,-1.53346 c 0,-0.33824 -1.40242,-3.42723 -3.11647,-6.86443 -6.9648,-13.96644 -11.92486,-30.72315 -16.33816,-55.19574 l -2.36817,-13.13195 -25.48648,-0.31968 c -14.01756,-0.17582 -25.4855,0.0928 -25.48435,0.59691 10e-4,0.50412 2.52643,6.61252 5.61171,13.57421 10.93826,24.68133 25.8638,43.53914 45.22233,57.13653 6.10472,4.28794 7.30169,4.68519 14.31076,4.74923 4.20686,0.0384 7.64883,-0.20684 7.64883,-0.54508 z m 77.75371,3.43969 c -1.39367,-1.57701 -0.72008,-2.40056 6.91089,-8.44956 4.20686,-3.33473 8.79978,-7.46248 10.20651,-9.17274 4.58168,-5.57033 5.47174,-4.29805 5.13223,7.33627 l -0.30484,10.44586 -10.60343,0.3376 c -5.8319,0.18567 -10.93551,-0.0382 -11.34136,-0.49743 z m 20.36229,-9.49346 v -6.66876 l -7.12133,6.30389 c -3.91673,3.46714 -7.31914,6.46809 -7.56091,6.66877 -0.24177,0.20066 2.96283,0.36487 7.12132,0.36487 h 7.56092 z"
       id="path1" />
  </g>
</svg>
