<?xml version="1.0" encoding="UTF-8" standalone="no"?>
<!-- Created with Inkscape (http://www.inkscape.org/) -->

<svg
   version="1.1"
   id="svg1"
   width="1000"
   height="563"
   viewBox="0 0 1000 563"
   sodipodi:docname="golden-gate.svg"
   inkscape:version="1.3 (0e150ed6c4, 2023-07-21)"
   xmlns:inkscape="http://www.inkscape.org/namespaces/inkscape"
   xmlns:sodipodi="http://sodipodi.sourceforge.net/DTD/sodipodi-0.dtd"
   xmlns="http://www.w3.org/2000/svg"
   xmlns:svg="http://www.w3.org/2000/svg">
  <defs
     id="defs1" />
  <sodipodi:namedview
     id="namedview1"
     pagecolor="#505050"
     bordercolor="#ffffff"
     borderopacity="1"
     inkscape:showpageshadow="0"
     inkscape:pageopacity="0"
     inkscape:pagecheckerboard="1"
     inkscape:deskcolor="#505050"
     showgrid="false"
     inkscape:zoom="1.927"
     inkscape:cx="544.62896"
     inkscape:cy="281.52569"
     inkscape:window-width="2560"
     inkscape:window-height="1369"
     inkscape:window-x="-8"
     inkscape:window-y="-8"
     inkscape:window-maximized="1"
     inkscape:current-layer="g1" />
  <g
     inkscape:groupmode="layer"
     inkscape:label="Image"
     id="g1">
    <path
       style="fill:#000000;stroke-width:1.27542"
       d="m 157.43583,538.55951 c 0,-15.31631 0.13339,-16.25886 2.30115,-16.25886 2.12068,0 2.30115,-0.94255 2.30115,-12.01742 0,-9.7396 0.32712,-12.01741 1.72587,-12.01741 1.49571,0 1.72586,-5.65033 1.72586,-42.37005 0,-37.08141 -0.21543,-42.26845 -1.72586,-41.55625 -1.33752,0.63069 -1.72587,-0.33367 -1.72587,-4.28581 0,-4.15706 -0.42531,-5.09961 -2.30115,-5.09961 -1.5341,0 -2.30115,-0.94254 -2.30115,-2.82763 0,-2.80809 -0.76706,-2.82763 -111.030578,-2.82763 H -64.625324 v -18.99986 -18.99985 l 5.465235,-0.93512 c 11.181813,-1.91323 32.353032,-8.24161 45.709509,-13.66324 47.864392,-19.42897 92.50141,-57.1842 124.80099,-105.56014 4.71181,-7.057 8.80758,-12.53525 9.10167,-12.17386 0.29411,0.3614 -0.23139,1.77435 -1.16775,3.13992 -0.93638,1.36555 -5.67932,8.27417 -10.5399,15.35246 l -8.837397,12.86962 v 27.22189 c 0,30.99202 -0.954196,29.23124 10.665727,19.68166 13.00154,-10.68504 11.85257,-5.95948 11.19521,-46.04491 l -0.57528,-35.08077 7.25944,-13.43122 c 9.74716,-18.03397 24.35207,-54.80228 30.04491,-75.63905 8.34941,-30.56026 13.64238,-66.304406 13.92219,-94.018622 0.16687,-16.527017 0.93613,-22.621021 2.85547,-22.621021 1.81686,0 2.87149,-3.158008 2.87149,-8.59852 0,-2.2691853 0.51777,-4.1258056 1.15058,-4.1258056 0.63282,0 1.15057,1.8566203 1.15057,4.1258056 0,5.491861 1.05827,8.59852 2.92906,8.59852 0.93393,0 1.83543,2.48431 2.30868,6.362161 l 0.77643,6.362163 h 22.38312 c 21.53179,0 22.35652,-0.103073 21.6835,-2.708641 -0.3848,-1.489764 -0.1608,-3.117841 0.49775,-3.617979 0.65857,-0.500136 1.19738,-2.144218 1.19738,-3.65352 0,-1.509303 0.72064,-2.744184 1.6014,-2.744184 0.98796,0 2.02559,-2.572478 2.70876,-6.715616 l 1.10738,-6.7156166 0.90577,6.1298586 c 0.49818,3.371423 1.60915,6.461512 2.46883,6.86688 0.85967,0.405355 1.56305,1.941378 1.56305,3.413385 0,1.471993 0.38832,2.678767 0.86292,2.681693 0.47462,0.0029 0.95429,7.478468 1.06593,16.612314 0.6824,55.830987 16.59549,117.954835 42.96239,167.722875 16.44468,31.03968 36.30583,58.04006 59.21432,80.49935 35.53048,34.8338 78.51604,58.6184 123.13318,68.13158 13.16796,2.80763 20.44932,2.80466 33.36671,-0.0142 26.46644,-5.77437 49.00246,-14.84063 73.63686,-29.62411 85.32369,-51.20408 142.2415,-152.99126 151.3544,-270.669921 0.74648,-9.639624 1.1143,-20.633398 0.81737,-24.430604 -0.29693,-3.797194 -0.0966,-7.240622 0.44512,-7.652042 0.54174,-0.410883 0.98499,-1.982394 0.98499,-3.491696 0,-1.509303 0.68986,-2.744184 1.53303,-2.744184 0.90378,0 1.99521,-2.756471 2.65905,-6.715616 l 1.12603,-6.7156166 0.92331,6.7156166 c 0.58253,4.236917 1.5121,6.715616 2.51854,6.715616 0.87737,0 1.59522,1.272432 1.59522,2.827627 0,1.555195 0.57388,2.827628 1.27532,2.827628 0.78579,0 0.99818,1.356695 0.55336,3.534534 l -0.72194,3.534535 h 23.05536 23.05536 l -0.69044,-3.380302 c -0.37974,-1.85915 -0.15334,-3.788173 0.50312,-4.286712 0.65645,-0.498539 0.928,-1.756762 0.60344,-2.796057 -0.34222,-1.095861 0.40386,-2.209042 1.77611,-2.649996 1.82492,-0.586408 2.36622,-1.903559 2.36622,-5.757615 0,-2.748497 0.51777,-5.3904772 1.15058,-5.8710608 0.63891,-0.4852067 1.15757,0.5779955 1.16628,2.3907308 0.0264,5.47474 1.31805,9.626688 2.99493,9.626688 0.87541,0 1.59168,1.166395 1.59168,2.591987 0,1.425605 0.32808,2.99515 0.72909,3.487892 0.401,0.492743 0.6392,6.801887 0.52935,14.020326 -0.3186,20.934159 3.52394,52.226836 9.85793,80.280572 25.25483,111.85569 100.75097,202.88633 192.40593,231.99652 7.2062,2.28871 17.7637,5.08775 23.4613,6.22008 5.6975,1.13235 10.5113,2.24576 10.6973,2.47426 0.3424,0.42078 0.7038,20.7962 0.5643,31.82177 l -0.076,6.00871 H 926.59583 c -110.26352,0 -111.03057,0.0195 -111.03057,2.82763 0,1.88508 -0.76706,2.82762 -2.30116,2.82762 -1.78979,0 -2.30115,0.94255 -2.30115,4.24144 0,2.82763 -0.57528,4.24145 -1.72586,4.24145 -1.49651,0 -1.72587,5.7506 -1.72587,43.27259 0,37.88366 0.21494,43.17124 1.72587,42.45878 1.45036,-0.68389 1.72586,1.0974 1.72586,11.15925 v 11.97305 h -17.25864 -17.25863 v -11.86033 c 0,-10.42781 0.2432,-11.83661 2.0135,-11.66397 1.87134,0.1825 2.03042,-2.78396 2.25293,-42.01245 0.23171,-40.84695 0.16673,-42.23218 -2.0135,-42.93276 -1.57974,-0.50763 -2.25293,-1.94206 -2.25293,-4.80049 0,-3.63306 -1.00562,-4.77438 -3.73938,-4.24398 -0.4746,0.0921 -0.86293,-1.105 -0.86293,-2.6602 0,-2.51345 -0.76706,-2.82763 -6.90345,-2.82763 -6.1364,0 -6.90346,0.31418 -6.90346,2.82763 0,1.88508 -0.76706,2.82762 -2.30116,2.82762 -1.76909,0 -2.30115,0.94255 -2.30115,4.07656 0,2.88751 -0.67118,4.29222 -2.30115,4.81599 -2.23575,0.71843 -2.30115,1.92845 -2.30115,42.57931 0,40.89732 0.0517,41.83987 2.30115,41.83987 2.12067,0 2.30115,0.94253 2.30115,12.01741 0,9.73961 0.32712,12.01742 1.72587,12.01742 1.43406,0 1.72587,2.74907 1.72587,16.25886 v 16.2589 h -21.19424 -21.19424 l -0.74689,-4.17858 c -0.4108,-2.29823 -0.60228,-9.39104 -0.42554,-15.76181 0.27032,-9.74435 0.64837,-11.68831 2.38134,-12.24517 1.77294,-0.56971 2.05998,-2.31349 2.05998,-12.51446 0,-10.90999 0.183,-11.85253 2.30116,-11.85253 2.24931,0 2.30115,-0.94255 2.30115,-41.83987 0,-40.65086 -0.0654,-41.86088 -2.30115,-42.57931 -1.62997,-0.52377 -2.30116,-1.92847 -2.30116,-4.81599 0,-3.134 -0.53204,-4.07655 -2.30115,-4.07655 -1.5341,0 -2.30115,-0.94254 -2.30115,-2.82763 0,-2.81806 -0.76706,-2.82763 -226.66346,-2.82763 -225.8964,0 -226.66345,0.01 -226.66345,2.82763 0,1.88509 -0.76706,2.82763 -2.30116,2.82763 -1.7691,0 -2.30115,0.94255 -2.30115,4.07655 0,2.88752 -0.67118,4.29222 -2.30115,4.81599 -2.23596,0.71848 -2.30115,1.92845 -2.30115,42.71167 0,40.78321 0.0653,41.99318 2.30115,42.71167 2.05566,0.66056 2.30115,1.92846 2.30115,11.88506 v 11.14561 h -17.72553 -17.72553 l 0.17925,-10.70383 c 0.1436,-8.57492 0.57972,-10.97906 2.19276,-12.08767 1.84774,-1.26992 2.01351,-4.86995 2.01351,-43.728 0,-41.40162 -0.0512,-42.34416 -2.30115,-42.34416 -1.7898,0 -2.30117,-0.94255 -2.30117,-4.24145 0,-2.6687 -0.59019,-4.24144 -1.59167,-4.24144 -0.87541,0 -1.86245,-1.27243 -2.19343,-2.82763 -0.51871,-2.43737 -1.5694,-2.82763 -7.61293,-2.82763 -6.24412,0 -7.01118,0.30936 -7.01118,2.82763 0,1.88509 -0.76705,2.82763 -2.30115,2.82763 -1.86284,0 -2.30115,0.94255 -2.30115,4.94835 0,3.20465 -0.5068,4.8238 -1.43822,4.59489 -1.11938,-0.2751 -1.50578,8.97093 -1.74299,41.70751 -0.26659,36.79342 -0.0865,42.06097 1.43823,42.06097 1.42022,0 1.74298,2.22534 1.74298,12.01741 0,11.07487 0.18048,12.01742 2.30115,12.01742 2.16775,0 2.30115,0.94255 2.30115,16.25886 v 16.25886 H 179.29677 157.43583 Z M -53.119565,373.23657 c 0,-7.28665 -0.109627,-7.54275 -3.595549,-8.39944 -6.657105,-1.63603 -6.759635,-1.52205 -6.759635,7.51389 v 8.39756 l 4.31466,0.4596 c 2.373063,0.25277 4.702979,0.25363 5.177592,10e-4 0.474612,-0.25174 0.862932,-3.83982 0.862932,-7.97351 z m 11.706772,2.07792 0.201014,-6.41264 0.44043,6.0087 c 0.242237,3.3048 0.79898,6.05709 1.237207,6.1162 1.197735,0.1616 16.518304,0.18367 19.551053,0.0282 2.483906,-0.12738 2.625049,-0.63429 2.301152,-8.2651 -0.342439,-8.06761 -0.371304,-8.1273 -3.79679,-7.84972 -1.89845,0.15384 -9.535399,0.34974 -16.970995,0.43534 l -13.519268,0.15565 v 7.6002 c 0,7.24013 0.149903,7.62139 3.164084,8.04755 7.10628,1.00475 7.178592,0.94737 7.392113,-5.86431 z m 34.6039088,5.71359 c 0.4746126,-0.0598 0.8629319,-4.31842 0.8629319,-9.4635 0,-9.01121 -0.095049,-9.32338 -2.5887963,-8.5022 -1.4238376,0.46888 -3.7537534,0.8612 -5.1775914,0.87182 -2.387019,0.0178 -2.588796,0.66211 -2.588796,8.26654 0,4.53599 0.215729,8.51235 0.479396,8.83634 0.393343,0.48335 5.146054,0.4786 9.0128558,-0.009 z m 11.3122173,-0.10879 c 0.5810605,0 1.0564738,-4.45352 1.0564738,-9.89671 0,-10.67013 -0.00265,-10.67363 -6.7596335,-9.01306 -3.5708331,0.87756 -3.5955498,0.94493 -3.5955498,9.79837 0,8.12259 0.2300335,8.96865 2.5887958,9.52146 1.42383773,0.3337 3.2783406,0.37793 4.1211179,0.0983 0.8427785,-0.27967 2.0077366,-0.50846 2.5887958,-0.50846 z M 17.065566,369.28918 c 0,-11.05007 -0.06189,-11.30036 -2.588795,-10.46824 -1.423838,0.46888 -3.753755,0.8612 -5.1775923,0.87182 -2.4505645,0.0183 -2.5887959,0.5792 -2.5887959,10.50509 0,11.35121 0.2963677,11.85504 6.4539402,10.97171 l 3.901243,-0.55965 z m 11.25796,-1.35456 0.3275,-13.50795 -5.217443,1.46707 -5.217441,1.46708 v 11.54359 c 0,6.34897 0.231451,11.82799 0.514336,12.17559 0.282885,0.3476 2.483361,0.57139 4.889948,0.49729 l 4.375611,-0.13471 z m 10.890626,13.10246 c 0.474613,-0.0648 0.9407,-2.82173 1.035738,-6.12653 l 0.172816,-6.0087 0.690116,6.29766 0.690126,6.29768 10.577026,-0.15557 c 5.817369,-0.0855 11.124401,-0.57123 11.793404,-1.0793 0.669013,-0.50805 1.216481,-0.40905 1.216618,0.22005 2.07e-4,0.97953 3.580478,1.22187 8.916723,0.60354 1.086983,-0.12597 1.438219,-5.86365 1.438219,-23.49457 0,-12.83037 -0.215951,-23.32793 -0.479894,-23.32793 -0.263953,0 -2.885897,1.26728 -5.826539,2.81618 -3.666805,1.93137 -5.073361,3.37502 -4.476834,4.59489 0.671488,1.37318 0.491538,1.40926 -0.789271,0.15827 -1.28486,-1.25493 -2.891846,-0.88499 -7.12432,1.64006 -3.00588,1.79328 -5.465237,3.00858 -5.465237,2.70065 0,-0.30791 -2.718235,0.62106 -6.040523,2.06438 -3.322288,1.44334 -8.241,3.3686 -10.930471,4.27836 l -4.889948,1.6541 v 13.27082 c 0,15.15635 -0.168524,14.91496 9.492251,13.59596 z m 48.036545,-27.13155 c 0,-14.69115 -0.279509,-26.7112 -0.621127,-26.7112 -0.341617,0 -2.671533,1.28538 -5.177591,2.85636 l -4.556465,2.85637 v 23.91654 23.91651 l 3.739372,0.47059 c 6.805484,0.85643 6.615811,1.63927 6.615811,-27.30517 z m 9.874002,27.01374 c 1.359405,0 1.631758,-5.21538 1.631758,-31.24746 v -31.24748 l -4.889948,3.54721 -4.889948,3.5472 -0.311668,27.59092 c -0.286919,25.39952 -0.149839,27.64238 1.725864,28.2391 1.120638,0.35653 2.727073,0.40573 3.569858,0.10946 0.842774,-0.29639 2.266611,-0.53886 3.164084,-0.53886 z m 13.137521,-35.64938 v -35.32844 l -4.88995,3.54749 -4.88995,3.54748 -0.30902,31.8327 c -0.340882,35.11555 -0.664793,33.60562 6.92483,32.28132 l 3.16409,-0.55211 z m 11.01092,35.19469 c 0.2927,-0.93731 0.39435,-19.39706 0.22586,-41.02166 l -0.30631,-39.31745 -4.88995,4.35352 -4.88995,4.3535 v 35.94505 35.94506 l 2.5888,0.47425 c 5.59882,1.02568 6.75905,0.90884 7.27155,-0.73227 z m 31.90062,-0.10472 4.26207,-0.9825 v -58.71113 -58.71114 l -12.36869,13.92144 c -6.80279,7.65679 -14.55811,15.81441 -17.23407,18.12805 l -4.86539,4.20661 -0.0245,41.23624 c -0.0156,26.34736 0.39216,41.40641 1.12959,41.70752 2.05046,0.83724 24.70501,0.21831 29.10105,-0.79509 z m 58.33914,0.27669 c 0,-0.62208 2.84767,-1.13105 6.32817,-1.13105 h 6.32817 v -43.06603 -43.06603 l -9.7799,0.0997 -9.77989,0.0997 v 43.43758 c 0,23.89067 0.24161,43.73448 0.53693,44.09735 0.91701,1.12693 6.36652,0.72353 6.36652,-0.47116 z m 58.40515,-52.91871 0.30109,-53.62726 -5.19103,-6.26018 -5.19102,-6.2602 v 58.75161 58.75158 l 2.58879,1.49908 c 1.42384,0.82451 3.62432,1.33564 4.88994,1.13585 2.2495,-0.3551 2.30792,-1.5671 2.60223,-53.99048 z m 11.77998,6.43316 v -47.6166 l -5.17759,-5.21332 -5.1776,-5.2133 v 52.30743 52.30744 l 2.58881,0.47012 c 1.42383,0.25856 3.75375,0.49367 5.17758,0.52247 l 2.5888,0.0524 z m 10.06754,46.87648 c 1.10207,-0.0828 1.49834,-8.28637 1.69551,-35.10007 l 0.2573,-34.99188 0.60564,35.29181 0.60563,35.29184 15.53277,-0.17463 c 8.54303,-0.096 16.17998,-0.231 16.971,-0.29992 1.09786,-0.0957 1.43822,-6.64282 1.43822,-27.66597 v -27.54062 l -4.88994,-3.06542 c -2.68948,-1.68597 -5.09095,-2.91701 -5.33661,-2.7356 -0.24564,0.1814 -0.76341,-0.24081 -1.15057,-0.93819 -0.38717,-0.69741 -5.62264,-5.29832 -11.6344,-10.22424 -6.01175,-4.92594 -13.33224,-11.40805 -16.26774,-14.40471 -2.9355,-2.99667 -5.65373,-5.44848 -6.04052,-5.44848 -0.38679,0 -0.70325,20.63038 -0.70325,45.8453 0,42.50795 0.14656,45.88573 2.01351,46.4009 1.10743,0.30561 2.79014,0.40093 3.73936,0.21185 0.94923,-0.18909 2.37307,-0.39247 3.16409,-0.45197 z m 26.08377,-29.09135 c -10e-4,-15.55196 0.16709,-22.10702 0.37356,-14.5668 0.20647,7.54021 0.20731,20.26454 0.002,28.27627 -0.20546,8.01174 -0.3744,1.84248 -0.37541,-13.70947 z m -24.55471,-48.18749 c 0.0552,-1.64702 0.32784,-1.98203 0.69512,-0.85419 0.33238,1.0206 0.2915,2.24002 -0.0908,2.70981 -0.38233,0.46981 -0.65426,-0.36524 -0.6043,-1.85562 z m 45.64455,77.27884 c 1.0906,-0.082 1.43822,-5.90543 1.43822,-24.09327 0,-26.30686 0.43957,-24.6267 -7.40129,-28.28984 l -2.9539,-1.38001 v 26.72382 c 0,24.29702 0.18285,26.77426 2.01351,27.27942 1.10743,0.30561 2.79015,0.40093 3.73937,0.21185 0.94924,-0.18909 2.37307,-0.39247 3.16409,-0.45197 z m 12.94398,-20.74455 v -20.30676 l -4.55647,-2.85637 c -2.50606,-1.57098 -4.83597,-2.85635 -5.17759,-2.85635 -0.34161,0 -0.62112,10.45331 -0.62112,23.2296 0,23.00558 0.0249,23.23421 2.58879,23.70824 1.42384,0.26325 3.75375,0.23334 5.17759,-0.0664 2.54393,-0.53567 2.5888,-0.89708 2.5888,-20.85187 z m 10.64283,20.75905 c 0.47461,-0.0674 0.86293,-8.23945 0.86293,-18.15994 v -18.03727 l -5.17759,-2.28782 -5.1776,-2.28782 v 20.08946 c 0,11.04919 0.30155,20.45998 0.6701,20.91285 0.56209,0.6907 2.74903,0.63381 8.82216,-0.22946 z m 12.1176,-15.28082 0.32419,-15.64935 -5.21414,-2.1831 -5.21415,-2.18311 v 17.46903 c 0,18.73597 0.004,18.7511 6.2647,18.39555 l 3.5152,-0.19967 z m 34.48072,15.30666 c 1.00275,-0.10352 1.43822,-3.15848 1.43822,-10.08958 0,-6.72198 -0.46572,-10.11613 -1.43822,-10.4817 -0.79102,-0.29734 -5.5803,-1.61517 -10.64283,-2.9285 -5.06253,-1.31335 -11.49731,-3.27686 -14.29952,-4.36336 -8.3817,-3.24986 -8.1367,-3.63481 -8.1367,12.78423 v 14.75971 l 4.31466,0.43879 c 3.75711,0.3821 24.75113,0.29481 28.76439,-0.11961 z m 24.44974,-8.79628 c 0,-8.24787 -0.0283,-8.318 -3.35763,-8.318 -1.84669,0 -4.1766,-0.38617 -5.17758,-0.85817 -1.54526,-0.72864 -1.81997,0.53764 -1.81997,8.38897 0,9.03064 0.0741,9.25822 3.16408,9.71989 6.48119,0.96836 7.1911,0.0866 7.1911,-8.93269 z m 11.27553,1.0819 c 0.32445,-7.50896 0.18697,-7.98724 -2.30115,-8.00538 -1.45541,-0.0113 -3.81117,-0.40294 -5.23501,-0.87182 -2.47235,-0.81414 -2.58879,-0.47409 -2.58879,7.55965 0,4.62668 0.21514,8.67724 0.4781,9.00123 0.26296,0.32401 2.46344,0.5246 4.88996,0.44575 l 4.41183,-0.14334 z m 9.72248,7.67092 c 1.66321,-0.0868 2.01351,-1.4579 2.01351,-7.88103 v -7.77598 h -5.17759 -5.1776 v 7.54034 c 0,8.52196 0.46954,9.57972 3.89949,8.78469 1.33577,-0.30963 3.33476,-0.61023 4.44219,-0.66802 z m 13.6341,-5.88757 0.69012,-6.2349 0.17282,6.00871 c 0.14915,5.18602 0.52725,6.02532 2.7616,6.13009 3.2451,0.15213 18.39726,0.14653 19.55979,-0.007 0.47461,-0.0628 0.86294,-3.9944 0.86294,-8.73692 v -8.62276 l -11.21813,0.9543 c -6.16996,0.52488 -13.93635,0.87325 -17.25864,0.77415 l -6.04051,-0.18034 v 7.75473 c 0,7.39624 0.14626,7.77776 3.16408,8.25347 5.95639,0.93892 6.58563,0.4141 7.30593,-6.09345 z m 35.32279,-1.77982 c 0.26651,-6.17058 -0.0282,-7.98962 -1.29439,-7.98962 -0.9017,0 -3.25746,-0.39763 -5.23501,-0.88363 l -3.59555,-0.88363 v 8.42397 c 0,4.6332 0.29011,8.78047 0.64472,9.2162 0.35459,0.43571 2.55506,0.63788 4.88994,0.44928 l 4.24524,-0.34293 z m 11.73599,-0.29709 v -7.69253 h -5.17759 -5.1776 v 7.69063 7.69064 l 4.31466,0.4596 c 2.37307,0.25278 4.70299,0.25364 5.1776,0.001 0.47462,-0.25174 0.86293,-3.91934 0.86293,-8.15023 z m 11.27553,0.32527 0.34506,-8.0178 h -5.235 -5.23501 v 7.67765 c 0,6.87716 0.26991,7.72771 2.58879,8.15791 6.66386,1.23624 7.16906,0.71214 7.53616,-7.81776 z m 9.72248,7.64233 c 1.68857,-0.0908 2.01351,-1.50372 2.01351,-8.75594 0,-8.27813 -0.11069,-8.61135 -2.58879,-7.7953 -1.42385,0.46888 -3.75376,0.8612 -5.1776,0.87182 -2.36412,0.0177 -2.58879,0.68393 -2.58879,7.67746 0,7.6668 0.90892,9.34624 4.6023,8.50379 0.94923,-0.21651 2.63194,-0.44233 3.73937,-0.50183 z m 13.28759,-9.23991 c 0.33677,-9.42237 0.29099,-9.59628 -2.30115,-8.74313 -1.45462,0.47878 -3.80972,0.87919 -5.23355,0.8898 -2.3919,0.0178 -2.58881,0.65703 -2.58881,8.40386 0,7.61025 0.23907,8.4289 2.58881,8.86481 6.85579,1.27183 7.1666,0.88344 7.5347,-9.41534 z m 24.39377,9.17238 c 2.21486,-0.007 5.5803,0.14081 7.47875,0.32724 l 3.45172,0.33902 0.33083,-13.07777 c 0.25129,-9.93391 -0.0254,-13.0775 -1.15057,-13.07663 -2.11711,10e-4 -18.40764,4.15087 -20.46591,5.21268 -0.94923,0.48968 -2.20479,0.75222 -2.79015,0.58341 -0.58536,-0.16881 -3.04471,0.10418 -5.46523,0.60672 l -4.40095,0.91366 v 8.82987 c 0,4.85644 0.21621,9.09498 0.48047,9.41897 0.26425,0.32401 4.53577,0.44183 9.49225,0.26184 4.95648,-0.17999 10.82393,-0.33255 13.03879,-0.33901 z m 34.51728,-17.79232 V 345.7456 l -5.17759,2.1678 -5.1776,2.1678 v 15.32073 c 0,14.80378 0.0874,15.33687 2.58881,15.79936 1.42383,0.26325 3.75375,0.23334 5.17758,-0.0664 2.52063,-0.53076 2.5888,-1.00393 2.5888,-17.96716 z m 10.06754,17.93399 c 1.077,-0.13657 1.43822,-5.2871 1.43822,-20.5074 v -20.32509 l -5.17759,2.28782 -5.17759,2.28782 v 17.80162 c 0,9.79091 0.24005,18.09663 0.53345,18.45715 0.46758,0.57456 3.84179,0.57378 8.38351,-0.001 z m 12.94398,-23.0861 c 0,-13.06364 -0.27951,-23.75207 -0.62113,-23.75207 -0.34161,0 -2.67154,1.28537 -5.17759,2.85635 l -4.55647,2.85637 v 20.37323 c 0,22.51355 -0.4778,21.1991 7.7664,21.36584 2.58364,0.0524 2.58879,0.005 2.58879,-23.69972 z m 10.06754,23.01196 c 1.08515,-0.0816 1.49916,-6.44233 1.68647,-25.91027 l 0.24825,-25.80211 0.61468,26.11204 0.61468,26.11206 15.53277,-0.21062 c 8.54303,-0.11579 16.17998,-0.25532 16.971,-0.30995 1.11505,-0.077 1.43822,-9.15357 1.43822,-40.39302 0,-22.16153 -0.24397,-40.29369 -0.54214,-40.29369 -0.29817,0 -5.34632,3.98308 -11.21811,8.8513 -10.79735,8.95194 -17.24146,13.62923 -28.22226,20.48443 l -6.04053,3.77104 v 23.63664 c 0,21.35688 0.19421,23.69024 2.01351,24.19227 1.10743,0.30561 2.79015,0.40093 3.73937,0.21185 0.94923,-0.18909 2.37307,-0.39247 3.16409,-0.45197 z m 26.09787,-35.45352 c 0,-19.05114 0.16287,-26.84479 0.36192,-17.31922 0.19906,9.52558 0.19906,25.11287 0,34.63845 -0.19905,9.52556 -0.36192,1.73192 -0.36192,-17.31923 z m 22.21657,34.76824 c 0.18136,-0.22284 0.19301,-20.88627 0.0259,-45.91872 l -0.30379,-45.51356 -4.88995,4.41951 -4.88995,4.41948 v 41.48153 c 0,38.34851 0.15208,41.5242 2.01351,42.04638 1.92914,0.54118 7.35643,-0.0893 8.04429,-0.93462 z m 11.5296,-51.4894 0.30174,-52.77341 -5.19169,5.22751 -5.19168,5.2275 v 47.09412 47.09413 l 2.58879,0.5067 c 1.42384,0.2787 3.62431,0.482 4.88995,0.45179 2.25376,-0.0537 2.30736,-1.14192 2.60289,-52.82834 z M 713.164,320.31092 V 261.5702 l -5.1776,6.244 -5.17758,6.24399 v 53.33223 53.33223 l 2.58879,0.50694 c 1.42384,0.27881 3.75375,-0.0971 5.1776,-0.83551 l 2.58879,-1.34247 z m 55.22764,16.69671 v -43.74478 h -3.45172 -3.45173 l -0.27013,42.76787 -0.27014,42.76787 -0.32202,-42.76787 -0.32203,-42.76787 h -5.73601 -5.73601 v 43.12132 43.12133 l 6.04053,0.14096 c 3.32228,0.0774 7.33491,0.6135 8.91696,1.19109 1.58204,0.5776 3.26476,0.79475 3.73937,0.48255 0.47462,-0.3122 0.86293,-20.2528 0.86293,-44.31243 z m 68.74691,44.06456 c 1.11902,-0.1189 1.43823,-10.50887 1.43823,-46.81242 v -46.65954 l -4.7725,-5.29812 c -2.62488,-2.91397 -5.05513,-5.29812 -5.40054,-5.29812 -0.34543,0 -2.98708,-3.18109 -5.87034,-7.06907 -2.88325,-3.88799 -5.53936,-7.38718 -5.90247,-7.77598 -0.36311,-0.3888 -3.34023,-4.37188 -6.61581,-8.85131 l -5.95562,-8.14438 v 12.73928 c 0,10.38128 0.31945,12.7393 1.72587,12.7393 1.50421,0 1.72585,6.99179 1.72585,54.44325 v 54.44324 l 5.21958,-0.24259 c 2.87076,-0.13346 5.69279,0.33859 6.27116,1.04895 0.84993,1.04386 11.26904,1.46756 18.13659,0.73751 z m 12.89911,-41.6582 -0.0449,-41.2028 -5.13272,-4.63969 -5.13272,-4.6397 v 45.90418 45.90417 l 3.73937,0.47059 c 6.93599,0.87285 6.6196,2.8854 6.57094,-41.79675 z m 11.28129,5.31278 0.30593,-36.61888 -2.60709,-1.98336 c -1.43389,-1.09085 -3.77205,-2.91361 -5.19588,-4.05058 l -2.5888,-2.06724 v 40.35797 40.35797 l 2.5888,0.57915 c 1.42383,0.31854 3.62431,0.45871 4.88994,0.31151 2.22762,-0.2591 2.31093,-1.43771 2.6071,-36.88654 z m 9.1863,36.30071 2.58881,-0.10814 v -31.62293 -31.62295 l -4.57764,-3.7224 c -2.5177,-2.04733 -4.84762,-3.72241 -5.1776,-3.72241 -0.819,0 -0.766,70.01539 0.0538,71.02272 0.35954,0.44181 1.5245,0.59652 2.5888,0.3438 1.06428,-0.25272 3.10001,-0.50816 4.52385,-0.56766 z m 13.83248,-28.46029 -0.3132,-27.441 -4.88996,-3.31328 -4.88994,-3.31327 v 31.12449 31.12449 l 4.31466,0.45156 c 2.37306,0.24834 4.71448,0.0817 5.20316,-0.37021 0.48866,-0.45197 0.74753,-13.17021 0.57528,-28.26278 z m 11.69342,22.56832 0.50088,-6.23362 0.6497,6.23181 0.6497,6.23179 10.41996,0.0296 c 5.73098,0.0163 11.03801,-0.43976 11.79341,-1.01344 0.75538,-0.57368 1.37313,-0.52833 1.37275,0.10076 -5.6e-4,0.92638 4.20839,1.16543 9.49294,0.53916 0.47461,-0.0563 0.86294,-7.0513 0.86294,-15.54458 v -15.4423 l -4.09565,-1.66093 c -2.25261,-0.91351 -4.71197,-1.82016 -5.46524,-2.01477 -0.75327,-0.19461 -3.6995,-1.64336 -6.54718,-3.21944 -3.94375,-2.1827 -5.57296,-2.48676 -6.83668,-1.27593 -1.27619,1.22278 -1.45579,1.17406 -0.7782,-0.21109 0.61254,-1.25217 -0.80976,-2.68241 -4.66908,-4.69511 -3.05247,-1.59195 -7.94995,-4.43987 -10.88327,-6.32873 -2.9333,-1.88886 -5.65154,-3.4343 -6.04051,-3.4343 -1.23956,0 -0.80124,53.45076 0.44251,53.96057 0.63235,0.25919 2.83283,0.41342 4.88994,0.34272 3.55887,-0.1223 3.7645,-0.43076 4.24108,-6.36216 z m 0.34135,-35.2168 c 0,-2.7216 0.23679,-3.83497 0.52619,-2.47418 0.2894,1.36079 0.2894,3.58755 0,4.94836 -0.2894,1.36079 -0.52619,0.2474 -0.52619,-2.47418 z m 46.90668,27.54286 v -13.12811 l -3.62342,-1.55211 c -6.72413,-2.88035 -6.73176,-2.86539 -6.73176,13.19458 0,14.20852 0.0944,14.76418 2.5888,15.22536 1.42384,0.26325 3.75375,0.23334 5.17759,-0.0664 2.46696,-0.51948 2.58879,-1.16297 2.58879,-13.67323 z m 9.874,13.45774 c 1.27807,0 1.63176,-2.55327 1.63176,-11.77922 v -11.77923 l -5.17759,-1.45587 -5.17759,-1.45586 v 13.13143 c 0,11.31879 0.27793,13.2201 2.01351,13.77393 1.10743,0.3534 2.70305,0.40004 3.54583,0.10363 0.84278,-0.29638 2.26661,-0.53886 3.16408,-0.53886 z m 24.7375,-7.88615 0.66951,-8.37271 0.19343,8.12943 c 0.17557,7.37961 0.4322,8.14009 2.78221,8.24507 3.21654,0.14367 29.88477,0.13543 31.06557,-0.01 0.4746,-0.0581 0.8629,-3.60493 0.8629,-7.88172 v -7.77598 h -5.1776 c -4.1131,0 -5.205,0.50867 -5.311,2.47418 -0.1272,2.35636 -0.1586,2.35636 -0.6597,0 -0.2894,-1.36079 -1.3943,-2.55777 -2.45531,-2.65994 -1.06104,-0.10219 -4.25907,-0.35656 -7.10674,-0.56529 -6.22189,-0.45609 -13.78288,-1.51522 -20.42272,-2.86082 l -4.88995,-0.99096 v 9.97906 c 0,9.26382 0.18555,10.01349 2.5888,10.45933 6.64704,1.23311 7.15057,0.70977 7.8606,-8.16975 z m 46.84912,0.46362 0.3451,-8.12943 h -5.235 -5.235 v 7.65817 c 0,8.17633 0.4705,8.83002 6.2526,8.68758 3.4775,-0.0857 3.5322,-0.20153 3.8723,-8.21632 z m 11.5072,-1.0028 c 0.3379,-8.68898 0.2813,-8.88658 -2.3012,-8.03663 -1.4561,0.47927 -3.8125,0.88009 -5.2364,0.89071 -2.3649,0.0177 -2.5887,0.68319 -2.5887,7.69694 0,6.87716 0.2699,7.72771 2.5887,8.15791 6.7776,1.25732 7.1675,0.80686 7.5376,-8.70893 z m -614.17871,-0.59957 c 0,-9.66907 -0.74256,-10.69682 -7.76639,-10.74919 -2.43962,-0.0181 -2.5888,0.55097 -2.5888,9.87739 v 9.8967 h 5.1776 5.17759 z m 174.88754,-5.82015 c 0,-16.16703 -0.003,-16.17484 -6.73177,-13.29291 l -3.62341,1.55211 v 13.29294 13.29291 h 5.17759 5.17759 z m 369.33487,4.24144 c 0,-8.05445 -0.38033,-10.6036 -1.58204,-10.6036 -0.87013,0 -3.20004,-0.39763 -5.17759,-0.88363 l -3.59555,-0.88364 v 11.48724 11.48724 h 5.17759 5.17759 z M 165.48986,325.07362 c 0,-47.44132 0.22164,-54.43184 1.72586,-54.43184 1.40673,0 1.72587,-2.36161 1.72587,-12.77151 v -12.77152 l -5.17759,7.16346 -5.1776,7.16345 v 60.03989 60.0399 h 3.45173 3.45173 z m 37.96901,11.31051 v -43.12132 h -5.17759 -5.1776 v 43.12132 43.12132 h 5.1776 5.17759 z m 55.19102,-16.61232 -0.0367,-59.73364 -5.67964,-7.77596 -5.67963,-7.77598 -0.0366,13.07777 c -0.0299,10.70215 0.27688,13.07778 1.68924,13.07778 1.50422,0 1.72586,6.99052 1.72586,54.43184 v 54.43183 h 4.02702 4.02702 z m 463.71872,5.30181 c 0,-47.44132 0.22164,-54.43184 1.72586,-54.43184 1.41236,0 1.71921,-2.37563 1.68924,-13.07778 l -0.0367,-13.07777 -5.67963,7.77598 -5.67964,7.77596 -0.0366,59.73364 -0.0367,59.73364 h 4.02702 4.02702 z m 58.67937,11.31051 v -43.12132 h -5.75289 -5.75287 v 43.12132 43.12132 h 5.75287 5.75289 z m -803.964927,26.64415 c 5.459214,-0.85195 5.465235,-0.85891 5.465235,-6.326 0,-3.01021 -0.531477,-5.47311 -1.181061,-5.47311 -1.732184,0 -19.907054,5.83788 -21.253791,6.82684 -0.632059,0.46416 -1.926457,0.88437 -2.876441,0.93384 -5.385661,0.2804 -14.958864,2.63859 -14.958864,3.68485 0,1.3855 26.469385,1.65439 34.804922,0.35358 z m 479.502517,-2.27759 c 0,-2.84277 -1.1317,-3.55847 -10.06754,-6.36677 -5.53715,-1.7402 -10.45586,-3.1619 -10.93048,-3.15937 -0.4746,0.003 -0.86292,2.50918 -0.86292,5.5703 0,6.29593 0.39646,6.48328 14.66984,6.93238 6.75903,0.21267 7.1911,0.0338 7.1911,-2.97654 z m 17.73952,1.97671 c 0.33916,-0.67436 -1.57188,-1.60367 -4.24677,-2.06511 -2.67489,-0.46144 -6.54615,-1.26165 -8.60281,-1.77825 -3.28544,-0.82523 -3.73936,-0.57456 -3.73936,2.06511 0,2.77469 0.61046,3.00434 7.98612,3.00434 4.39236,0 8.26364,-0.55175 8.60282,-1.22609 z m 40.93985,-1.77825 c 0,-2.63596 -0.45853,-2.8914 -3.73938,-2.08313 -2.05665,0.50667 -5.68096,1.30373 -8.05402,1.77124 -7.0715,1.39311 -4.903,3.31623 3.73936,3.31623 7.44492,0 8.05404,-0.22721 8.05404,-3.00434 z m 17.67334,2.10528 c 5.33397,-0.89838 5.33818,-0.90352 5.33818,-6.52707 0,-5.14076 -0.22411,-5.55584 -2.58879,-4.79476 -1.42385,0.45827 -6.34256,1.92124 -10.93047,3.25103 -7.38911,2.14171 -8.34168,2.79191 -8.34168,5.69383 0,2.97615 0.5119,3.27603 5.59229,3.27603 3.07576,0 7.99447,-0.40459 10.93047,-0.89906 z m 480.31842,-2.25045 c -0.3165,-2.71095 -1.9698,-3.67025 -11.8734,-6.8891 -12.52662,-4.07136 -24.67643,-9.02968 -29.57023,-12.06755 -1.70882,-1.06077 -3.41519,-1.92867 -3.79193,-1.92867 -0.37675,0 -0.53191,4.27054 -0.34479,9.49007 l 0.34022,9.49007 4.02701,1.05037 c 2.21486,0.5777 8.68431,1.44678 14.37655,1.93131 5.69224,0.48453 10.56781,1.14918 10.83459,1.47698 0.26678,0.32782 4.05908,0.59603 8.42738,0.59603 7.5558,0 7.9244,-0.15324 7.5746,-3.14951 z m 17.4663,1.89623 c 0,-0.6893 -2.4594,-1.68928 -5.4653,-2.22218 -3.0059,-0.53289 -6.6302,-1.31033 -8.054,-1.72761 -2.0614,-0.60414 -2.5888,-0.15138 -2.5888,2.22218 0,2.74809 0.629,2.98089 8.054,2.98089 4.4297,0 8.0541,-0.56398 8.0541,-1.25328 z M 1.281243,359.82471 c 3.6810203,-0.92034 3.7053159,-0.9827 4.0427591,-10.37658 l 0.3394832,-9.4507 -7.8182266,3.65431 c -4.3000245,2.00987 -9.2420647,4.28115 -10.9823107,5.04728 -2.808145,1.23625 -3.164084,2.10099 -3.164084,7.68701 v 6.29406 l 6.9395515,-0.96475 c 3.816754,-0.5306 8.60602633,-1.38138 10.6428275,-1.89063 z m 432.292807,-3.42387 v -6.13882 l -10.93047,-4.99981 -10.93048,-4.99977 v 9.5908 9.59081 l 8.34168,1.35827 c 14.30516,2.32929 13.51927,2.58515 13.51927,-4.40148 z m 130.59037,1.82845 c 6.96098,-1.49723 14.59793,-3.39655 16.971,-4.22072 l 4.31466,-1.4985 v -12.65786 c 0,-6.96183 -0.18326,-12.65788 -0.40724,-12.65788 -0.22396,0 -5.53099,2.98602 -11.79339,6.63561 -6.2624,3.64958 -11.64506,6.68274 -11.96148,6.74034 -0.3164,0.0575 -5.36456,2.23931 -11.21811,4.84826 l -10.64283,4.74356 v 6.32145 6.32148 l 6.04053,-0.92678 c 3.32228,-0.50969 11.73588,-2.15174 18.69686,-3.64896 z m -544.797702,-2.54621 8.629319,-2.56863 0.332286,-13.09616 c 0.192906,-7.60272 -0.113677,-12.89082 -0.730845,-12.6066 -0.584723,0.26925 -5.502787,3.03442 -10.929033,6.14481 l -9.8659022,5.65525 -0.04608,9.54325 c -0.053627,11.10651 -0.5363006,10.84132 12.6102552,6.92808 z m 391.195812,-6.47962 v -9.09479 l -12.94398,-7.74905 c -7.11919,-4.26197 -17.25022,-10.985 -22.51341,-14.94004 -5.26319,-3.95506 -9.79359,-7.19101 -10.06754,-7.19101 -0.27396,0 -0.49811,7.60692 -0.49811,16.90425 v 16.90427 l 9.17683,3.5622 c 5.04725,1.95921 10.35428,3.88683 11.7934,4.2836 1.43912,0.39676 6.49977,1.95571 11.2459,3.4643 13.99032,4.44694 13.80691,4.52855 13.80691,-6.14373 z m 555.71757,-0.44846 -0.0106,-9.54325 -9.9562,-5.65525 c -5.47592,-3.11039 -10.38986,-5.86733 -10.91987,-6.12652 -0.53027,-0.25921 -0.96392,5.28317 -0.96392,12.31637 V 352.534 l 4.31466,1.42222 c 18.05746,5.9522 17.54824,6.10323 17.53568,-5.20122 z m -365.58489,-1.77303 7.76638,-3.0524 v -16.8505 c 0,-9.26777 -0.17623,-16.8505 -0.39164,-16.8505 -0.2154,0 -4.69901,3.18108 -9.96355,7.06907 -5.26453,3.88799 -10.00701,7.06907 -10.53882,7.06907 -0.53182,0 -0.96693,6.32906 -0.96693,14.06459 v 14.06459 l 3.16409,-1.23077 c 1.74024,-0.67691 6.65895,-2.60434 10.93047,-4.28315 z m -555.962815,-0.1666 c 5.943242,-2.42759 15.222948,-6.75637 20.621577,-9.61953 l 9.815679,-5.20573 0.317615,-21.48438 c 0.174681,-11.8164 0.06776,-21.48437 -0.237582,-21.48437 -0.305351,0 -5.264943,4.42406 -11.021297,9.83124 -5.756366,5.40719 -15.875198,13.75711 -22.486293,18.55536 l -12.020193,8.7241 v 12.54855 c 0,14.92287 -0.691151,14.54831 15.010494,8.13476 z m 898.546785,-8.12121 v -12.535 l -11.21811,-8.15293 c -6.16996,-4.48409 -16.3137,-12.84163 -22.54165,-18.57228 -6.22794,-5.73065 -11.87385,-10.00142 -12.54647,-9.49061 -0.67261,0.5108 -0.9001,0.28689 -0.50555,-0.49758 0.39457,-0.78449 -4.44416,-7.29306 -10.75269,-14.46352 l -11.47008,-13.03721 v 27.42116 27.42114 l 12.94398,8.22667 c 16.67501,10.59795 30.79962,18.02458 32.63484,17.15921 0.79536,-0.37503 1.60902,-0.0921 1.8081,0.62881 0.44439,1.60905 15.48548,8.17665 19.05884,8.32192 2.49646,0.10154 2.58879,-0.34187 2.58879,-12.42978 z m -579.93391,-13.26709 -0.0437,-17.31923 -5.99685,-5.17812 c -3.29828,-2.84798 -8.19735,-7.19748 -10.88682,-9.66556 l -4.88995,-4.48742 0.004,21.68298 0.004,21.68297 10.06345,5.26304 c 5.53489,2.89468 10.45177,5.28049 10.92639,5.30181 0.4746,0.0213 0.84329,-7.75489 0.81927,-17.28047 z m 257.79846,12.12805 10.32938,-5.19117 v -21.78922 -21.78921 l -3.16409,2.97442 c -1.74024,1.63592 -6.64251,5.98343 -10.89392,9.66115 l -7.72985,6.68675 -0.0366,17.31923 c -0.0202,9.52558 0.23397,17.31922 0.56455,17.31922 0.33061,0 5.24932,-2.33603 10.93048,-5.19117 z M 88.549905,323.40927 98.756457,316.79659 v -27.41646 -27.41646 l -10.929896,12.46848 -10.929896,12.46849 -5.76e-4,21.56067 c -3.1e-4,11.85835 0.325188,21.56065 0.723345,21.56065 0.398145,0 5.316857,-2.9757 10.930471,-6.61269 z M 340.3774,308.74551 v -21.27647 l -10.54138,-12.30161 c -5.79776,-6.76589 -10.97536,-12.14257 -11.50576,-11.94817 -0.53041,0.1944 -0.96437,-0.26243 -0.96437,-1.01519 0,-0.75275 -3.24144,-6.00155 -7.20321,-11.66396 -14.62291,-20.90011 -21.2464,-32.33022 -32.1695,-55.51474 l -6.65034,-14.11552 v 46.23603 46.23603 l 10.06754,10.61387 c 5.53715,5.83762 10.71474,10.62893 11.50576,10.64736 0.79102,0.0184 1.43822,0.62907 1.43822,1.35704 0,1.43795 20.19774,18.46983 21.90296,18.46983 0.57297,0 1.21341,-8.11175 1.42321,-18.02612 l 0.38142,-18.02613 0.10383,19.02974 0.10382,19.02974 9.6157,6.76516 c 5.28863,3.72085 10.2629,6.76841 11.05392,6.77237 1.08712,0.005 1.43821,-5.1868 1.43821,-21.26926 z M 293.6908,262.8658 c 9.4e-4,-16.32955 0.16842,-22.81618 0.37219,-14.41475 0.20378,8.40144 0.20301,21.76198 -0.001,29.6901 -0.20471,7.92811 -0.37142,1.0542 -0.37048,-15.27535 z m 23.85675,10.60361 c 0,-1.944 0.26115,-2.73926 0.58033,-1.76727 0.31919,0.972 0.31919,2.56254 0,3.53453 -0.31918,0.972 -0.58033,0.17673 -0.58033,-1.76726 z m -0.0908,-6.47998 c 0.0552,-1.64702 0.32785,-1.98202 0.69514,-0.85419 0.33237,1.0206 0.29149,2.24003 -0.0907,2.70983 -0.38233,0.46979 -0.65426,-0.36525 -0.60431,-1.85564 z m 327.13131,56.63594 c 10.9411,-7.50814 10.88732,-7.46765 23.95451,-18.02816 l 10.10419,-8.1659 -0.0386,-34.95542 -0.0385,-34.95544 -3.7008,5.62819 c -2.03543,3.0955 -7.17181,10.59543 -11.41415,16.66651 -5.16849,7.39644 -7.50522,11.83674 -7.08256,13.4583 0.4573,1.75435 0.33773,1.91961 -0.43469,0.60082 -0.80632,-1.37673 -2.3019,-0.33581 -6.14905,4.27969 -2.79598,3.35438 -7.80182,9.04182 -11.12411,12.63876 l -6.04052,6.53987 v 21.34469 c -1.2e-4,15.12786 0.38479,21.34468 1.3214,21.34468 0.72682,0 5.5161,-2.87846 10.64283,-6.39659 z m 228.50598,-36.198 v -27.04262 l -7.82159,-11.48381 c -4.30188,-6.31608 -9.22975,-13.61367 -10.95083,-16.21687 l -3.12922,-4.73308 0.308,35.01846 0.30799,35.01846 9.675,8.24105 c 5.32126,4.53257 10.11052,8.24105 10.64283,8.24105 0.53231,0 0.96782,-12.16919 0.96782,-27.04264 z m -740.12345,-0.75564 c 10.13024,-10.42054 19.33729,-21.3616 28.62852,-34.02025 l 7.49715,-10.21432 -0.11345,-33.45361 c -0.0909,-26.82224 0.20637,-33.90576 1.49976,-35.73462 1.29971,-1.83778 1.72101,-12.58343 2.16812,-55.29905 0.50401,-48.151811 0.41259,-51.8687 -0.99595,-40.496065 -3.82907,30.916075 -10.42464,59.182405 -20.11816,86.219565 -2.55355,7.12238 -4.94369,14.22221 -5.31141,15.7774 -0.36772,1.5552 -1.00134,3.14574 -1.40803,3.53454 -0.40668,0.3888 -3.24091,6.11475 -6.29827,12.72432 -3.05735,6.60959 -7.81817,16.02426 -10.57959,20.9215 l -5.02075,8.90407 v 34.5707 c 0,21.79005 0.41965,34.57071 1.1351,34.57071 0.62429,0 4.63692,-3.6022 8.91696,-8.00489 z m 558.63301,-2.66644 10.05463,-10.67133 v -46.17535 -46.17535 l -5.88393,12.66499 c -3.23613,6.96575 -8.15485,16.88597 -10.93047,22.04492 l -5.04655,9.37994 v 34.80174 c 0,19.14098 0.39414,34.80177 0.87585,34.80177 0.4817,0 5.40041,-4.8021 10.93047,-10.67133 z m 158.47896,-23.97465 v -34.64596 l -6.71873,-12.36335 c -3.69529,-6.79983 -8.47464,-16.33969 -10.62076,-21.19968 -2.14611,-4.85997 -4.30029,-8.83633 -4.78703,-8.83633 -0.48674,0 -0.885,-0.81337 -0.885,-1.80748 0,-0.99411 -2.2704,-8.15154 -5.04535,-15.9054 -9.56189,-26.7182 -16.41092,-55.64074 -20.15365,-85.106237 l -2.11467,-16.648154 0.59166,54.431831 c 0.48561,44.6759 0.88127,54.64145 2.20758,55.60131 1.32329,0.95768 1.58162,7.16769 1.4265,34.29085 l -0.18942,33.12138 3.23307,5.29594 c 6.90406,11.30921 39.19272,48.41726 42.12909,48.41726 0.5097,0 0.92671,-15.59069 0.92671,-34.64598 z M 203.45887,235.29643 v -39.58679 h -3.3851 c -2.92911,0 -3.8978,1.11712 -7.19111,8.29299 l -3.806,8.29296 0.33294,29.1731 c 0.27907,24.45292 0.60486,29.17309 2.01351,29.17309 0.92432,0 1.68057,0.95432 1.68057,2.12073 0,1.5709 1.34235,2.12071 5.1776,2.12071 h 5.17759 z m 20.71037,37.44052 c 0,-1.15233 0.77663,-2.09517 1.72585,-2.09517 1.47944,0 1.72587,-4.24899 1.72587,-29.75801 v -29.758 l -3.96673,-7.61971 -3.96672,-7.61968 h -7.53903 -7.53903 v 39.38466 39.38466 l 9.77989,0.0882 c 7.90549,0.0713 9.7799,-0.31335 9.7799,-2.00698 z m -12.5655,-2.91988 c 0.0552,-1.64703 0.32784,-1.98204 0.69513,-0.85419 0.33237,1.02059 0.29149,2.24002 -0.0907,2.70982 -0.38233,0.46979 -0.65426,-0.36526 -0.60431,-1.85563 z m 548.73388,-34.52064 v -39.58679 h -3.41638 c -2.88479,0 -4.04847,1.21422 -7.47874,7.80344 l -4.06237,7.80342 v 29.66264 c 0,25.42426 0.24659,29.66264 1.72585,29.66264 0.94924,0 1.72587,0.95432 1.72587,2.12073 0,1.60231 1.40626,2.12071 5.75288,2.12071 h 5.75289 z m 8.05402,0 v -39.58679 h -3.45172 -3.45173 v 39.58679 39.58679 h 3.45173 3.45172 z m 12.65634,37.46608 c 0,-1.16641 0.77663,-2.12073 1.72586,-2.12073 1.47783,0 1.72587,-4.15448 1.72587,-28.90743 V 212.8269 l -4.08213,-8.55862 c -3.53114,-7.40342 -4.5406,-8.55864 -7.47875,-8.55864 h -3.39661 v 39.58679 39.58679 h 5.75287 c 4.34663,0 5.75289,-0.5184 5.75289,-2.12071 z M 263.9813,159.81669 c -9.75935,-28.98172 -16.32881,-58.35858 -18.95178,-84.747314 -0.60517,-6.088336 -1.40422,-11.443156 -1.77568,-11.899605 -0.37147,-0.456436 -0.67539,6.27452 -0.67539,14.957683 0,9.58252 0.45221,15.787594 1.15058,15.787594 0.73965,0 1.15057,14.138142 1.15057,39.586792 0,25.44864 0.41092,39.58679 1.15058,39.58679 0.73552,0 1.15057,12.41138 1.15057,34.40656 v 34.40656 l 11.21811,14.61336 11.21813,14.61336 0.30355,-46.38645 0.30357,-46.38647 z m 461.83904,47.79875 c 0,-22.07533 0.41493,-34.52681 1.15057,-34.52681 0.7396,0 1.15058,-14.11034 1.15058,-39.50335 0,-24.81051 0.42794,-39.828354 1.15057,-40.377139 0.64107,-0.486847 1.14278,-6.94112 1.13296,-14.575036 -0.012,-9.368397 -0.37033,-13.030585 -1.13296,-11.580521 -0.61344,1.166397 -1.12327,4.267541 -1.13296,6.891438 -0.0576,15.571943 -10.93837,63.804018 -20.28418,89.914608 l -5.0461,14.09793 0.0485,46.69606 0.0485,46.69607 11.45732,-14.60321 11.45732,-14.60322 z M 194.20602,196.77001 c 0.0943,-2.07531 -4.55638,-1.02201 -4.6819,1.06036 -0.18271,3.03096 -0.15781,7.59554 0.0482,8.83633 0.19167,1.15429 4.55493,-8.16482 4.63369,-9.89669 z m 33.41494,4.59489 c 0,-5.12736 -0.27538,-5.65526 -2.95006,-5.65526 h -2.95006 l 2.58665,5.65526 c 1.42265,3.11039 2.75017,5.65525 2.95005,5.65525 0.19988,0 0.36342,-2.54486 0.36342,-5.65525 z m 521.21089,0 2.34792,-5.65526 h -2.89983 c -2.61607,0 -2.89981,0.55337 -2.89981,5.65526 0,3.11039 0.24835,5.65525 0.55191,5.65525 0.30354,0 1.60845,-2.54486 2.89981,-5.65525 z m 35.66786,0 c 0,-5.08973 -0.28764,-5.65526 -2.87645,-5.65526 -1.58203,0 -2.87643,0.40207 -2.87643,0.89349 0,1.20227 4.66304,10.41702 5.27143,10.41702 0.26479,0 0.48145,-2.54486 0.48145,-5.65525 z M 205.63729,170.92561 c 1.53274,-5.4473 1.4242,-6.25461 -2.47088,-18.37959 -2.24071,-6.9751 -5.46211,-18.28635 -7.15865,-25.13609 -2.94351,-11.88427 -3.22527,-12.4341 -6.15845,-12.01742 l -3.0738,0.43666 -0.31262,27.26272 c -0.38552,33.61978 -0.1294,34.43323 10.66781,33.88305 l 6.90345,-0.35178 z m 5.83483,5.3441 c -0.0224,-0.58321 -0.73434,-2.59863 -1.58204,-4.47871 -1.53898,-3.41327 -1.54319,-3.41394 -2.83566,-0.4464 -1.96574,4.51333 -1.57664,5.98547 1.58203,5.98547 1.58205,0 2.85809,-0.47716 2.83567,-1.06036 z m 16.14884,-1.06037 c 0,-1.16639 0.51776,-2.12071 1.15058,-2.12071 0.72975,0 1.15057,-10.63491 1.15057,-29.07709 v -29.07709 l -2.9914,0.44736 c -2.72436,0.40741 -3.37949,1.89874 -7.33906,16.70622 -2.39122,8.94236 -5.6894,20.29795 -7.3293,25.23461 l -2.9816,8.97576 2.29004,5.51582 c 2.27649,5.48323 2.3307,5.51585 9.17009,5.51585 5.34857,0 6.88008,-0.47208 6.88008,-2.12073 z m 534.18251,-3.99025 c 1.99825,-5.97218 1.98838,-6.24686 -0.46948,-13.07247 -2.98382,-8.28618 -9.58299,-31.92943 -10.72624,-38.42946 -0.68742,-3.90844 -1.31017,-4.59491 -4.16847,-4.59491 h -3.3603 v 28.98319 c 0,18.37958 0.42093,28.98319 1.15057,28.98319 0.63281,0 1.15058,0.95432 1.15058,2.12071 0,1.65944 1.56414,2.11956 7.1911,2.11543 l 7.19109,-0.006 z m 5.4376,4.60421 c 0,-0.82872 -0.58248,-2.84414 -1.2944,-4.4787 -1.29247,-2.96754 -1.29669,-2.96687 -2.83566,0.4464 -2.17122,4.81549 -2.00746,5.53907 1.25361,5.53907 1.58205,0 2.87645,-0.67804 2.87645,-1.50677 z m 17.57822,-1.33702 c 1.73177,-2.48528 1.98157,-6.40638 1.98157,-31.10391 v -28.26012 h -3.33967 c -3.14719,0 -3.48475,0.5907 -5.85755,10.25016 -1.38485,5.63758 -4.60743,17.125 -7.16129,25.5276 l -4.64339,15.27745 2.04637,5.57632 c 2.03077,5.53374 2.09576,5.57629 8.51938,5.57629 5.06145,0 6.90512,-0.62014 8.45458,-2.84379 z m -568.19646,-36.743 c 2.09037,-7.38718 4.16684,-15.49894 4.61438,-18.02612 l 0.81371,-4.59491 h -13.32304 c -11.71905,0 -13.32305,0.28644 -13.32305,2.37925 0,2.5578 7.80857,31.42834 11.01944,40.74208 l 1.94963,5.65526 2.22413,-6.36217 c 1.22326,-3.49918 3.93442,-12.40622 6.0248,-19.79339 z m 551.06301,17.31921 c 4.68543,-15.04306 9.91042,-34.66611 9.91042,-37.21976 0,-2.52705 -0.94078,-2.72048 -13.23164,-2.72048 -7.27739,0 -13.22384,0.47716 -13.21435,1.06037 0.0775,4.7635 12.27921,45.59549 13.6251,45.59549 0.45032,0 1.76003,-3.02202 2.91047,-6.71562 z M 189.02332,92.202721 c -0.44633,-2.496965 -1.46362,-9.654398 -2.26067,-15.905406 l -1.44918,-11.365451 -0.13191,13.844362 c -0.0884,9.271028 0.34319,14.507427 1.30631,15.851624 2.38909,3.334353 3.39324,2.373907 2.53545,-2.425129 z m 36.73066,3.406712 c 0.48126,-0.956841 2.14459,-14.48048 4.77305,-38.807 l 0.57285,-5.301802 h -22.44982 -22.44983 l 0.005,3.181082 c 0.003,1.749594 1.03605,11.77 2.29585,22.267569 1.25981,10.497567 2.29294,19.245541 2.29585,19.43994 0.0145,0.964193 34.46614,0.195672 34.95676,-0.779789 z m 4.82561,-0.88649 c 1.21046,-1.487402 1.64367,-5.834795 1.64367,-16.494499 0,-7.961116 -0.21413,-14.209665 -0.47585,-13.885675 -0.26172,0.324004 -1.04522,5.678824 -1.7411,11.899605 -0.69588,6.220781 -1.57489,13.378214 -1.95335,15.905406 -0.74748,4.991428 -0.0326,5.71998 2.52663,2.575163 z m 514.80054,0.854948 c 0,-2.91742 -3.63395,-30.634293 -4.0899,-31.194574 -1.28054,-1.573489 -0.39678,26.96997 0.91494,29.550917 1.4536,2.860116 3.17496,3.751244 3.17496,1.643657 z m 36.82,0.811331 c 8.7e-4,-0.194399 0.72582,-5.443184 1.61102,-11.663964 0.88519,-6.220782 1.98084,-16.241188 2.43475,-22.267569 l 0.82532,-10.957058 h -22.34038 -22.34037 l 0.41207,5.301802 c 0.88532,11.390632 3.90013,37.724527 4.44226,38.802405 0.49211,0.978416 34.95103,1.751659 34.95533,0.784384 z m 5.10723,-2.056845 c 1.22091,-3.909506 1.98336,-26.969602 0.91848,-27.778318 -0.53746,-0.408154 -1.58584,5.179351 -2.32974,12.416694 -0.7439,7.237341 -1.67668,14.196754 -2.07285,15.465356 -0.46878,1.501116 -0.11765,2.306566 1.00554,2.306566 0.94923,0 2.06459,-1.084635 2.47857,-2.410298 z"
       id="path1" />
  </g>
</svg>
